<?xml version='1.0' encoding='utf-8'?>
<svg xmlns="http://www.w3.org/2000/svg" width="200mm" height="200mm" viewBox="0 0 708.66142 708.66141" id="svg2" version="1.1"> <defs id="defs4"/> <metadata id="metadata7"> </metadata> <g id="layer1" style="display:inline" transform="translate(0,-343.70079)"> <path style="fill:#000000;fill-opacity:1;fill-rule:evenodd;stroke:none;stroke-width:1;stroke-linecap:butt;stroke-linejoin:round;stroke-miterlimit:4;stroke-dasharray:none;stroke-dashoffset:0;stroke-opacity:1" d="m 205.44711,504.04882 c -15.93655,-15.93655 -61.25304,-12.4686 -63.89098,-6.06012 -1.2762,3.63397 31.81881,20.45578 34.09166,23.23371 2.27285,2.77789 5.04978,25.2536 -3.03145,33.33484 -8.08121,8.08121 -16.16164,9.59604 -20.20226,10.10112 -4.04061,0.50506 -33.58796,-26.51532 -35.8608,-19.69679 -2.27285,6.81854 6.31424,26.51649 25.75967,45.96195 20.01093,18.55479 61.08829,7.22382 82.23293,27.17801 l 246.19331,246.19331 c 14.33154,14.33154 13.25689,35.9865 29.16678,51.89641 10.10152,10.10153 31.82079,19.19307 50.76115,0.25273 18.94037,-18.94037 10.85993,-42.67856 1.01094,-52.52755 C 537.03085,849.71987 511.98504,849.98311 498.39095,836.389 L 250.0825,595.65711 c -33.54382,-33.54384 -15.63339,-62.60629 -44.63539,-91.60829 z m 339.61361,367.47659 0.79263,7.71652 6.28601,4.54479 -3.17051,7.07988 3.16922,7.07863 -6.28473,4.54605 -0.79389,7.71528 -7.71527,0.7939 -4.54606,6.28472 -7.0786,-3.16922 -7.07989,3.1705 -4.5448,-6.28602 -7.71526,-0.79389 -0.7939,-7.71525 -6.28599,-4.54479 3.17047,-7.07991 -3.17047,-7.07989 6.286,-4.54477 0.7926,-7.71655 7.71655,-0.79261 4.54478,-6.28601 7.0799,3.17049 7.0799,-3.17049 4.54478,6.286 z" id="path4191"/> </g> <g id="layer4" style="display:inline" transform="translate(0,-343.70079)"> <path d="M 169.41521,923.00242 281.73669,810.68097 c 0,0 -0.66308,-12.87042 18.28379,-31.81732 11.16512,-11.1651 21.65359,-8.12007 21.65359,-8.12007 l 11.50346,-11.50345 -4.73673,-13.53349 -10.82679,-12.18014 184.04821,-184.0482 28.75866,-23.34525 21.65356,-26.39031 -6.1249,-6.1249 -6.12493,-6.12492 -26.39029,21.65358 -23.34525,28.75863 -184.04821,184.04822 -12.18015,-10.82677 -13.53347,-4.73674 -11.50347,11.50345 c 0,0 3.04505,10.48845 -8.12009,21.65359 -18.94687,18.94686 -31.81728,18.2838 -31.81728,18.2838 L 116.56495,870.15213 c 0,0 -8.45844,17.25519 13.56834,39.28195 22.02675,22.02677 39.28192,13.56834 39.28192,13.56834 z" style="fill:none;fill-opacity:1;fill-rule:evenodd;stroke:#ffffff;stroke-width:6;stroke-linecap:butt;stroke-linejoin:miter;stroke-miterlimit:4;stroke-dasharray:none;stroke-opacity:1" id="path4878"/> </g> <g id="layer3" style="display:inline" transform="translate(0,-343.70079)"> <path id="path4183" style="fill:#000000;fill-opacity:1;fill-rule:evenodd;stroke:none;stroke-width:1.89499998;stroke-linecap:butt;stroke-linejoin:miter;stroke-miterlimit:4;stroke-dasharray:none;stroke-opacity:1" d="M 169.41521,923.00242 281.73669,810.68097 c 0,0 -0.66308,-12.87042 18.28379,-31.81732 11.16512,-11.1651 21.65359,-8.12007 21.65359,-8.12007 l 11.50346,-11.50345 -4.73673,-13.53349 -10.82679,-12.18014 184.04821,-184.0482 28.75866,-23.34525 21.65356,-26.39031 -6.1249,-6.1249 -6.12493,-6.12492 -26.39029,21.65358 -23.34525,28.75863 -184.04821,184.04822 -12.18015,-10.82677 -13.53347,-4.73674 -11.50347,11.50345 c 0,0 3.04505,10.48845 -8.12009,21.65359 -18.94687,18.94686 -31.81728,18.2838 -31.81728,18.2838 L 116.56495,870.15213 c 0,0 -8.45844,17.25519 13.56834,39.28195 22.02675,22.02677 39.28192,13.56834 39.28192,13.56834 z"/> </g> </svg>