<?xml version="1.0" encoding="UTF-8" standalone="no"?>
<!DOCTYPE svg PUBLIC "-//W3C//DTD SVG 1.1//EN" "http://www.w3.org/Graphics/SVG/1.1/DTD/svg11.dtd">
<svg version="1.1" xmlns="http://www.w3.org/2000/svg" xmlns:xlink="http://www.w3.org/1999/xlink" preserveAspectRatio="xMidYMid meet" viewBox="0 0 640 640" width="640" height="640"><defs><path d="M299.82 83.97L300.28 84.02L300.74 84.08L301.2 84.17L301.63 84.27L302.08 84.38L302.5 84.52L302.93 84.66L303.34 84.82L303.75 85.01L304.15 85.2L304.92 85.64L305.29 85.88L305.66 86.13L306 86.4L306.34 86.68L306.67 86.96L307.3 87.58L307.59 87.91L307.87 88.25L308.14 88.6L308.38 88.96L308.63 89.33L308.85 89.7L309.07 90.09L309.27 90.49L309.44 90.89L309.61 91.3L309.76 91.73L309.9 92.16L310.01 92.59L310.12 93.03L310.2 93.47L310.26 93.94L310.31 94.39L310.33 94.85L310.34 95.33L310.34 123.28L436.87 123.28L437.07 123.29L437.28 123.29L437.87 123.32L438.05 123.35L438.25 123.37L438.84 123.46L439.03 123.49L439.23 123.53L439.41 123.57L439.61 123.61L440.36 123.82L440.54 123.88L440.73 123.95L440.91 124.01L441.28 124.16L441.46 124.23L441.98 124.48L442.34 124.66L442.5 124.75L442.68 124.85L443.18 125.16L443.34 125.27L443.5 125.38L443.66 125.5L443.82 125.61L444.13 125.86L510.41 179.58L511 180.1L511.19 180.28L511.37 180.46L511.55 180.65L511.9 181.04L512.07 181.24L512.22 181.43L512.38 181.64L512.53 181.85L512.68 182.06L513.08 182.71L513.33 183.16L513.56 183.61L513.77 184.09L513.95 184.56L514.04 184.81L514.11 185.04L514.26 185.54L514.32 185.78L514.37 186.04L514.42 186.29L514.47 186.54L514.51 186.79L514.58 187.3L514.6 187.56L514.62 187.83L514.63 188.09L514.63 188.61L514.61 189.13L514.59 189.38L514.57 189.65L514.54 189.91L514.49 190.15L514.45 190.41L514.4 190.67L514.35 190.92L514.29 191.17L514.22 191.42L514.15 191.67L514.08 191.9L514 192.15L513.9 192.39L513.82 192.63L513.72 192.87L513.61 193.1L513.51 193.33L513.39 193.56L513.15 194.01L513.02 194.23L512.89 194.45L512.75 194.67L512.46 195.08L512.31 195.3L512.15 195.49L511.98 195.7L511.82 195.89L511.64 196.08L511.47 196.27L511.29 196.46L510.92 196.81L510.52 197.16L510.31 197.32L510.11 197.48L443.82 247.66L443.67 247.77L443.36 247.99L443.05 248.2L442.9 248.29L442.73 248.38L442.58 248.49L442.41 248.57L442.24 248.66L441.58 248.99L441.41 249.06L441.06 249.21L440.9 249.27L440.37 249.45L440.01 249.56L439.83 249.61L439.47 249.69L439.1 249.77L438.92 249.8L438.55 249.87L438.37 249.9L438 249.94L437.81 249.95L437.63 249.97L437.25 249.99L310.34 249.99L310.34 283.89L503.16 283.89L503.63 283.9L504.1 283.92L504.57 283.97L505.02 284.04L505.47 284.12L505.92 284.22L506.35 284.33L506.79 284.47L507.21 284.62L507.63 284.79L508.03 284.96L508.82 285.37L509.2 285.6L509.57 285.84L509.93 286.09L510.28 286.35L510.63 286.64L510.95 286.93L511.27 287.22L511.57 287.54L511.87 287.87L512.15 288.21L512.42 288.55L512.67 288.91L512.91 289.28L513.14 289.66L513.34 290.05L513.54 290.44L513.73 290.85L513.89 291.27L514.05 291.68L514.3 292.54L514.39 292.98L514.47 293.44L514.55 293.89L514.59 294.35L514.62 294.82L514.63 295.28L514.63 399.2L514.62 399.67L514.59 400.14L514.55 400.6L514.47 401.05L514.39 401.49L514.3 401.94L514.17 402.38L514.05 402.8L513.89 403.22L513.73 403.63L513.54 404.04L513.34 404.44L513.14 404.83L512.91 405.21L512.67 405.57L512.42 405.93L512.15 406.28L511.87 406.62L511.57 406.95L511.27 407.25L510.95 407.56L510.63 407.85L510.28 408.13L509.93 408.4L509.57 408.65L509.2 408.89L508.82 409.12L508.43 409.32L508.03 409.52L507.63 409.7L507.21 409.87L506.79 410.01L506.35 410.14L505.92 410.27L505.47 410.36L505.02 410.44L504.57 410.51L504.1 410.56L503.63 410.59L503.16 410.6L310.34 410.6L310.34 597.36L310.33 597.84L310.31 598.3L310.26 598.76L310.2 599.21L310.12 599.66L310.01 600.1L309.9 600.54L309.76 600.96L309.61 601.38L309.44 601.8L309.27 602.21L309.07 602.6L308.85 602.99L308.63 603.37L308.14 604.09L307.87 604.44L307.59 604.78L307.3 605.11L306.67 605.73L306.34 606.01L306 606.29L305.66 606.56L305.29 606.82L304.92 607.05L304.54 607.28L304.15 607.48L303.75 607.68L303.34 607.87L302.93 608.03L302.5 608.17L302.08 608.31L301.63 608.43L301.2 608.52L300.74 608.61L300.28 608.68L299.82 608.72L299.35 608.75L298.88 608.76L264.93 608.76L264.45 608.75L263.98 608.72L263.53 608.68L263.07 608.61L262.61 608.52L262.17 608.43L261.73 608.31L261.31 608.17L260.88 608.03L260.47 607.87L260.06 607.68L259.66 607.48L259.27 607.28L258.89 607.05L258.52 606.82L258.15 606.56L257.8 606.29L257.47 606.01L257.14 605.73L256.82 605.42L256.51 605.11L256.22 604.78L255.94 604.44L255.67 604.09L255.42 603.73L255.18 603.37L254.95 602.99L254.74 602.6L254.54 602.21L254.36 601.8L254.19 601.38L254.05 600.96L253.91 600.54L253.8 600.1L253.69 599.66L253.61 599.21L253.55 598.76L253.5 598.3L253.47 597.84L253.46 597.36L253.46 410.6L126.74 410.6L126.56 410.59L126.37 410.59L126.18 410.58L126 410.56L125.81 410.55L125.44 410.5L125.06 410.44L124.89 410.41L124.7 410.38L124.51 410.34L124.34 410.3L124.15 410.26L123.97 410.22L123.62 410.11L123.44 410.05L123.26 410L123.09 409.94L122.92 409.88L122.74 409.8L122.56 409.74L122.4 409.67L122.22 409.59L122.05 409.52L121.56 409.27L121.22 409.08L121.07 408.99L120.9 408.9L120.44 408.59L120.28 408.48L120.14 408.38L119.98 408.26L53.7 358.08L53.5 357.92L53.29 357.76L52.89 357.41L52.52 357.06L52.35 356.87L52.17 356.68L51.99 356.49L51.83 356.3L51.66 356.09L51.51 355.9L51.35 355.69L51.2 355.47L51.06 355.27L50.79 354.84L50.42 354.16L50.3 353.93L50.2 353.7L50.09 353.47L49.91 352.99L49.81 352.75L49.73 352.51L49.59 352.02L49.46 351.52L49.41 351.27L49.36 351.02L49.32 350.76L49.22 349.99L49.2 349.73L49.19 349.47L49.18 349.21L49.18 348.95L49.19 348.68L49.21 348.17L49.23 347.91L49.3 347.4L49.34 347.14L49.39 346.89L49.44 346.64L49.49 346.39L49.56 346.14L49.77 345.4L49.86 345.17L49.95 344.92L50.04 344.68L50.15 344.46L50.25 344.22L50.36 343.99L50.48 343.76L50.6 343.54L50.73 343.32L50.85 343.1L51 342.88L51.13 342.67L51.28 342.45L51.59 342.04L51.74 341.84L51.91 341.64L52.08 341.44L52.25 341.26L52.44 341.07L52.61 340.89L52.8 340.7L53 340.53L53.2 340.36L53.39 340.19L119.69 286.46L120.16 286.09L120.31 285.98L120.48 285.87L120.64 285.76L120.81 285.65L120.98 285.55L121.14 285.46L121.31 285.35L121.48 285.26L121.65 285.17L121.83 285.09L122 284.99L122.18 284.91L122.37 284.84L122.54 284.76L122.72 284.68L122.9 284.62L123.08 284.55L123.64 284.37L124.01 284.26L124.21 284.22L124.4 284.17L124.59 284.13L124.78 284.09L124.97 284.06L125.36 283.99L125.55 283.97L126.14 283.91L126.53 283.89L253.46 283.89L253.46 249.99L60.65 249.99L60.18 249.98L59.71 249.96L59.25 249.91L58.8 249.84L58.34 249.76L57.89 249.66L57.46 249.55L57.02 249.41L56.61 249.26L56.19 249.09L55.78 248.92L55.38 248.72L54.99 248.51L54.62 248.28L54.24 248.04L53.88 247.8L53.53 247.53L53.19 247.25L52.54 246.66L52.24 246.34L51.66 245.68L51.4 245.33L51.14 244.97L50.9 244.6L50.68 244.22L50.47 243.84L50.27 243.44L50.08 243.04L49.92 242.62L49.77 242.2L49.64 241.77L49.52 241.34L49.42 240.9L49.34 240.44L49.28 239.99L49.22 239.53L49.19 239.06L49.18 238.6L49.18 134.68L49.19 134.21L49.22 133.74L49.28 133.28L49.34 132.83L49.42 132.39L49.52 131.94L49.64 131.51L49.77 131.08L49.92 130.66L50.08 130.25L50.27 129.85L50.47 129.45L50.68 129.05L50.9 128.68L51.14 128.31L51.4 127.95L51.66 127.6L51.95 127.26L52.24 126.94L52.54 126.63L52.86 126.32L53.19 126.03L53.53 125.75L53.88 125.48L54.24 125.24L54.62 124.99L54.99 124.76L55.38 124.56L55.78 124.36L56.19 124.18L56.61 124.01L57.02 123.87L57.46 123.74L57.89 123.62L58.34 123.52L58.8 123.44L59.25 123.38L59.71 123.32L60.18 123.29L60.65 123.28L253.46 123.28L253.46 95.33L253.47 94.85L253.5 94.39L253.55 93.94L253.61 93.47L253.69 93.03L253.8 92.59L253.91 92.16L254.05 91.73L254.19 91.3L254.36 90.89L254.54 90.49L254.74 90.09L254.95 89.7L255.18 89.33L255.42 88.96L255.67 88.6L255.94 88.25L256.22 87.91L256.51 87.58L256.82 87.27L257.14 86.96L257.47 86.68L257.8 86.4L258.15 86.13L258.52 85.88L258.89 85.64L259.66 85.2L260.06 85.01L260.47 84.82L260.88 84.66L261.31 84.52L261.73 84.38L262.17 84.27L262.61 84.17L263.07 84.08L263.53 84.02L263.98 83.97L264.45 83.94L264.93 83.93L298.88 83.93L299.35 83.94L299.82 83.97ZM276.39 135.15L276.36 135.62L276.3 136.07L276.24 136.53L276.16 136.97L276.06 137.42L275.94 137.85L275.81 138.28L275.66 138.7L275.5 139.11L275.31 139.52L275.11 139.92L274.9 140.31L274.68 140.68L274.44 141.05L274.18 141.41L273.91 141.76L273.63 142.1L273.34 142.42L273.04 142.73L272.72 143.04L272.38 143.33L272.04 143.61L271.7 143.88L271.34 144.12L270.96 144.37L270.2 144.8L269.79 145L269.39 145.18L268.97 145.35L268.55 145.49L268.12 145.63L267.68 145.74L267.24 145.84L266.78 145.92L266.33 145.99L265.87 146.04L265.39 146.07L264.93 146.08L72.12 146.08L72.12 227.2L264.93 227.2L265.39 227.22L265.86 227.25L266.33 227.29L266.78 227.35L267.24 227.43L267.68 227.53L268.12 227.65L268.55 227.78L268.97 227.94L269.39 228.1L269.79 228.28L270.2 228.48L270.58 228.69L270.96 228.91L271.34 229.15L271.7 229.41L272.04 229.67L272.38 229.95L272.72 230.24L273.03 230.54L273.34 230.86L273.63 231.19L273.91 231.53L274.18 231.86L274.43 232.22L274.68 232.59L274.89 232.98L275.11 233.37L275.31 233.76L275.49 234.16L275.66 234.58L275.81 235L275.94 235.42L276.06 235.86L276.16 236.3L276.24 236.75L276.3 237.2L276.36 237.67L276.38 238.13L276.39 238.6L276.39 295.28L276.38 295.75L276.36 296.21L276.3 296.68L276.24 297.13L276.16 297.58L276.06 298.03L275.94 298.46L275.81 298.88L275.66 299.3L275.31 300.12L275.11 300.51L274.89 300.91L274.68 301.29L274.43 301.66L274.18 302.02L273.91 302.36L273.63 302.7L273.34 303.02L273.03 303.34L272.72 303.64L272.38 303.93L272.04 304.21L271.7 304.47L271.34 304.73L270.96 304.97L270.58 305.19L270.2 305.4L269.79 305.6L269.39 305.78L268.97 305.95L268.55 306.1L268.12 306.22L267.68 306.35L267.24 306.45L266.78 306.53L266.33 306.59L265.86 306.63L265.39 306.67L264.93 306.68L131.02 306.68L79.17 348.72L130.81 387.81L264.93 387.81L265.39 387.82L265.86 387.84L266.33 387.9L266.78 387.96L267.24 388.04L267.68 388.14L268.12 388.26L268.55 388.39L268.97 388.54L269.39 388.71L269.79 388.88L270.2 389.08L270.58 389.29L270.96 389.52L271.34 389.76L271.7 390L272.04 390.27L272.38 390.55L272.72 390.85L273.03 391.15L273.34 391.46L273.63 391.78L273.91 392.12L274.18 392.47L274.43 392.83L274.68 393.2L275.11 393.96L275.31 394.37L275.49 394.77L275.66 395.18L275.81 395.6L275.94 396.03L276.06 396.46L276.16 396.91L276.24 397.36L276.3 397.81L276.36 398.27L276.38 398.74L276.39 399.2L276.39 585.98L287.41 585.98L287.41 399.2L287.42 398.74L287.45 398.27L287.51 397.81L287.57 397.36L287.65 396.91L287.74 396.46L287.87 396.03L288 395.6L288.15 395.18L288.32 394.77L288.5 394.37L288.7 393.96L288.91 393.58L289.13 393.2L289.37 392.83L289.63 392.47L289.89 392.12L290.17 391.78L290.77 391.15L291.42 390.55L291.76 390.27L292.11 390L292.47 389.76L292.84 389.52L293.22 389.29L293.62 389.08L294.01 388.88L294.41 388.71L294.84 388.54L295.25 388.39L295.69 388.26L296.13 388.14L296.57 388.04L297.02 387.96L297.48 387.9L297.94 387.84L298.41 387.82L298.88 387.81L491.7 387.81L491.7 306.68L298.88 306.68L298.41 306.67L297.94 306.63L297.48 306.59L297.03 306.53L296.57 306.45L296.13 306.35L295.25 306.1L294.84 305.95L294.42 305.78L294.01 305.6L293.62 305.4L293.22 305.19L292.84 304.97L292.47 304.73L292.11 304.47L291.76 304.21L291.42 303.93L291.09 303.64L290.77 303.34L290.47 303.02L290.17 302.7L289.89 302.36L289.63 302.02L289.37 301.66L289.13 301.29L288.91 300.91L288.7 300.51L288.5 300.12L288.32 299.71L288.15 299.3L288 298.88L287.87 298.46L287.75 298.03L287.65 297.58L287.57 297.13L287.51 296.68L287.45 296.21L287.42 295.75L287.41 295.28L287.41 238.6L287.42 238.13L287.45 237.67L287.51 237.2L287.57 236.75L287.65 236.3L287.75 235.86L287.87 235.42L288 235L288.15 234.58L288.32 234.16L288.5 233.76L288.7 233.37L288.91 232.98L289.13 232.59L289.37 232.22L289.63 231.86L289.89 231.53L290.17 231.19L290.47 230.86L290.77 230.54L291.09 230.24L291.42 229.95L291.76 229.67L292.11 229.41L292.47 229.15L292.84 228.91L293.22 228.69L293.62 228.48L294.01 228.28L294.42 228.1L294.84 227.94L295.25 227.78L295.69 227.65L296.13 227.53L296.57 227.43L297.03 227.35L297.48 227.29L297.94 227.25L298.41 227.22L298.88 227.2L433.01 227.2L484.64 188.11L432.79 146.08L298.88 146.08L298.41 146.07L297.94 146.04L297.48 145.99L297.03 145.92L296.57 145.84L296.13 145.74L295.69 145.63L295.25 145.49L294.84 145.35L294.42 145.18L294.01 145L293.62 144.8L293.22 144.59L292.84 144.37L292.11 143.88L291.76 143.61L291.42 143.33L291.09 143.04L290.77 142.73L290.17 142.1L289.89 141.76L289.63 141.41L289.37 141.05L289.13 140.68L288.91 140.31L288.7 139.92L288.5 139.52L288.32 139.11L288.15 138.7L288 138.28L287.87 137.85L287.75 137.42L287.65 136.97L287.57 136.53L287.51 136.07L287.45 135.62L287.42 135.15L287.41 134.68L287.41 106.72L276.39 106.72L276.39 135.15Z" id="hAMshD9UG"></path><path d="M306.33 146.08L257.1 146.08L257.1 124.19L306.33 124.19L306.33 146.08Z" id="a8k0TOzDN"></path><path d="M306.33 249.51L257.1 249.51L257.1 227.63L306.33 227.63L306.33 249.51Z" id="c1vL0Gd4T"></path><path d="M306.33 307.06L257.1 307.06L257.1 285.18L306.33 285.18L306.33 307.06Z" id="b1e8Q2C4kG"></path><path d="M302.34 409.45L253.12 409.45L253.12 387.57L302.34 387.57L302.34 409.45Z" id="f2A5WMfqRc"></path></defs><g><g><g><use xlink:href="#hAMshD9UG" opacity="1" fill="#f07f61" fill-opacity="1"></use><g><use xlink:href="#hAMshD9UG" opacity="1" fill-opacity="0" stroke="#000000" stroke-width="1" stroke-opacity="0"></use></g></g><g><use xlink:href="#a8k0TOzDN" opacity="1" fill="#f07f61" fill-opacity="1"></use><g><use xlink:href="#a8k0TOzDN" opacity="1" fill-opacity="0" stroke="#000000" stroke-width="1" stroke-opacity="0"></use></g></g><g><use xlink:href="#c1vL0Gd4T" opacity="1" fill="#f07f61" fill-opacity="1"></use><g><use xlink:href="#c1vL0Gd4T" opacity="1" fill-opacity="0" stroke="#000000" stroke-width="1" stroke-opacity="0"></use></g></g><g><use xlink:href="#b1e8Q2C4kG" opacity="1" fill="#f07f61" fill-opacity="1"></use><g><use xlink:href="#b1e8Q2C4kG" opacity="1" fill-opacity="0" stroke="#000000" stroke-width="1" stroke-opacity="0"></use></g></g><g><use xlink:href="#f2A5WMfqRc" opacity="1" fill="#f07f61" fill-opacity="1"></use><g><use xlink:href="#f2A5WMfqRc" opacity="1" fill-opacity="0" stroke="#000000" stroke-width="1" stroke-opacity="0"></use></g></g></g></g></svg>