<svg version="1.1" xmlns="http://www.w3.org/2000/svg" xmlns:xlink="http://www.w3.org/1999/xlink" preserveAspectRatio="xMidYMid meet" width="469.56135968430516" height="256" viewBox="0 0 469.56135968430516 256" class="css-1j8o68f">
<defs id="SvgjsDefs2164"></defs>
<g id="SvgjsG2165" featurekey="k2wLtp-0" transform="matrix(0.9449414717647981,0,0,0.9449414717647981,185.25292821409292,53.36877933837371)" fill="#5c2d94"><path xmlns="http://www.w3.org/2000/svg" fill="#5c2d94" d="M88.509,20.788l-10.678-7.208c-0.44-0.298-0.961-0.457-1.493-0.457H57.652V3.337  c0-1.475-1.194-2.669-2.669-2.669h-9.967c-1.474,0-2.669,1.195-2.669,2.669v9.787H22.951c-1.474,0-2.669,1.195-2.669,2.669v14.415  c0,1.474,1.195,2.669,2.669,2.669h19.397v7.564H23.662c-0.533,0-1.052,0.159-1.493,0.457l-10.678,7.207  c-0.736,0.497-1.176,1.325-1.176,2.213c0,0.886,0.44,1.716,1.176,2.212l10.677,7.208c0.442,0.297,0.961,0.457,1.494,0.457h18.686  v34.969c0,1.474,1.195,2.669,2.669,2.669h9.967c1.475,0,2.669-1.195,2.669-2.669V60.195h19.396c1.475,0,2.67-1.195,2.67-2.67V43.11  c0-1.474-1.195-2.669-2.67-2.669H57.652v-7.564h18.686c0.532,0,1.053-0.159,1.493-0.457l10.678-7.208  c0.735-0.496,1.176-1.326,1.176-2.212S89.244,21.284,88.509,20.788z M47.686,6.006h4.627v7.118h-4.627V6.006z M52.313,92.494h-4.627  V60.195h4.627V92.494z M74.38,54.856H54.983h-9.967H24.479l-6.723-4.539l6.723-4.538h20.538h9.967H74.38V54.856z M52.313,40.441  h-4.627v-7.564h4.627V40.441z M75.521,27.539H54.983h-9.967H25.62v-9.076h19.396h9.967h20.538L82.244,23L75.521,27.539z"></path></g></svg>