<svg width="109" height="133" viewBox="0 0 109 133" fill="none" xmlns="http://www.w3.org/2000/svg">
<g filter="url(#filter0_d)">
<path d="M107.362 27.483L92.78 17.6372C92.1792 17.2302 91.4677 17.013 90.7412 17.013H65.2237V3.64573C65.2237 1.63095 63.5932 0 61.579 0H47.9681C45.9552 0 44.3234 1.63232 44.3234 3.64573V17.0143H17.8363C15.8234 17.0143 14.1916 18.6467 14.1916 20.6601V40.3503C14.1916 42.3637 15.8234 43.996 17.8363 43.996H44.3247V54.3281H18.8073C18.0794 54.3281 17.3707 54.5453 16.7684 54.9524L2.18663 64.7968C1.18155 65.4757 0.580688 66.6067 0.580688 67.8197C0.580688 69.0299 1.18155 70.1636 2.18663 70.8412L16.7671 80.687C17.3706 81.0926 18.0794 81.3112 18.8073 81.3112H44.3247V129.077C44.3247 131.091 45.9566 132.723 47.9695 132.723H61.5803C63.5946 132.723 65.2251 131.091 65.2251 129.077V81.3112H91.7122C93.7264 81.3112 95.3583 79.6789 95.3583 77.6641V57.9739C95.3583 55.9604 93.7264 54.3281 91.7122 54.3281H65.2237V43.996H90.7412C91.4677 43.996 92.1792 43.7789 92.78 43.3718L107.362 33.526C108.366 32.8485 108.968 31.7147 108.968 30.5045C108.968 29.2943 108.366 28.1605 107.362 27.483ZM51.6143 7.29147H57.9329V17.0143H51.6143V7.29147ZM57.9329 125.43H51.6143V81.3112H57.9329V125.43ZM88.0674 74.0184H61.579H47.9681H19.9229L10.7421 67.8183L19.9229 61.6196H47.9695H61.5803H88.0674V74.0184ZM57.9329 54.3281H51.6143V43.996H57.9329V54.3281ZM89.6255 36.7046H61.579H47.9681H21.4811V24.3072H47.9681H61.579H89.6255L98.8064 30.5045L89.6255 36.7046Z" fill="#8E2ADC"/>
<path d="M107.082 27.8975L107.082 27.8974L92.5002 18.0516L92.4996 18.0512C91.982 17.7005 91.3683 17.513 90.7412 17.513H65.2237H64.7237V17.013V3.64573C64.7237 1.90696 63.3169 0.5 61.579 0.5H47.9681C46.2315 0.5 44.8234 1.90832 44.8234 3.64573V17.0143V17.5143H44.3234H17.8363C16.0997 17.5143 14.6916 18.9227 14.6916 20.6601V40.3503C14.6916 42.0877 16.0997 43.496 17.8363 43.496H44.3247H44.8247V43.996V54.3281V54.8281H44.3247H18.8073C18.1792 54.8281 17.568 55.0154 17.0484 55.3666L17.0482 55.3668L2.4665 65.2111C1.59908 65.7971 1.08069 66.7728 1.08069 67.8197C1.08069 68.8641 1.59928 69.8422 2.46613 70.4266L2.46644 70.4268L17.046 80.272L107.082 27.8975ZM107.082 27.8975C107.948 28.4819 108.468 29.4604 108.468 30.5045C108.468 31.5486 107.948 32.5271 107.082 33.1115L107.082 33.1116L92.5002 42.9574L92.4995 42.9579C91.982 43.3085 91.3683 43.496 90.7412 43.496H65.2237H64.7237V43.996V54.3281V54.8281H65.2237H91.7122C93.4502 54.8281 94.8583 56.2365 94.8583 57.9739V77.6641C94.8583 79.4029 93.4501 80.8112 91.7122 80.8112H65.2251H64.7251V81.3112V129.077C64.7251 130.815 63.3182 132.223 61.5803 132.223H47.9695C46.2329 132.223 44.8247 130.815 44.8247 129.077V81.3112V80.8112M107.082 27.8975L44.8247 80.8112M44.8247 80.8112H44.3247M44.8247 80.8112H44.3247M44.3247 80.8112H18.8073C18.1802 80.8112 17.5687 80.623 17.0469 80.2726L44.3247 80.8112ZM51.6143 6.79147H51.1143V7.29147V17.0143V17.5143H51.6143H57.9329H58.4329V17.0143V7.29147V6.79147H57.9329H51.6143ZM57.9329 125.93H58.4329V125.43V81.3112V80.8112H57.9329H51.6143H51.1143V81.3112V125.43V125.93H51.6143H57.9329ZM88.0674 74.5184H88.5674V74.0184V61.6196V61.1196H88.0674H61.5803H47.9695H19.9229H19.7699L19.6431 61.2052L10.4623 67.4039L9.84864 67.8183L10.4623 68.2327L19.6431 74.4328L19.7699 74.5184H19.9229H47.9681H61.579H88.0674ZM57.9329 54.8281H58.4329V54.3281V43.996V43.496H57.9329H51.6143H51.1143V43.996V54.3281V54.8281H51.6143H57.9329ZM89.6255 37.2046H89.7785L89.9053 37.119L99.0862 30.9189L99.6999 30.5044L99.0861 30.0901L89.9052 23.8928L89.7785 23.8072H89.6255H61.579H47.9681H21.4811H20.9811V24.3072V36.7046V37.2046H21.4811H47.9681H61.579H89.6255Z" stroke="black" stroke-opacity="0.8"/>
<path d="M107.082 27.8975L107.082 27.8974L92.5002 18.0516L92.4996 18.0512C91.982 17.7005 91.3683 17.513 90.7412 17.513H65.2237H64.7237V17.013V3.64573C64.7237 1.90696 63.3169 0.5 61.579 0.5H47.9681C46.2315 0.5 44.8234 1.90832 44.8234 3.64573V17.0143V17.5143H44.3234H17.8363C16.0997 17.5143 14.6916 18.9227 14.6916 20.6601V40.3503C14.6916 42.0877 16.0997 43.496 17.8363 43.496H44.3247H44.8247V43.996V54.3281V54.8281H44.3247H18.8073C18.1792 54.8281 17.568 55.0154 17.0484 55.3666L17.0482 55.3668L2.4665 65.2111C1.59908 65.7971 1.08069 66.7728 1.08069 67.8197C1.08069 68.8641 1.59928 69.8422 2.46613 70.4266L2.46644 70.4268L17.046 80.272L107.082 27.8975ZM107.082 27.8975C107.948 28.4819 108.468 29.4604 108.468 30.5045C108.468 31.5486 107.948 32.5271 107.082 33.1115L107.082 33.1116L92.5002 42.9574L92.4995 42.9579C91.982 43.3085 91.3683 43.496 90.7412 43.496H65.2237H64.7237V43.996V54.3281V54.8281H65.2237H91.7122C93.4502 54.8281 94.8583 56.2365 94.8583 57.9739V77.6641C94.8583 79.4029 93.4501 80.8112 91.7122 80.8112H65.2251H64.7251V81.3112V129.077C64.7251 130.815 63.3182 132.223 61.5803 132.223H47.9695C46.2329 132.223 44.8247 130.815 44.8247 129.077V81.3112V80.8112M107.082 27.8975L44.8247 80.8112M44.8247 80.8112H44.3247M44.8247 80.8112H44.3247M44.3247 80.8112H18.8073C18.1802 80.8112 17.5687 80.623 17.0469 80.2726L44.3247 80.8112ZM51.6143 6.79147H51.1143V7.29147V17.0143V17.5143H51.6143H57.9329H58.4329V17.0143V7.29147V6.79147H57.9329H51.6143ZM57.9329 125.93H58.4329V125.43V81.3112V80.8112H57.9329H51.6143H51.1143V81.3112V125.43V125.93H51.6143H57.9329ZM88.0674 74.5184H88.5674V74.0184V61.6196V61.1196H88.0674H61.5803H47.9695H19.9229H19.7699L19.6431 61.2052L10.4623 67.4039L9.84864 67.8183L10.4623 68.2327L19.6431 74.4328L19.7699 74.5184H19.9229H47.9681H61.579H88.0674ZM57.9329 54.8281H58.4329V54.3281V43.996V43.496H57.9329H51.6143H51.1143V43.996V54.3281V54.8281H51.6143H57.9329ZM89.6255 37.2046H89.7785L89.9053 37.119L99.0862 30.9189L99.6999 30.5044L99.0861 30.0901L89.9052 23.8928L89.7785 23.8072H89.6255H61.579H47.9681H21.4811H20.9811V24.3072V36.7046V37.2046H21.4811H47.9681H61.579H89.6255Z" stroke="url(#paint0_linear)"/>
</g>
<defs>
<filter id="filter0_d" x="-3.41931" y="0" width="116.387" height="140.723" filterUnits="userSpaceOnUse" color-interpolation-filters="sRGB">
<feFlood flood-opacity="0" result="BackgroundImageFix"/>
<feColorMatrix in="SourceAlpha" type="matrix" values="0 0 0 0 0 0 0 0 0 0 0 0 0 0 0 0 0 0 127 0"/>
<feOffset dy="4"/>
<feGaussianBlur stdDeviation="2"/>
<feColorMatrix type="matrix" values="0 0 0 0 0 0 0 0 0 0 0 0 0 0 0 0 0 0 0.25 0"/>
<feBlend mode="normal" in2="BackgroundImageFix" result="effect1_dropShadow"/>
<feBlend mode="normal" in="SourceGraphic" in2="effect1_dropShadow" result="shape"/>
</filter>
<linearGradient id="paint0_linear" x1="54.7743" y1="0" x2="54.7743" y2="132.723" gradientUnits="userSpaceOnUse">
<stop stop-color="white"/>
<stop offset="1" stop-color="white" stop-opacity="0"/>
</linearGradient>
</defs>
</svg>
