<svg width="465" height="202" viewBox="0 0 465 202" fill="none" xmlns="http://www.w3.org/2000/svg">
<path d="M263.889 19.0122L253.799 12.2011C253.383 11.9195 252.891 11.7692 252.388 11.7692H234.731V2.52205C234.731 1.12826 233.602 0 232.209 0H222.79C221.398 0 220.268 1.1292 220.268 2.52205V11.7702H201.94C200.547 11.7702 199.418 12.8994 199.418 14.2922V27.9136C199.418 29.3064 200.547 30.4356 201.94 30.4356H220.269V37.5832H202.612C202.108 37.5832 201.618 37.7334 201.201 38.015L191.111 44.8252C190.416 45.2948 190 46.0772 190 46.9163C190 47.7536 190.416 48.5379 191.111 49.0066L201.2 55.8177C201.618 56.0983 202.108 56.2495 202.612 56.2495H220.269V89.2932C220.269 90.686 221.399 91.8152 222.791 91.8152H232.21C233.603 91.8152 234.732 90.686 234.732 89.2932V56.2495H253.06C254.454 56.2495 255.583 55.1203 255.583 53.7265V40.1052C255.583 38.7124 254.454 37.5832 253.06 37.5832H234.731V30.4356H252.388C252.891 30.4356 253.383 30.2854 253.799 30.0038L263.889 23.1926C264.583 22.724 265 21.9397 265 21.1024C265 20.2652 264.583 19.4809 263.889 19.0122ZM225.313 5.0441H229.686V11.7702H225.313V5.0441ZM229.686 86.7702H225.313V56.2495H229.686V86.7702ZM250.538 51.2045H232.209H222.79H203.384L197.031 46.9154L203.384 42.6273H222.791H232.21H250.538V51.2045ZM229.686 37.5832H225.313V30.4356H229.686V37.5832ZM251.616 25.3915H232.209H222.79H204.462V16.8152H222.79H232.209H251.616L257.969 21.1024L251.616 25.3915Z" fill="white"/>
<path d="M53 97.7947H76.2077C78.9724 97.7947 81.6241 98.1535 84.1629 98.8713C86.7016 99.5891 89.0676 100.599 91.2608 101.902C93.454 103.204 95.4478 104.766 97.242 106.587C99.0362 108.409 100.571 110.436 101.848 112.669C103.124 114.902 104.107 117.308 104.798 119.886C105.489 122.465 105.835 125.15 105.835 127.941C105.835 130.733 105.49 133.418 104.798 135.996C104.107 138.575 103.123 140.988 101.848 143.234C100.572 145.48 99.0364 147.527 97.242 149.375C95.4476 151.222 93.4539 152.804 91.2608 154.12C89.0678 155.436 86.7018 156.453 84.1629 157.17C81.624 157.888 78.9723 158.247 76.2079 158.247H53.0002V147.321H57.825V108.761H53.0002V97.7955L53 97.7947ZM71.0637 108.762V147.322H76.1277C78.281 147.322 80.3147 146.817 82.2287 145.807C84.1427 144.797 85.8042 143.421 87.2132 141.68C88.6221 139.939 89.7386 137.892 90.5627 135.539C91.3868 133.186 91.7989 130.654 91.7988 127.943C91.7988 125.258 91.3868 122.746 90.5627 120.406C89.7386 118.067 88.6221 116.033 87.2131 114.305C85.8042 112.578 84.1427 111.222 82.2287 110.238C80.3147 109.254 78.2811 108.763 76.1279 108.763H71.0638L71.0637 108.762ZM122.184 140.184L122.304 141.42C122.596 142.616 123.095 143.666 123.799 144.57C124.504 145.474 125.335 146.232 126.292 146.843C127.249 147.455 128.312 147.913 129.482 148.219C130.651 148.525 131.834 148.677 133.031 148.677C134.227 148.677 135.363 148.604 136.44 148.458C137.517 148.312 138.56 148.112 139.57 147.86C140.58 147.607 141.564 147.315 142.521 146.983C143.478 146.65 144.448 146.298 145.432 145.926L149.818 154.101C148.303 155.031 146.914 155.822 145.651 156.473C144.388 157.125 143.119 157.663 141.843 158.088C140.567 158.514 139.211 158.826 137.776 159.025C136.34 159.225 134.665 159.324 132.751 159.324C129.162 159.324 125.972 158.733 123.181 157.55C120.39 156.367 118.044 154.765 116.143 152.745C114.242 150.724 112.794 148.358 111.796 145.647C110.799 142.935 110.301 140.064 110.301 137.034C110.301 134.003 110.826 131.158 111.876 128.5C112.926 125.842 114.408 123.523 116.322 121.542C118.237 119.561 120.523 117.999 123.181 116.856C125.839 115.714 128.79 115.142 132.034 115.142C135.277 115.142 138.155 115.68 140.667 116.757C143.179 117.834 145.299 119.322 147.027 121.223C148.755 123.124 150.084 125.357 151.015 127.922C151.945 130.487 152.45 133.245 152.53 136.196C152.61 136.861 152.656 137.519 152.669 138.17C152.683 138.822 152.663 139.493 152.61 140.184H122.184L122.184 140.184ZM131.715 125.111C130.226 125.111 128.957 125.29 127.907 125.649C126.857 126.008 125.973 126.5 125.255 127.125C124.537 127.749 123.966 128.461 123.54 129.258C123.115 130.056 122.783 130.893 122.543 131.77H139.809C139.623 130.866 139.357 130.016 139.012 129.218C138.666 128.421 138.188 127.716 137.576 127.105C136.965 126.493 136.187 126.008 135.244 125.649C134.3 125.29 133.124 125.111 131.715 125.111L131.715 125.111ZM169.477 140.184L169.597 141.42C169.889 142.616 170.387 143.666 171.092 144.57C171.796 145.474 172.627 146.232 173.584 146.843C174.541 147.455 175.604 147.913 176.774 148.219C177.944 148.525 179.127 148.677 180.323 148.677C181.519 148.677 182.656 148.604 183.732 148.458C184.809 148.312 185.853 148.112 186.863 147.86C187.873 147.607 188.856 147.315 189.814 146.983C190.771 146.65 191.741 146.298 192.724 145.926L197.111 154.101C195.595 155.031 194.206 155.822 192.944 156.473C191.681 157.125 190.412 157.663 189.136 158.088C187.859 158.514 186.504 158.826 185.068 159.025C183.633 159.225 181.958 159.324 180.044 159.324C176.455 159.324 173.265 158.733 170.474 157.55C167.682 156.367 165.336 154.765 163.436 152.745C161.535 150.724 160.086 148.358 159.089 145.647C158.092 142.935 157.593 140.064 157.594 137.034C157.594 134.003 158.119 131.158 159.169 128.5C160.219 125.842 161.701 123.523 163.615 121.542C165.529 119.561 167.816 117.999 170.474 116.856C173.132 115.714 176.083 115.142 179.326 115.142C182.57 115.142 185.448 115.68 187.96 116.757C190.471 117.834 192.591 119.322 194.32 121.223C196.048 123.124 197.377 125.357 198.307 127.922C199.237 130.487 199.742 133.245 199.822 136.196C199.902 136.861 199.949 137.519 199.962 138.17C199.975 138.822 199.955 139.493 199.902 140.184H169.477L169.477 140.184ZM179.007 125.111C177.519 125.111 176.249 125.29 175.199 125.649C174.149 126.008 173.265 126.5 172.547 127.125C171.83 127.749 171.258 128.461 170.833 129.258C170.407 130.056 170.075 130.893 169.836 131.77H187.102C186.916 130.866 186.65 130.016 186.304 129.218C185.959 128.421 185.48 127.716 184.869 127.105C184.258 126.493 183.48 126.008 182.536 125.649C181.592 125.29 180.416 125.111 179.007 125.111L179.007 125.111ZM236.428 114.822C236.295 113.891 235.97 113.014 235.451 112.19C234.933 111.366 234.268 110.655 233.458 110.057C232.647 109.459 231.73 108.987 230.706 108.641C229.683 108.296 228.613 108.123 227.496 108.123C226.486 108.123 225.542 108.229 224.665 108.442C223.788 108.654 223.024 108.98 222.372 109.419C221.721 109.857 221.203 110.422 220.817 111.113C220.432 111.805 220.239 112.629 220.239 113.586C220.239 114.782 220.498 115.732 221.016 116.437C221.535 117.141 222.199 117.72 223.01 118.171C223.821 118.623 224.718 118.982 225.702 119.248C226.685 119.514 227.642 119.806 228.573 120.125L239.539 123.794C241.054 124.326 242.476 125.057 243.805 125.987C245.134 126.918 246.284 128.047 247.255 129.377C248.225 130.706 248.989 132.234 249.547 133.962C250.106 135.69 250.385 137.631 250.385 139.784C250.385 142.708 249.846 145.38 248.77 147.799C247.693 150.218 246.185 152.292 244.244 154.019C242.303 155.747 239.977 157.09 237.266 158.047C234.554 159.004 231.55 159.483 228.254 159.482C225.941 159.482 223.754 159.223 221.694 158.705C219.634 158.186 217.753 157.435 216.052 156.452C214.351 155.468 212.862 154.292 211.586 152.923C210.309 151.554 209.313 150.005 208.595 148.277H204.488V136.275H218.923V138.747C218.923 139.943 219.116 141.046 219.501 142.057C219.887 143.067 220.465 143.944 221.236 144.688C222.007 145.433 222.977 146.011 224.147 146.423C225.316 146.835 226.685 147.041 228.254 147.041C230.646 147.041 232.467 146.489 233.717 145.386C234.966 144.283 235.591 142.748 235.591 140.781C235.591 139.77 235.372 138.926 234.933 138.249C234.494 137.571 233.93 136.999 233.238 136.534C232.547 136.069 231.776 135.677 230.926 135.358C230.075 135.038 229.237 134.746 228.413 134.48L219.282 131.529C217.554 130.998 215.886 130.253 214.278 129.296C212.669 128.339 211.247 127.143 210.011 125.708C208.775 124.272 207.791 122.591 207.06 120.663C206.329 118.736 205.963 116.536 205.964 114.064C205.964 111.193 206.495 108.634 207.559 106.388C208.622 104.141 210.111 102.247 212.025 100.705C213.939 99.1635 216.212 97.9938 218.844 97.1963C221.475 96.3987 224.359 96 227.496 96C229.969 96 232.255 96.2858 234.355 96.8573C236.455 97.4289 238.336 98.1932 239.997 99.1502C241.659 100.107 243.068 101.204 244.224 102.44C245.381 103.676 246.265 104.959 246.876 106.288H250.864V118.33H236.428V114.821V114.822ZM255.688 116.937H274.23V147.322H279.973V158.248H255.688V147.322H261.909V127.863H255.688V116.937V116.937ZM261.271 103.617C261.271 102.634 261.45 101.71 261.809 100.846C262.168 99.9821 262.666 99.2311 263.304 98.5931C263.942 97.955 264.693 97.45 265.557 97.0778C266.421 96.7056 267.358 96.5196 268.369 96.5195C269.326 96.5195 270.229 96.7056 271.08 97.0778C271.931 97.45 272.675 97.9551 273.313 98.5931C273.951 99.2311 274.456 99.9821 274.828 100.846C275.201 101.71 275.387 102.634 275.387 103.617C275.387 104.601 275.201 105.525 274.828 106.389C274.456 107.253 273.951 108.004 273.313 108.642C272.675 109.28 271.931 109.785 271.08 110.157C270.229 110.529 269.325 110.715 268.369 110.715C267.358 110.715 266.421 110.529 265.557 110.157C264.693 109.785 263.942 109.28 263.304 108.642C262.666 108.004 262.168 107.253 261.809 106.389C261.45 105.525 261.271 104.601 261.271 103.617L261.271 103.617ZM317.854 156.094C316.366 156.945 314.877 157.556 313.388 157.929C311.9 158.301 310.384 158.487 308.842 158.487C305.652 158.487 302.715 157.942 300.03 156.852C297.345 155.762 295.025 154.253 293.072 152.326C291.118 150.399 289.596 148.119 288.506 145.487C287.416 142.856 286.871 139.998 286.871 136.914C286.871 134.016 287.396 131.285 288.446 128.72C289.496 126.154 290.965 123.908 292.852 121.981C294.739 120.053 296.999 118.531 299.631 117.415C302.263 116.298 305.121 115.727 308.204 115.7C310.092 115.727 311.826 115.926 313.408 116.298C314.99 116.67 316.472 117.175 317.854 117.813V116.936H329.937V156.533C329.937 160.015 329.339 163.026 328.142 165.565C326.946 168.103 325.344 170.204 323.337 171.865C321.33 173.527 318.997 174.763 316.339 175.574C313.681 176.384 310.889 176.79 307.965 176.79C304.349 176.79 301.007 176.298 297.936 175.314C294.866 174.331 292.134 173.002 289.742 171.327L294.726 162.474C296.561 163.644 298.554 164.568 300.708 165.246C302.861 165.924 305.253 166.263 307.885 166.263C309.321 166.263 310.643 166.103 311.853 165.784C313.062 165.465 314.112 164.927 315.003 164.169C315.894 163.411 316.591 162.395 317.097 161.119C317.602 159.843 317.854 158.234 317.854 156.294V156.094L317.854 156.094ZM309.241 147.441C311.102 147.441 312.783 146.969 314.285 146.026C315.787 145.082 316.977 143.839 317.854 142.297L317.934 132.249C317.03 130.574 315.794 129.245 314.226 128.261C312.657 127.277 310.956 126.772 309.121 126.746C307.819 126.772 306.543 127.032 305.293 127.523C304.044 128.015 302.961 128.713 302.043 129.617C301.126 130.521 300.402 131.591 299.87 132.827C299.339 134.063 299.073 135.439 299.073 136.954C299.073 138.549 299.339 139.998 299.87 141.3C300.402 142.603 301.12 143.706 302.024 144.61C302.927 145.514 303.997 146.212 305.234 146.703C306.47 147.195 307.805 147.441 309.241 147.441H309.241ZM372.803 134.482C372.803 132.169 372.192 130.354 370.969 129.039C369.746 127.723 368.125 127.065 366.104 127.065C364.722 127.065 363.326 127.37 361.917 127.982C360.508 128.593 359.139 129.736 357.81 131.411V147.322H364.509V158.248H338.829V147.322H344.89V127.862H338.909V116.936H357.73V120.565C359.458 119.209 361.392 118.139 363.532 117.355C365.672 116.571 367.925 116.179 370.291 116.179C375.262 116.179 379.09 117.568 381.775 120.346C384.46 123.124 385.803 127.184 385.803 132.528V147.321H391.664V158.247H372.803V134.482L372.803 134.482ZM396.649 151.788C396.649 150.724 396.842 149.728 397.227 148.797C397.612 147.867 398.157 147.043 398.862 146.325C399.566 145.607 400.397 145.042 401.354 144.63C402.311 144.218 403.335 144.012 404.424 144.012C405.461 144.012 406.452 144.218 407.395 144.63C408.339 145.042 409.163 145.6 409.868 146.305C410.572 147.009 411.124 147.84 411.522 148.797C411.921 149.754 412.12 150.751 412.12 151.788C412.12 152.851 411.914 153.861 411.502 154.818C411.09 155.775 410.539 156.599 409.848 157.291C409.156 157.982 408.346 158.533 407.415 158.945C406.485 159.357 405.488 159.563 404.424 159.564C403.308 159.564 402.278 159.357 401.334 158.945C400.39 158.533 399.566 157.982 398.862 157.291C398.157 156.599 397.612 155.782 397.227 154.838C396.841 153.894 396.649 152.878 396.649 151.788L396.649 151.788Z" fill="white"/>
<path d="M6.31447 184C8.54027 184 10.1854 184.653 11.2499 185.96L9.36284 187.678C9.07252 187.226 8.66123 186.863 8.12898 186.589C7.59672 186.315 6.98383 186.178 6.29028 186.178C5.2903 186.178 4.48787 186.423 3.88304 186.915C3.2782 187.407 2.97579 188.04 2.97579 188.815C2.97579 190.105 3.83061 191.008 5.54028 191.524L7.6935 192.226C8.90317 192.613 9.82651 193.153 10.4636 193.847C11.1008 194.54 11.4193 195.492 11.4193 196.702C11.4193 198.282 10.8588 199.561 9.73784 200.536C8.61689 201.512 7.19342 202 5.4677 202C2.99998 202 1.17749 201.21 0 199.629L1.91128 197.984C2.28223 198.565 2.7903 199.016 3.43546 199.339C4.08063 199.661 4.78219 199.823 5.54028 199.823C6.49188 199.823 7.2983 199.548 7.95962 199C8.62095 198.452 8.95155 197.774 8.95155 196.968C8.95155 196.371 8.74995 195.871 8.34672 195.468C7.94349 195.065 7.21769 194.702 6.16931 194.379L4.64513 193.871C3.11284 193.355 2.04023 192.698 1.42741 191.899C0.814591 191.101 0.508061 190.073 0.508061 188.815C0.508061 187.476 1.04837 186.339 2.12902 185.403C3.20966 184.468 4.60473 184 6.31447 184V184ZM33.6675 184.435V201.564H31.3449V184.435H33.6675ZM62.448 184C65.3028 184 67.4238 184.742 68.8108 186.226L67.1657 187.992C65.8915 186.782 64.3109 186.177 62.4238 186.177C60.5367 186.177 58.9883 186.827 57.7786 188.125C56.569 189.423 55.9641 191.048 55.9641 193C55.9641 194.968 56.6053 196.597 57.8875 197.887C59.1698 199.177 60.7464 199.822 62.6173 199.822C64.3915 199.822 65.7946 199.524 66.827 198.927V194.161H63.0286V191.984H69.1495V200.427C68.3108 200.927 67.2987 201.314 66.1133 201.589C64.9278 201.863 63.7786 202 62.6657 202C59.9723 202 57.7707 201.161 56.0609 199.484C54.3512 197.806 53.4964 195.645 53.4964 193C53.4964 190.452 54.3391 188.314 56.0246 186.589C57.7101 184.863 59.8513 184 62.448 184V184ZM92.9219 184.435L102.357 198.516H102.406V184.435H104.728V201.564H101.777L92.2445 187.484H92.1961V201.564H89.8736V184.435H92.9219ZM131.767 184.435C133.428 184.435 134.739 184.847 135.698 185.669C136.658 186.492 137.138 187.677 137.138 189.226C137.138 190.726 136.662 191.899 135.71 192.746C134.759 193.593 133.444 194.016 131.767 194.016H127.944V201.564H125.622V184.435H131.767V184.435ZM131.089 191.984C132.299 191.984 133.198 191.762 133.787 191.318C134.376 190.875 134.67 190.177 134.67 189.226C134.67 187.387 133.477 186.468 131.089 186.468H127.944V191.984H131.089V191.984ZM164.321 184C166.87 184 168.995 184.847 170.696 186.54C172.398 188.234 173.249 190.387 173.249 193C173.249 194.661 172.87 196.181 172.112 197.56C171.354 198.939 170.285 200.024 168.906 200.814C167.527 201.605 165.999 202 164.321 202C162.66 202 161.144 201.609 159.773 200.826C158.402 200.044 157.33 198.964 156.555 197.585C155.781 196.206 155.394 194.677 155.394 193C155.394 190.452 156.229 188.314 157.898 186.589C159.567 184.863 161.709 184 164.321 184V184ZM157.862 193C157.862 194.935 158.467 196.556 159.676 197.863C160.886 199.169 162.434 199.822 164.321 199.822C166.176 199.822 167.717 199.177 168.942 197.887C170.168 196.597 170.781 194.968 170.781 193C170.781 191.048 170.176 189.423 168.967 188.125C167.757 186.827 166.201 186.177 164.297 186.177C162.459 186.177 160.926 186.823 159.701 188.113C158.475 189.403 157.862 191.032 157.862 193V193ZM197.989 184C200.215 184 201.86 184.653 202.924 185.96L201.037 187.678C200.747 187.226 200.336 186.863 199.803 186.589C199.271 186.315 198.658 186.178 197.965 186.178C196.965 186.178 196.162 186.423 195.558 186.915C194.953 187.407 194.65 188.04 194.65 188.815C194.65 190.105 195.505 191.008 197.215 191.524L199.368 192.226C200.578 192.613 201.501 193.153 202.138 193.847C202.775 194.54 203.094 195.492 203.094 196.702C203.094 198.282 202.533 199.561 201.412 200.536C200.291 201.512 198.868 202 197.142 202C194.674 202 192.852 201.21 191.675 199.629L193.586 197.984C193.957 198.565 194.465 199.016 195.11 199.339C195.755 199.661 196.457 199.823 197.215 199.823C198.166 199.823 198.973 199.548 199.634 199C200.295 198.452 200.626 197.774 200.626 196.968C200.626 196.371 200.424 195.871 200.021 195.468C199.618 195.065 198.892 194.702 197.844 194.379L196.32 193.871C194.787 193.355 193.715 192.698 193.102 191.899C192.489 191.101 192.183 190.073 192.183 188.815C192.183 187.476 192.723 186.339 193.804 185.403C194.884 184.468 196.279 184 197.989 184V184ZM234.439 184.435V186.613H228.923V201.564H226.6V186.613H221.084V184.435H234.439V184.435ZM279.903 184.435L285.346 197.403H285.443L290.838 184.435H294.298V201.564H291.975V187.484H291.927L286.145 201.564H284.596L278.814 187.484H278.766V201.564H276.443V184.435H279.903V184.435ZM315.554 184.435L320.224 191.96L325.038 184.435H327.869L321.385 194.258V201.564H319.062V194.258L312.579 184.435H315.554V184.435ZM374.446 184C376.672 184 378.317 184.653 379.381 185.96L377.494 187.678C377.204 187.226 376.793 186.863 376.26 186.589C375.728 186.315 375.115 186.178 374.422 186.178C373.422 186.178 372.619 186.423 372.014 186.915C371.41 187.407 371.107 188.04 371.107 188.815C371.107 190.105 371.962 191.008 373.672 191.524L375.825 192.226C377.035 192.613 377.958 193.153 378.595 193.847C379.232 194.54 379.551 195.492 379.551 196.702C379.551 198.282 378.99 199.561 377.869 200.536C376.748 201.512 375.325 202 373.599 202C371.131 202 369.309 201.21 368.131 199.629L370.043 197.984C370.414 198.565 370.922 199.016 371.567 199.339C372.212 199.661 372.914 199.823 373.672 199.823C374.623 199.823 375.43 199.548 376.091 199C376.752 198.452 377.083 197.774 377.083 196.968C377.083 196.371 376.881 195.871 376.478 195.468C376.075 195.065 375.349 194.702 374.301 194.379L372.777 193.871C371.244 193.355 370.172 192.698 369.559 191.899C368.946 191.101 368.639 190.073 368.639 188.815C368.639 187.476 369.18 186.339 370.26 185.403C371.341 184.468 372.736 184 374.446 184V184ZM401.799 184.435V201.564H399.476V184.435H401.799ZM434.112 184.435V186.613H428.595V201.564H426.273V186.613H420.757V184.435H434.112V184.435ZM464.126 184.435V186.613H455.392V191.718H463.521V193.895H455.392V199.387H464.561V201.564H453.07V184.435H464.126V184.435Z" fill="white"/>
</svg>
