<svg width="688" height="308" viewBox="0 0 688 308" fill="none" xmlns="http://www.w3.org/2000/svg">
<g filter="url(#filter0_d)">
<path d="M388.362 31.483L373.78 21.6372C373.179 21.2302 372.468 21.013 371.741 21.013H346.224V7.64573C346.224 5.63095 344.593 4 342.579 4H328.968C326.955 4 325.323 5.63232 325.323 7.64573V21.0143H298.836C296.823 21.0143 295.192 22.6467 295.192 24.6601V44.3503C295.192 46.3637 296.823 47.996 298.836 47.996H325.325V58.3281H299.807C299.079 58.3281 298.371 58.5453 297.768 58.9524L283.187 68.7968C282.182 69.4757 281.581 70.6067 281.581 71.8197C281.581 73.0299 282.182 74.1636 283.187 74.8412L297.767 84.687C298.371 85.0926 299.079 85.3112 299.807 85.3112H325.325V133.077C325.325 135.091 326.957 136.723 328.969 136.723H342.58C344.595 136.723 346.225 135.091 346.225 133.077V85.3112H372.712C374.726 85.3112 376.358 83.6789 376.358 81.6641V61.9739C376.358 59.9604 374.726 58.3281 372.712 58.3281H346.224V47.996H371.741C372.468 47.996 373.179 47.7789 373.78 47.3718L388.362 37.526C389.366 36.8485 389.968 35.7147 389.968 34.5045C389.968 33.2943 389.366 32.1605 388.362 31.483ZM332.614 11.2915H338.933V21.0143H332.614V11.2915ZM338.933 129.43H332.614V85.3112H338.933V129.43ZM369.067 78.0184H342.579H328.968H300.923L291.742 71.8183L300.923 65.6196H328.969H342.58H369.067V78.0184ZM338.933 58.3281H332.614V47.996H338.933V58.3281ZM370.626 40.7046H342.579H328.968H302.481V28.3072H328.968H342.579H370.626L379.806 34.5045L370.626 40.7046Z" fill="white"/>
<path d="M83.5936 145.366H117.132C121.128 145.366 124.96 145.885 128.629 146.923C132.298 147.96 135.717 149.421 138.887 151.304C142.056 153.187 144.937 155.444 147.53 158.077C150.123 160.709 152.342 163.639 154.186 166.867C156.03 170.095 157.452 173.573 158.451 177.301C159.449 181.028 159.949 184.91 159.949 188.945C159.949 192.98 159.45 196.861 158.451 200.589C157.452 204.316 156.03 207.804 154.186 211.051C152.342 214.298 150.124 217.257 147.53 219.928C144.937 222.599 142.056 224.885 138.887 226.787C135.717 228.689 132.298 230.159 128.629 231.197C124.96 232.234 121.128 232.753 117.133 232.753H83.5938V216.959H90.5664V161.219H83.5938V145.368L83.5936 145.366ZM109.698 161.221V216.961H117.017C120.129 216.961 123.068 216.231 125.834 214.77C128.6 213.31 131.001 211.322 133.037 208.805C135.073 206.288 136.687 203.329 137.878 199.928C139.069 196.527 139.664 192.867 139.664 188.947C139.664 185.066 139.069 181.434 137.878 178.052C136.687 174.671 135.073 171.731 133.037 169.233C131.001 166.736 128.6 164.776 125.834 163.354C123.068 161.932 120.129 161.221 117.017 161.221H109.699L109.698 161.221ZM183.576 206.642L183.749 208.429C184.172 210.158 184.892 211.676 185.91 212.983C186.928 214.289 188.129 215.384 189.512 216.268C190.895 217.152 192.431 217.815 194.122 218.257C195.812 218.699 197.522 218.92 199.251 218.92C200.979 218.92 202.622 218.814 204.178 218.603C205.734 218.391 207.241 218.103 208.701 217.738C210.161 217.373 211.583 216.95 212.966 216.47C214.349 215.99 215.751 215.48 217.173 214.942L223.511 226.759C221.322 228.104 219.314 229.248 217.489 230.189C215.665 231.131 213.83 231.909 211.986 232.524C210.142 233.138 208.183 233.59 206.108 233.878C204.034 234.166 201.613 234.31 198.847 234.31C193.66 234.31 189.05 233.455 185.016 231.745C180.983 230.035 177.592 227.72 174.846 224.799C172.099 221.879 170.005 218.458 168.564 214.539C167.123 210.619 166.403 206.469 166.403 202.088C166.403 197.707 167.162 193.595 168.679 189.753C170.196 185.91 172.338 182.558 175.105 179.694C177.871 176.831 181.175 174.573 185.017 172.921C188.858 171.269 193.122 170.443 197.81 170.443C202.497 170.442 206.656 171.221 210.286 172.777C213.917 174.334 216.98 176.486 219.478 179.233C221.975 181.981 223.896 185.209 225.24 188.917C226.585 192.625 227.315 196.612 227.43 200.878C227.546 201.839 227.613 202.79 227.632 203.731C227.651 204.673 227.622 205.643 227.546 206.642H183.576L183.576 206.642ZM197.349 184.853C195.198 184.853 193.363 185.113 191.846 185.632C190.328 186.15 189.051 186.861 188.013 187.764C186.976 188.667 186.15 189.695 185.536 190.848C184.921 192.001 184.441 193.211 184.095 194.48H209.047C208.778 193.173 208.394 191.943 207.895 190.79C207.395 189.638 206.704 188.619 205.82 187.735C204.936 186.852 203.813 186.15 202.449 185.631C201.085 185.113 199.385 184.853 197.349 184.853L197.349 184.853ZM251.921 206.642L252.094 208.429C252.517 210.158 253.237 211.676 254.255 212.983C255.273 214.289 256.474 215.384 257.857 216.268C259.24 217.152 260.777 217.815 262.467 218.257C264.158 218.699 265.867 218.92 267.596 218.92C269.325 218.92 270.967 218.814 272.523 218.603C274.079 218.391 275.587 218.103 277.047 217.738C278.507 217.373 279.928 216.95 281.311 216.47C282.694 215.99 284.096 215.48 285.518 214.942L291.857 226.759C289.667 228.104 287.66 229.248 285.835 230.189C284.01 231.131 282.175 231.909 280.331 232.524C278.487 233.138 276.528 233.59 274.453 233.878C272.379 234.166 269.959 234.31 267.192 234.31C262.006 234.31 257.396 233.455 253.362 231.745C249.328 230.035 245.938 227.72 243.191 224.799C240.444 221.879 238.35 218.458 236.909 214.539C235.468 210.619 234.748 206.469 234.748 202.088C234.749 197.707 235.507 193.595 237.025 189.753C238.542 185.91 240.684 182.558 243.45 179.694C246.217 176.831 249.521 174.573 253.362 172.921C257.203 171.269 261.468 170.443 266.155 170.443C270.843 170.442 275.002 171.221 278.632 172.777C282.262 174.334 285.326 176.486 287.823 179.233C290.321 181.981 292.242 185.209 293.586 188.917C294.93 192.625 295.66 196.612 295.776 200.878C295.891 201.839 295.958 202.79 295.977 203.731C295.997 204.673 295.968 205.643 295.891 206.642H251.922L251.921 206.642ZM265.694 184.853C263.543 184.853 261.709 185.113 260.191 185.632C258.674 186.15 257.396 186.861 256.359 187.764C255.322 188.667 254.496 189.695 253.881 190.848C253.266 192.001 252.786 193.211 252.44 194.48H277.393C277.124 193.173 276.739 191.943 276.24 190.79C275.741 189.638 275.049 188.619 274.165 187.735C273.282 186.852 272.158 186.15 270.794 185.631C269.43 185.113 267.73 184.853 265.694 184.853L265.694 184.853ZM348.677 169.98C348.485 168.635 348.014 167.367 347.265 166.176C346.516 164.984 345.556 163.957 344.384 163.092C343.212 162.227 341.887 161.545 340.408 161.046C338.929 160.546 337.382 160.296 335.769 160.296C334.309 160.296 332.945 160.45 331.677 160.757C330.409 161.065 329.305 161.536 328.364 162.17C327.423 162.804 326.673 163.62 326.116 164.619C325.559 165.619 325.281 166.81 325.281 168.193C325.281 169.923 325.655 171.296 326.404 172.315C327.154 173.333 328.114 174.169 329.286 174.822C330.458 175.475 331.754 175.994 333.176 176.378C334.597 176.763 335.98 177.185 337.325 177.647L353.172 182.95C355.362 183.718 357.417 184.775 359.338 186.12C361.259 187.465 362.92 189.098 364.323 191.019C365.725 192.941 366.829 195.15 367.636 197.648C368.443 200.146 368.846 202.951 368.846 206.064C368.846 210.291 368.068 214.153 366.512 217.65C364.957 221.147 362.776 224.144 359.972 226.642C357.167 229.14 353.806 231.08 349.887 232.464C345.968 233.847 341.627 234.539 336.864 234.539C333.521 234.539 330.361 234.164 327.384 233.415C324.407 232.666 321.689 231.58 319.23 230.158C316.771 228.736 314.62 227.036 312.775 225.057C310.931 223.078 309.49 220.839 308.453 218.341H302.518V200.991H323.379V204.565C323.379 206.294 323.657 207.889 324.214 209.349C324.771 210.809 325.607 212.077 326.721 213.153C327.835 214.229 329.238 215.065 330.928 215.661C332.618 216.256 334.597 216.554 336.864 216.554C340.321 216.554 342.953 215.757 344.759 214.162C346.564 212.567 347.467 210.348 347.467 207.505C347.467 206.044 347.15 204.824 346.516 203.844C345.882 202.864 345.066 202.038 344.067 201.366C343.068 200.693 341.954 200.126 340.725 199.665C339.495 199.204 338.285 198.781 337.094 198.397L323.898 194.132C321.401 193.363 318.99 192.287 316.666 190.904C314.341 189.52 312.286 187.791 310.5 185.716C308.713 183.641 307.292 181.21 306.235 178.424C305.179 175.638 304.65 172.458 304.651 168.884C304.651 164.734 305.419 161.035 306.956 157.788C308.492 154.541 310.644 151.803 313.41 149.574C316.176 147.345 319.461 145.654 323.264 144.501C327.067 143.349 331.236 142.772 335.769 142.772C339.342 142.772 342.646 143.185 345.681 144.012C348.716 144.838 351.434 145.943 353.835 147.326C356.236 148.709 358.272 150.294 359.944 152.081C361.615 153.868 362.892 155.722 363.776 157.644H369.538V175.052H348.677V169.979V169.98ZM376.511 173.038H403.307V216.961H411.606V232.755H376.511V216.961H385.5V188.832H376.511V173.038ZM384.578 153.784C384.578 152.362 384.838 151.026 385.356 149.777C385.875 148.528 386.595 147.443 387.517 146.521C388.439 145.598 389.525 144.868 390.773 144.33C392.022 143.792 393.376 143.523 394.836 143.523C396.219 143.523 397.525 143.792 398.754 144.33C399.984 144.868 401.06 145.598 401.982 146.521C402.904 147.443 403.634 148.528 404.171 149.777C404.709 151.026 404.978 152.362 404.978 153.784C404.978 155.205 404.709 156.541 404.171 157.79C403.633 159.039 402.904 160.124 401.982 161.046C401.06 161.969 399.984 162.699 398.754 163.237C397.525 163.775 396.219 164.044 394.836 164.044C393.376 164.044 392.022 163.775 390.773 163.237C389.525 162.699 388.439 161.969 387.517 161.046C386.595 160.124 385.875 159.039 385.356 157.79C384.838 156.541 384.578 155.205 384.578 153.784L384.578 153.784ZM466.351 229.641C464.199 230.871 462.048 231.755 459.897 232.293C457.745 232.831 455.555 233.1 453.327 233.1C448.717 233.1 444.472 232.312 440.592 230.736C436.711 229.161 433.359 226.98 430.536 224.194C427.712 221.408 425.512 218.113 423.937 214.308C422.362 210.504 421.574 206.373 421.574 201.915C421.574 197.727 422.333 193.778 423.851 190.07C425.368 186.362 427.491 183.114 430.218 180.328C432.946 177.542 436.212 175.342 440.015 173.728C443.819 172.114 447.949 171.288 452.405 171.249C455.133 171.288 457.639 171.576 459.925 172.114C462.211 172.652 464.353 173.382 466.351 174.304V173.036H483.812V230.275C483.812 235.309 482.948 239.661 481.219 243.331C479.49 247.001 477.175 250.037 474.274 252.439C471.374 254.841 468.002 256.628 464.161 257.799C460.319 258.971 456.285 259.557 452.059 259.558C446.834 259.558 442.003 258.847 437.566 257.425C433.129 256.003 429.181 254.082 425.724 251.661L432.927 238.864C435.578 240.555 438.459 241.89 441.571 242.87C444.683 243.85 448.141 244.34 451.944 244.34C454.018 244.34 455.93 244.109 457.678 243.648C459.426 243.187 460.943 242.409 462.23 241.314C463.517 240.218 464.526 238.749 465.256 236.904C465.986 235.059 466.351 232.735 466.351 229.93V229.641L466.351 229.641ZM453.903 217.133C456.592 217.133 459.022 216.451 461.193 215.086C463.364 213.722 465.083 211.926 466.351 209.697L466.466 195.171C465.16 192.75 463.373 190.829 461.107 189.407C458.84 187.985 456.381 187.255 453.73 187.217C451.848 187.255 450.004 187.63 448.198 188.341C446.393 189.052 444.827 190.06 443.502 191.367C442.176 192.673 441.129 194.22 440.361 196.007C439.593 197.794 439.208 199.782 439.208 201.973C439.208 204.278 439.593 206.373 440.361 208.256C441.129 210.139 442.167 211.733 443.473 213.04C444.779 214.347 446.325 215.355 448.112 216.066C449.898 216.777 451.829 217.133 453.903 217.133H453.903ZM545.761 198.399C545.761 195.056 544.877 192.433 543.11 190.531C541.343 188.629 538.999 187.678 536.08 187.678C534.082 187.678 532.065 188.12 530.029 189.003C527.993 189.887 526.014 191.54 524.093 193.961V216.96H533.774V232.754H496.662V216.96H505.422V188.831H496.778V173.037H523.978V178.282C526.475 176.322 529.27 174.776 532.363 173.642C535.455 172.508 538.711 171.941 542.131 171.941C549.315 171.941 554.847 173.949 558.727 177.965C562.607 181.981 564.547 187.851 564.547 195.575V216.96H573.018V232.754H545.761V198.399L545.761 198.399ZM580.221 223.416C580.221 221.879 580.5 220.438 581.057 219.093C581.614 217.748 582.402 216.557 583.42 215.519C584.438 214.481 585.638 213.665 587.021 213.069C588.404 212.474 589.884 212.176 591.459 212.176C592.957 212.176 594.388 212.473 595.752 213.069C597.116 213.665 598.307 214.472 599.325 215.49C600.343 216.508 601.14 217.709 601.716 219.093C602.292 220.476 602.581 221.917 602.581 223.416C602.581 224.953 602.283 226.413 601.687 227.797C601.092 229.18 600.295 230.371 599.296 231.371C598.297 232.37 597.125 233.167 595.781 233.763C594.436 234.358 592.995 234.656 591.459 234.656C589.845 234.656 588.356 234.358 586.993 233.763C585.629 233.167 584.438 232.37 583.42 231.371C582.402 230.371 581.614 229.19 581.057 227.826C580.5 226.461 580.221 224.991 580.221 223.416L580.221 223.416Z" fill="white"/>
<path d="M16.1254 269.98C19.3421 269.98 21.7196 270.925 23.258 272.813L20.5308 275.296C20.1113 274.643 19.5169 274.119 18.7477 273.722C17.9785 273.326 17.0928 273.128 16.0905 273.128C14.6453 273.128 13.4857 273.484 12.6116 274.195C11.7375 274.906 11.3005 275.821 11.3005 276.94C11.3005 278.805 12.5359 280.111 15.0066 280.857L18.1183 281.871C19.8665 282.431 21.2009 283.212 22.1216 284.214C23.0424 285.217 23.5027 286.592 23.5027 288.341C23.5027 290.626 22.6927 292.474 21.0727 293.884C19.4528 295.295 17.3957 296 14.9017 296C11.3355 296 8.70167 294.858 7 292.573L9.7621 290.195C10.2982 291.034 11.0324 291.687 11.9648 292.153C12.8972 292.619 13.911 292.852 15.0066 292.852C16.3818 292.852 17.5472 292.456 18.5029 291.663C19.4587 290.871 19.9364 289.892 19.9364 288.726C19.9364 287.863 19.6451 287.14 19.0624 286.557C18.4796 285.975 17.4307 285.45 15.9157 284.984L13.713 284.249C11.4986 283.503 9.94846 282.553 9.06284 281.399C8.17722 280.245 7.73423 278.759 7.73423 276.94C7.73423 275.005 8.51507 273.361 10.0768 272.009C11.6385 270.656 13.6546 269.98 16.1254 269.98V269.98ZM55.655 270.61V295.37H52.2985V270.61H55.655ZM97.2474 269.98C101.373 269.98 104.438 271.053 106.443 273.198L104.065 275.751C102.224 274.002 99.9396 273.128 97.2124 273.128C94.4853 273.128 92.2476 274.066 90.4995 275.943C88.7513 277.82 87.8772 280.169 87.8772 282.99C87.8772 285.835 88.8037 288.189 90.6568 290.055C92.5099 291.92 94.7884 292.852 97.4921 292.852C100.056 292.852 102.084 292.421 103.576 291.558V284.669H98.0865V281.521H106.932V293.727C105.72 294.449 104.258 295.009 102.544 295.405C100.831 295.802 99.1704 296 97.5621 296C93.6696 296 90.4879 294.787 88.0171 292.363C85.5462 289.938 84.3109 286.814 84.3109 282.99C84.3109 279.306 85.5288 276.217 87.9646 273.722C90.4004 271.228 93.4948 269.98 97.2474 269.98ZM141.287 270.61L154.923 290.964H154.993V270.61H158.349V295.37H154.084L140.308 275.016H140.238V295.37H136.882V270.61H141.287ZM197.424 270.61C199.825 270.61 201.719 271.204 203.106 272.393C204.493 273.582 205.186 275.296 205.186 277.534C205.186 279.703 204.499 281.399 203.123 282.623C201.748 283.847 199.849 284.459 197.424 284.459H191.9V295.37H188.544V270.61H197.424ZM196.445 281.521C198.194 281.521 199.493 281.201 200.344 280.559C201.195 279.918 201.62 278.91 201.62 277.534C201.62 274.876 199.895 273.547 196.445 273.547H191.9V281.521H196.445V281.521ZM244.471 269.98C248.154 269.98 251.225 271.204 253.684 273.652C256.143 276.1 257.373 279.213 257.373 282.99C257.373 285.391 256.825 287.589 255.729 289.582C254.634 291.576 253.089 293.144 251.097 294.286C249.104 295.429 246.895 296 244.471 296C242.07 296 239.879 295.434 237.898 294.304C235.917 293.173 234.367 291.611 233.248 289.617C232.129 287.624 231.57 285.415 231.57 282.99C231.57 279.306 232.776 276.217 235.188 273.722C237.601 271.228 240.695 269.98 244.471 269.98ZM235.136 282.99C235.136 285.788 236.01 288.131 237.758 290.02C239.506 291.908 241.744 292.852 244.471 292.852C247.151 292.852 249.377 291.92 251.149 290.055C252.921 288.189 253.806 285.834 253.806 282.99C253.806 280.169 252.932 277.82 251.184 275.943C249.436 274.066 247.187 273.128 244.436 273.128C241.779 273.128 239.565 274.06 237.793 275.926C236.021 277.791 235.136 280.146 235.136 282.99ZM293.126 269.98C296.343 269.98 298.72 270.925 300.259 272.813L297.531 275.296C297.112 274.643 296.517 274.119 295.748 273.722C294.979 273.326 294.093 273.128 293.091 273.128C291.646 273.128 290.486 273.484 289.612 274.195C288.738 274.906 288.301 275.821 288.301 276.94C288.301 278.805 289.536 280.111 292.007 280.857L295.119 281.871C296.867 282.431 298.201 283.212 299.122 284.214C300.043 285.217 300.503 286.592 300.503 288.341C300.503 290.626 299.693 292.474 298.073 293.884C296.453 295.295 294.396 296 291.902 296C288.336 296 285.702 294.858 284.001 292.573L286.763 290.195C287.299 291.034 288.033 291.687 288.965 292.153C289.898 292.619 290.912 292.852 292.007 292.852C293.382 292.852 294.548 292.456 295.504 291.663C296.459 290.871 296.937 289.892 296.937 288.726C296.937 287.863 296.646 287.14 296.063 286.557C295.48 285.975 294.431 285.45 292.916 284.984L290.714 284.249C288.499 283.503 286.949 282.553 286.063 281.399C285.178 280.245 284.735 278.759 284.735 276.94C284.735 275.005 285.516 273.361 287.077 272.009C288.639 270.656 290.655 269.98 293.126 269.98V269.98ZM345.802 270.61V273.757H337.83V295.37H334.474V273.757H326.502V270.61H345.802ZM411.505 270.61L419.372 289.355H419.512L427.308 270.61H432.308V295.37H428.952V275.016H428.882L420.525 295.37H418.288L409.932 275.016H409.862V295.37H406.505V270.61H411.505ZM463.027 270.61L469.775 281.486L476.732 270.61H480.823L471.453 284.809V295.37H468.097V284.809L458.726 270.61H463.027ZM548.135 269.98C551.351 269.98 553.729 270.925 555.267 272.813L552.54 275.296C552.12 274.643 551.526 274.119 550.757 273.722C549.988 273.326 549.102 273.128 548.1 273.128C546.655 273.128 545.495 273.484 544.621 274.195C543.747 274.906 543.31 275.821 543.31 276.94C543.31 278.805 544.545 280.111 547.016 280.857L550.128 281.871C551.876 282.431 553.21 283.212 554.131 284.214C555.052 285.217 555.512 286.592 555.512 288.341C555.512 290.626 554.702 292.474 553.082 293.884C551.462 295.295 549.405 296 546.911 296C543.345 296 540.711 294.858 539.009 292.573L541.771 290.195C542.307 291.034 543.042 291.687 543.974 292.153C544.906 292.619 545.92 292.852 547.016 292.852C548.391 292.852 549.556 292.456 550.512 291.663C551.468 290.871 551.946 289.892 551.946 288.726C551.946 287.863 551.654 287.14 551.072 286.557C550.489 285.975 549.44 285.45 547.925 284.984L545.722 284.249C543.508 283.503 541.958 282.553 541.072 281.399C540.186 280.245 539.743 278.759 539.743 276.94C539.743 275.005 540.524 273.361 542.086 272.009C543.648 270.656 545.664 269.98 548.135 269.98V269.98ZM587.664 270.61V295.37H584.308V270.61H587.664ZM634.361 270.61V273.757H626.39V295.37H623.033V273.757H615.061V270.61H634.361ZM677.737 270.61V273.757H665.115V281.136H676.863V284.284H665.115V292.223H678.366V295.37H661.759V270.61H677.737Z" fill="white"/>
</g>
<defs>
<filter id="filter0_d" x="0" y="0" width="688" height="308" filterUnits="userSpaceOnUse" color-interpolation-filters="sRGB">
<feFlood flood-opacity="0" result="BackgroundImageFix"/>
<feColorMatrix in="SourceAlpha" type="matrix" values="0 0 0 0 0 0 0 0 0 0 0 0 0 0 0 0 0 0 127 0"/>
<feOffset dx="1" dy="4"/>
<feGaussianBlur stdDeviation="4"/>
<feColorMatrix type="matrix" values="0 0 0 0 0 0 0 0 0 0 0 0 0 0 0 0 0 0 0.45 0"/>
<feBlend mode="darken" in2="BackgroundImageFix" result="effect1_dropShadow"/>
<feBlend mode="normal" in="SourceGraphic" in2="effect1_dropShadow" result="shape"/>
</filter>
</defs>
</svg>
