<?xml version="1.0" encoding="UTF-8"?>
<svg viewBox="0 0 336.94928 283.02417" xmlns="http://www.w3.org/2000/svg">
 <g transform="translate(534.19 -45.136)" fill-rule="evenodd">
  <path class="fil0" d="m-531.48 239c14.244-20.108 87.655-124.1 99.133-140.65s28.417-19.623 49.092-6.5538 15.001 9.1249 27.464 17.043l-40.598 60.45c-9.2638-3.5233-19.594-7.1747-30.806 10.764s-31.983 40.781-52.499 72.432-66.031 6.6223-51.787-13.485z" fill="#fff"/>
  <path class="fil1" d="m-527.43 239.92c11.615-16.727 90.66-130.48 99.133-140.65s21.182-17.793 43.212-5.0838c5.0488 2.9129 15.001 9.1249 27.464 17.043l-36.507 53.93c-9.2638-3.5233-23.64-5.1541-33.354 10.388-12.709 20.335-45.712 67.619-55.879 76.939-16.946 22.03-55.685 4.1608-44.07-12.566zm61.638 31.108c-5.4228-13.118 0.22749-30.154 21.75-32.131l-21.75 32.131z"/>
  <path class="fil0" transform="matrix(1.8375 0 0 1.8375 -534.18 -217.59)" d="m106.38 142.98 19.697 14.106-91.196 125.15-25.977 14.766 6.3053-28.907 91.17-125.12z" fill="#fff"/>
  <path class="fil1" transform="matrix(1.8375 0 0 1.8375 -534.18 -217.59)" d="m106.83 145.76 16.444 11.777-89.754 123.17-21.705 12.338 5.26-24.115 89.755-123.17z"/>
  <path class="fil0" d="m-337.6 119.92c41.578 26.664 93.977 60.929 103.18 66.59 9.1249 5.6154 26.973 8.1756 37.184 8.2166v89.516c-48.322 0.85023-211.62 4.8061-244.71 5.6662-37.13 0.96508-40.018-52.096 0-53.788s50.082-3.7212 62.792-7.1104 25.018-12.168 14.884-26.467-12.172-17.359-17.137-23.296l43.81-59.328h-3.7e-4z" fill="#fff"/>
  <path class="fil1" d="m-339.99 122.49c41.578 26.664 95.793 62.046 103.18 66.59 10.926 6.7236 29.353 9.2783 39.573 9.3191v82.357c-49.135 0.90241-217.6 5.1323-244.71 5.6584-30.37 0.58948-38.14-45.976 0-47.668s50.082-2.2188 62.792-5.608 31.106-13.759 18.64-31.35c-7.8009-11.008-13.675-19.612-18.639-25.549l39.167-53.75h-3.7e-4z"/>
 </g>
</svg>
