<?xml version="1.0" encoding="UTF-8" standalone="no"?>
<!DOCTYPE svg PUBLIC "-//W3C//DTD SVG 1.1//EN" "http://www.w3.org/Graphics/SVG/1.1/DTD/svg11.dtd">
<svg version="1.1" xmlns="http://www.w3.org/2000/svg" xmlns:xlink="http://www.w3.org/1999/xlink" preserveAspectRatio="xMidYMid meet" viewBox="0 0 640 640" width="640" height="640"><defs><path d="M304.32 83.97L304.86 84.02L305.38 84.08L305.9 84.17L306.4 84.27L306.91 84.38L307.4 84.52L307.89 84.66L308.36 84.82L308.83 85.01L309.29 85.2L310.17 85.64L310.6 85.88L311.01 86.13L311.4 86.4L311.8 86.68L312.18 86.96L312.89 87.58L313.22 87.91L313.54 88.25L313.85 88.6L314.14 88.96L314.42 89.33L314.67 89.7L314.92 90.09L315.15 90.49L315.35 90.89L315.54 91.3L315.72 91.73L315.87 92.16L316 92.59L316.12 93.03L316.22 93.47L316.29 93.94L316.35 94.39L316.37 94.85L316.38 95.33L316.38 123.28L461.34 123.28L461.56 123.29L461.8 123.29L462.48 123.32L462.69 123.35L462.92 123.37L463.59 123.46L463.81 123.49L464.03 123.53L464.25 123.57L464.47 123.61L465.33 123.82L465.54 123.88L465.76 123.95L465.96 124.01L466.39 124.16L466.59 124.23L467.2 124.48L467.6 124.66L467.79 124.75L467.99 124.85L468.56 125.16L468.75 125.27L468.93 125.38L469.12 125.5L469.3 125.61L469.65 125.86L545.58 179.58L546.26 180.1L546.48 180.28L546.69 180.46L546.89 180.65L547.29 181.04L547.49 181.24L547.66 181.43L547.84 181.64L548.02 181.85L548.19 182.06L548.65 182.71L548.93 183.16L549.2 183.61L549.43 184.09L549.65 184.56L549.74 184.81L549.83 185.04L549.99 185.54L550.06 185.78L550.12 186.04L550.18 186.29L550.24 186.54L550.29 186.79L550.36 187.3L550.38 187.56L550.41 187.83L550.42 188.09L550.42 188.61L550.4 189.13L550.37 189.38L550.35 189.65L550.31 189.91L550.27 190.15L550.22 190.41L550.16 190.67L550.1 190.92L550.03 191.17L549.96 191.42L549.87 191.67L549.79 191.9L549.7 192.15L549.59 192.39L549.49 192.63L549.37 192.87L549.26 193.1L549.14 193.33L549.01 193.56L548.72 194.01L548.58 194.23L548.42 194.45L548.27 194.67L547.94 195.08L547.76 195.3L547.58 195.49L547.39 195.7L547.2 195.89L547 196.08L546.8 196.27L546.59 196.46L546.17 196.81L545.71 197.16L545.48 197.32L545.24 197.48L469.3 247.66L469.13 247.77L468.78 247.99L468.42 248.2L468.24 248.29L468.05 248.38L467.87 248.49L467.68 248.57L467.49 248.66L466.73 248.99L466.54 249.06L466.14 249.21L465.95 249.27L465.34 249.45L464.94 249.56L464.72 249.61L464.32 249.69L463.89 249.77L463.69 249.8L463.26 249.87L463.06 249.9L462.63 249.94L462.42 249.95L462.2 249.97L461.78 249.99L316.38 249.99L316.38 283.89L537.28 283.89L537.82 283.9L538.36 283.92L538.89 283.97L539.42 284.04L539.93 284.12L540.44 284.22L540.94 284.33L541.44 284.47L541.92 284.62L542.4 284.79L542.86 284.96L543.77 285.37L544.21 285.6L544.62 285.84L545.04 286.09L545.44 286.35L545.83 286.64L546.2 286.93L546.57 287.22L546.91 287.54L547.26 287.87L547.58 288.21L547.89 288.55L548.17 288.91L548.45 289.28L548.71 289.66L548.95 290.05L549.17 290.44L549.39 290.85L549.58 291.27L549.75 291.68L550.04 292.54L550.15 292.98L550.24 293.44L550.32 293.89L550.37 294.35L550.41 294.82L550.42 295.28L550.42 399.2L550.41 399.67L550.37 400.14L550.32 400.6L550.24 401.05L550.15 401.49L550.04 401.94L549.9 402.38L549.75 402.8L549.58 403.22L549.39 403.63L549.17 404.04L548.95 404.44L548.71 404.83L548.45 405.21L548.17 405.57L547.89 405.93L547.58 406.28L547.26 406.62L546.91 406.95L546.57 407.25L546.2 407.56L545.83 407.85L545.44 408.13L545.04 408.4L544.62 408.65L544.21 408.89L543.77 409.12L543.31 409.32L542.86 409.52L542.4 409.7L541.92 409.87L541.44 410.01L540.94 410.14L540.44 410.27L539.93 410.36L539.42 410.44L538.89 410.51L538.36 410.56L537.82 410.59L537.28 410.6L316.38 410.6L316.38 597.36L316.37 597.84L316.35 598.3L316.29 598.76L316.22 599.21L316.12 599.66L316 600.1L315.87 600.54L315.72 600.96L315.54 601.38L315.35 601.8L315.15 602.21L314.92 602.6L314.67 602.99L314.42 603.37L313.85 604.09L313.54 604.44L313.22 604.78L312.89 605.11L312.18 605.73L311.8 606.01L311.4 606.29L311.01 606.56L310.6 606.82L310.17 607.05L309.73 607.28L309.29 607.48L308.83 607.68L308.36 607.87L307.89 608.03L307.4 608.17L306.91 608.31L306.4 608.43L305.9 608.52L305.38 608.61L304.86 608.68L304.32 608.72L303.79 608.75L303.25 608.76L264.35 608.76L263.8 608.75L263.27 608.72L262.75 608.68L262.22 608.61L261.7 608.52L261.19 608.43L260.69 608.31L260.2 608.17L259.72 608.03L259.24 607.87L258.78 607.68L258.31 607.48L257.87 607.28L257.43 607.05L257.01 606.82L256.59 606.56L256.19 606.29L255.81 606.01L255.43 605.73L255.06 605.42L254.71 605.11L254.38 604.78L254.06 604.44L253.75 604.09L253.45 603.73L253.18 603.37L252.92 602.99L252.68 602.6L252.45 602.21L252.24 601.8L252.05 601.38L251.88 600.96L251.73 600.54L251.6 600.1L251.48 599.66L251.39 599.21L251.31 598.76L251.25 598.3L251.22 597.84L251.21 597.36L251.21 410.6L106.04 410.6L105.83 410.59L105.61 410.59L105.4 410.58L105.18 410.56L104.97 410.55L104.54 410.5L104.11 410.44L103.91 410.41L103.7 410.38L103.48 410.34L103.28 410.3L103.07 410.26L102.87 410.22L102.46 410.11L102.26 410.05L102.05 410L101.86 409.94L101.65 409.88L101.45 409.8L101.25 409.74L101.06 409.67L100.86 409.59L100.67 409.52L100.1 409.27L99.72 409.08L99.54 408.99L99.35 408.9L98.81 408.59L98.64 408.48L98.47 408.38L98.29 408.26L22.36 358.08L22.12 357.92L21.89 357.76L21.44 357.41L21.01 357.06L20.81 356.87L20.6 356.68L20.4 356.49L20.21 356.3L20.02 356.09L19.84 355.9L19.67 355.69L19.5 355.47L19.33 355.27L19.02 354.84L18.6 354.16L18.47 353.93L18.35 353.7L18.23 353.47L18.01 352.99L17.91 352.75L17.81 352.51L17.65 352.02L17.5 351.52L17.44 351.27L17.38 351.02L17.34 350.76L17.23 349.99L17.21 349.73L17.19 349.47L17.18 349.21L17.18 348.95L17.19 348.68L17.22 348.17L17.24 347.91L17.31 347.4L17.36 347.14L17.42 346.89L17.48 346.64L17.54 346.39L17.61 346.14L17.86 345.4L17.95 345.17L18.06 344.92L18.17 344.68L18.29 344.46L18.41 344.22L18.54 343.99L18.67 343.76L18.81 343.54L18.95 343.32L19.09 343.1L19.26 342.88L19.42 342.67L19.58 342.45L19.94 342.04L20.12 341.84L20.31 341.64L20.5 341.44L20.7 341.26L20.91 341.07L21.11 340.89L21.33 340.7L21.55 340.53L21.78 340.36L22.01 340.19L97.96 286.46L98.49 286.09L98.67 285.98L98.86 285.87L99.05 285.76L99.24 285.65L99.43 285.55L99.62 285.46L99.81 285.35L100.01 285.26L100.2 285.17L100.41 285.09L100.61 284.99L100.81 284.91L101.02 284.84L101.23 284.76L101.43 284.68L101.64 284.62L101.84 284.55L102.49 284.37L102.91 284.26L103.14 284.22L103.35 284.17L103.57 284.13L103.79 284.09L104.01 284.06L104.46 283.99L104.67 283.97L105.35 283.91L105.8 283.89L251.21 283.89L251.21 249.99L30.32 249.99L29.78 249.98L29.24 249.96L28.72 249.91L28.2 249.84L27.67 249.76L27.16 249.66L26.66 249.55L26.16 249.41L25.69 249.26L25.21 249.09L24.74 248.92L24.29 248.72L23.84 248.51L23.41 248.28L22.98 248.04L22.56 247.8L22.16 247.53L21.77 247.25L21.03 246.66L20.69 246.34L20.02 245.68L19.72 245.33L19.43 244.97L19.15 244.6L18.89 244.22L18.66 243.84L18.43 243.44L18.22 243.04L18.03 242.62L17.86 242.2L17.7 241.77L17.57 241.34L17.46 240.9L17.36 240.44L17.29 239.99L17.23 239.53L17.19 239.06L17.18 238.6L17.18 134.68L17.19 134.21L17.23 133.74L17.29 133.28L17.36 132.83L17.46 132.39L17.57 131.94L17.7 131.51L17.86 131.08L18.03 130.66L18.22 130.25L18.43 129.85L18.66 129.45L18.89 129.05L19.15 128.68L19.43 128.31L19.72 127.95L20.02 127.6L20.35 127.26L20.69 126.94L21.03 126.63L21.4 126.32L21.77 126.03L22.16 125.75L22.56 125.48L22.98 125.24L23.41 124.99L23.84 124.76L24.29 124.56L24.74 124.36L25.21 124.18L25.69 124.01L26.16 123.87L26.66 123.74L27.16 123.62L27.67 123.52L28.2 123.44L28.72 123.38L29.24 123.32L29.78 123.29L30.32 123.28L251.21 123.28L251.21 95.33L251.22 94.85L251.25 94.39L251.31 93.94L251.39 93.47L251.48 93.03L251.6 92.59L251.73 92.16L251.88 91.73L252.05 91.3L252.24 90.89L252.45 90.49L252.68 90.09L252.92 89.7L253.18 89.33L253.45 88.96L253.75 88.6L254.06 88.25L254.38 87.91L254.71 87.58L255.06 87.27L255.43 86.96L255.81 86.68L256.19 86.4L256.59 86.13L257.01 85.88L257.43 85.64L258.31 85.2L258.78 85.01L259.24 84.82L259.72 84.66L260.2 84.52L260.69 84.38L261.19 84.27L261.7 84.17L262.22 84.08L262.75 84.02L263.27 83.97L263.8 83.94L264.35 83.93L303.25 83.93L303.79 83.94L304.32 83.97ZM277.48 135.15L277.44 135.62L277.38 136.07L277.31 136.53L277.22 136.97L277.1 137.42L276.97 137.85L276.81 138.28L276.65 138.7L276.46 139.11L276.24 139.52L276.02 139.92L275.78 140.31L275.52 140.68L275.25 141.05L274.95 141.41L274.64 141.76L274.32 142.1L273.99 142.42L273.64 142.73L273.27 143.04L272.89 143.33L272.5 143.61L272.11 143.88L271.69 144.12L271.26 144.37L270.39 144.8L269.92 145L269.46 145.18L268.98 145.35L268.5 145.49L268.01 145.63L267.5 145.74L267 145.84L266.48 145.92L265.95 145.99L265.43 146.04L264.88 146.07L264.35 146.08L43.47 146.08L43.47 227.2L264.35 227.2L264.88 227.22L265.42 227.25L265.95 227.29L266.48 227.35L267 227.43L267.5 227.53L268.01 227.65L268.5 227.78L268.98 227.94L269.46 228.1L269.92 228.28L270.39 228.48L270.83 228.69L271.26 228.91L271.69 229.15L272.11 229.41L272.5 229.67L272.89 229.95L273.27 230.24L273.63 230.54L273.99 230.86L274.32 231.19L274.64 231.53L274.95 231.86L275.23 232.22L275.52 232.59L275.77 232.98L276.02 233.37L276.24 233.76L276.45 234.16L276.65 234.58L276.81 235L276.97 235.42L277.1 235.86L277.22 236.3L277.31 236.75L277.38 237.2L277.44 237.67L277.47 238.13L277.48 238.6L277.48 295.28L277.47 295.75L277.44 296.21L277.38 296.68L277.31 297.13L277.22 297.58L277.1 298.03L276.97 298.46L276.81 298.88L276.65 299.3L276.24 300.12L276.02 300.51L275.77 300.91L275.52 301.29L275.23 301.66L274.95 302.02L274.64 302.36L274.32 302.7L273.99 303.02L273.63 303.34L273.27 303.64L272.89 303.93L272.5 304.21L272.11 304.47L271.69 304.73L271.26 304.97L270.83 305.19L270.39 305.4L269.92 305.6L269.46 305.78L268.98 305.95L268.5 306.1L268.01 306.22L267.5 306.35L267 306.45L266.48 306.53L265.95 306.59L265.42 306.63L264.88 306.67L264.35 306.68L110.93 306.68L51.53 348.72L110.7 387.81L264.35 387.81L264.88 387.82L265.42 387.84L265.95 387.9L266.48 387.96L267 388.04L267.5 388.14L268.01 388.26L268.5 388.39L268.98 388.54L269.46 388.71L269.92 388.88L270.39 389.08L270.83 389.29L271.26 389.52L271.69 389.76L272.11 390L272.5 390.27L272.89 390.55L273.27 390.85L273.63 391.15L273.99 391.46L274.32 391.78L274.64 392.12L274.95 392.47L275.23 392.83L275.52 393.2L276.02 393.96L276.24 394.37L276.45 394.77L276.65 395.18L276.81 395.6L276.97 396.03L277.1 396.46L277.22 396.91L277.31 397.36L277.38 397.81L277.44 398.27L277.47 398.74L277.48 399.2L277.48 585.98L290.11 585.98L290.11 399.2L290.12 398.74L290.16 398.27L290.22 397.81L290.29 397.36L290.38 396.91L290.49 396.46L290.63 396.03L290.79 395.6L290.95 395.18L291.14 394.77L291.36 394.37L291.58 393.96L291.82 393.58L292.08 393.2L292.36 392.83L292.65 392.47L292.95 392.12L293.27 391.78L293.96 391.15L294.7 390.55L295.09 390.27L295.49 390L295.91 389.76L296.32 389.52L296.76 389.29L297.22 389.08L297.67 388.88L298.13 388.71L298.62 388.54L299.09 388.39L299.59 388.26L300.09 388.14L300.6 388.04L301.11 387.96L301.65 387.9L302.17 387.84L302.71 387.82L303.25 387.81L524.15 387.81L524.15 306.68L303.25 306.68L302.71 306.67L302.17 306.63L301.65 306.59L301.13 306.53L300.6 306.45L300.09 306.35L299.09 306.1L298.62 305.95L298.14 305.78L297.67 305.6L297.22 305.4L296.76 305.19L296.32 304.97L295.91 304.73L295.49 304.47L295.09 304.21L294.7 303.93L294.33 303.64L293.96 303.34L293.62 303.02L293.27 302.7L292.95 302.36L292.65 302.02L292.36 301.66L292.08 301.29L291.82 300.91L291.58 300.51L291.36 300.12L291.14 299.71L290.95 299.3L290.79 298.88L290.63 298.46L290.5 298.03L290.38 297.58L290.29 297.13L290.22 296.68L290.16 296.21L290.12 295.75L290.11 295.28L290.11 238.6L290.12 238.13L290.16 237.67L290.22 237.2L290.29 236.75L290.38 236.3L290.5 235.86L290.63 235.42L290.79 235L290.95 234.58L291.14 234.16L291.36 233.76L291.58 233.37L291.82 232.98L292.08 232.59L292.36 232.22L292.65 231.86L292.95 231.53L293.27 231.19L293.62 230.86L293.96 230.54L294.33 230.24L294.7 229.95L295.09 229.67L295.49 229.41L295.91 229.15L296.32 228.91L296.76 228.69L297.22 228.48L297.67 228.28L298.14 228.1L298.62 227.94L299.09 227.78L299.59 227.65L300.09 227.53L300.6 227.43L301.13 227.35L301.65 227.29L302.17 227.25L302.71 227.22L303.25 227.2L456.92 227.2L516.07 188.11L456.67 146.08L303.25 146.08L302.71 146.07L302.17 146.04L301.65 145.99L301.13 145.92L300.6 145.84L300.09 145.74L299.59 145.63L299.09 145.49L298.62 145.35L298.14 145.18L297.67 145L297.22 144.8L296.76 144.59L296.32 144.37L295.49 143.88L295.09 143.61L294.7 143.33L294.33 143.04L293.96 142.73L293.27 142.1L292.95 141.76L292.65 141.41L292.36 141.05L292.08 140.68L291.82 140.31L291.58 139.92L291.36 139.52L291.14 139.11L290.95 138.7L290.79 138.28L290.63 137.85L290.5 137.42L290.38 136.97L290.29 136.53L290.22 136.07L290.16 135.62L290.12 135.15L290.11 134.68L290.11 106.72L277.48 106.72L277.48 135.15Z" id="a1eQCFOlpK"></path><path d="M306.33 146.08L257.1 146.08L257.1 124.19L306.33 124.19L306.33 146.08Z" id="a8k0TOzDN"></path><path d="M306.33 249.51L257.1 249.51L257.1 227.63L306.33 227.63L306.33 249.51Z" id="c1vL0Gd4T"></path><path d="M306.33 307.06L257.1 307.06L257.1 285.18L306.33 285.18L306.33 307.06Z" id="b1e8Q2C4kG"></path><path d="M302.34 409.45L253.12 409.45L253.12 387.57L302.34 387.57L302.34 409.45Z" id="f2A5WMfqRc"></path></defs><g><g><g><use xlink:href="#a1eQCFOlpK" opacity="1" fill="#f07f61" fill-opacity="1"></use><g><use xlink:href="#a1eQCFOlpK" opacity="1" fill-opacity="0" stroke="#000000" stroke-width="1" stroke-opacity="0"></use></g></g><g><use xlink:href="#a8k0TOzDN" opacity="1" fill="#f07f61" fill-opacity="1"></use><g><use xlink:href="#a8k0TOzDN" opacity="1" fill-opacity="0" stroke="#000000" stroke-width="1" stroke-opacity="0"></use></g></g><g><use xlink:href="#c1vL0Gd4T" opacity="1" fill="#f07f61" fill-opacity="1"></use><g><use xlink:href="#c1vL0Gd4T" opacity="1" fill-opacity="0" stroke="#000000" stroke-width="1" stroke-opacity="0"></use></g></g><g><use xlink:href="#b1e8Q2C4kG" opacity="1" fill="#f07f61" fill-opacity="1"></use><g><use xlink:href="#b1e8Q2C4kG" opacity="1" fill-opacity="0" stroke="#000000" stroke-width="1" stroke-opacity="0"></use></g></g><g><use xlink:href="#f2A5WMfqRc" opacity="1" fill="#f07f61" fill-opacity="1"></use><g><use xlink:href="#f2A5WMfqRc" opacity="1" fill-opacity="0" stroke="#000000" stroke-width="1" stroke-opacity="0"></use></g></g></g></g></svg>