<?xml version="1.0" encoding="UTF-8" standalone="no"?>
<!DOCTYPE svg PUBLIC "-//W3C//DTD SVG 1.1//EN" "http://www.w3.org/Graphics/SVG/1.1/DTD/svg11.dtd">
<svg version="1.1" xmlns="http://www.w3.org/2000/svg" xmlns:xlink="http://www.w3.org/1999/xlink" preserveAspectRatio="xMidYMid meet" viewBox="0 0 640 640" width="640" height="640"><defs><path d="M343.31 98.57L343.76 98.62L344.2 98.68L344.64 98.76L345.06 98.86L345.49 98.97L345.9 99.1L346.31 99.24L346.71 99.4L347.1 99.58L347.49 99.77L347.86 99.98L348.23 100.19L348.59 100.43L348.94 100.67L349.27 100.93L349.6 101.2L349.92 101.48L350.22 101.78L350.52 102.08L350.8 102.4L351.07 102.73L351.33 103.07L351.57 103.42L351.81 103.78L352.02 104.14L352.23 104.52L352.42 104.91L352.59 105.3L352.75 105.7L352.9 106.11L353.03 106.53L353.14 106.95L353.24 107.38L353.32 107.81L353.38 108.26L353.43 108.7L353.45 109.15L353.46 109.61L353.46 136.79L475.45 136.79L475.64 136.8L475.84 136.8L476.03 136.81L476.22 136.82L476.41 136.83L476.59 136.85L476.78 136.87L476.97 136.9L477.16 136.93L477.35 136.96L477.53 136.99L477.72 137.03L477.9 137.07L478.09 137.11L478.27 137.16L478.45 137.21L478.63 137.26L478.81 137.31L478.99 137.37L479.17 137.44L479.34 137.5L479.52 137.57L479.7 137.64L479.87 137.71L480.04 137.79L480.21 137.87L480.38 137.95L480.55 138.04L480.72 138.13L480.88 138.22L481.05 138.31L481.21 138.41L481.37 138.51L481.53 138.61L481.69 138.72L481.84 138.83L482 138.94L482.15 139.05L482.3 139.17L482.45 139.29L546.35 191.52L546.54 191.69L546.73 191.86L546.92 192.03L547.1 192.2L547.28 192.38L547.45 192.56L547.62 192.75L547.79 192.94L547.95 193.13L548.1 193.32L548.25 193.52L548.4 193.73L548.54 193.93L548.67 194.14L548.8 194.35L548.93 194.56L549.05 194.78L549.17 195L549.28 195.22L549.39 195.44L549.49 195.67L549.59 195.9L549.68 196.13L549.77 196.36L549.85 196.6L549.92 196.83L549.99 197.07L550.06 197.31L550.12 197.55L550.17 197.8L550.22 198.04L550.27 198.29L550.31 198.53L550.34 198.78L550.37 199.03L550.39 199.28L550.41 199.54L550.42 199.79L550.42 200.04L550.42 200.3L550.41 200.55L550.4 200.8L550.38 201.05L550.36 201.31L550.33 201.56L550.29 201.8L550.25 202.05L550.2 202.3L550.15 202.54L550.09 202.79L550.03 203.03L549.96 203.27L549.89 203.5L549.81 203.74L549.72 203.97L549.64 204.21L549.54 204.44L549.44 204.66L549.34 204.89L549.23 205.11L549.11 205.33L548.99 205.55L548.87 205.76L548.74 205.98L548.61 206.19L548.47 206.39L548.33 206.59L548.18 206.8L548.03 206.99L547.87 207.19L547.71 207.38L547.54 207.56L547.37 207.75L547.2 207.93L547.02 208.1L546.84 208.27L546.65 208.44L546.46 208.61L546.26 208.77L546.06 208.92L482.15 257.71L482.01 257.81L481.86 257.92L481.71 258.03L481.56 258.13L481.41 258.23L481.26 258.32L481.1 258.41L480.95 258.51L480.79 258.59L480.63 258.68L480.47 258.76L480.31 258.84L480.15 258.92L479.99 259L479.83 259.07L479.66 259.14L479.49 259.21L479.33 259.27L479.16 259.33L478.99 259.39L478.82 259.45L478.65 259.5L478.48 259.55L478.3 259.6L478.13 259.64L477.96 259.68L477.78 259.72L477.6 259.76L477.43 259.79L477.25 259.82L477.07 259.85L476.9 259.88L476.72 259.9L476.54 259.92L476.36 259.93L476.18 259.95L476 259.96L475.82 259.97L475.63 259.97L475.45 259.97L353.46 259.97L353.46 292.93L539.36 292.93L539.82 292.94L540.27 292.96L540.72 293.01L541.16 293.07L541.59 293.15L542.02 293.25L542.44 293.36L542.86 293.49L543.27 293.64L543.67 293.8L544.06 293.97L544.44 294.17L544.82 294.37L545.19 294.59L545.54 294.82L545.89 295.07L546.23 295.32L546.56 295.6L546.87 295.88L547.18 296.17L547.47 296.48L547.76 296.8L548.03 297.13L548.29 297.46L548.53 297.81L548.76 298.17L548.98 298.54L549.18 298.92L549.37 299.3L549.55 299.69L549.71 300.1L549.86 300.5L549.98 300.92L550.1 301.34L550.19 301.77L550.27 302.21L550.34 302.65L550.38 303.1L550.41 303.55L550.42 304L550.42 405.03L550.41 405.49L550.38 405.94L550.34 406.39L550.27 406.83L550.19 407.26L550.1 407.69L549.98 408.12L549.86 408.53L549.71 408.94L549.55 409.34L549.37 409.74L549.18 410.12L548.98 410.5L548.76 410.87L548.53 411.22L548.29 411.57L548.03 411.91L547.76 412.24L547.47 412.56L547.18 412.86L546.87 413.16L546.56 413.44L546.23 413.71L545.89 413.97L545.54 414.22L545.19 414.45L544.82 414.67L544.44 414.87L544.06 415.06L543.67 415.24L543.27 415.4L542.86 415.54L542.44 415.67L542.02 415.79L541.59 415.88L541.16 415.96L540.72 416.03L540.27 416.07L539.82 416.1L539.36 416.11L353.46 416.11L353.46 597.68L353.45 598.14L353.43 598.59L353.38 599.04L353.32 599.48L353.24 599.91L353.14 600.34L353.03 600.77L352.9 601.18L352.75 601.59L352.59 601.99L352.42 602.39L352.23 602.77L352.02 603.15L351.81 603.52L351.57 603.87L351.33 604.22L351.07 604.56L350.8 604.89L350.52 605.21L350.22 605.51L349.92 605.81L349.6 606.09L349.27 606.36L348.94 606.62L348.59 606.87L348.23 607.1L347.86 607.32L347.49 607.52L347.1 607.71L346.71 607.89L346.31 608.05L345.9 608.19L345.49 608.32L345.06 608.44L344.64 608.53L344.2 608.61L343.76 608.68L343.31 608.72L342.86 608.75L342.41 608.76L309.67 608.76L309.21 608.75L308.76 608.72L308.32 608.68L307.88 608.61L307.44 608.53L307.01 608.44L306.59 608.32L306.18 608.19L305.77 608.05L305.37 607.89L304.98 607.71L304.59 607.52L304.22 607.32L303.85 607.1L303.49 606.87L303.14 606.62L302.8 606.36L302.48 606.09L302.16 605.81L301.85 605.51L301.56 605.21L301.28 604.89L301.01 604.56L300.75 604.22L300.5 603.87L300.27 603.52L300.05 603.15L299.85 602.77L299.66 602.39L299.48 601.99L299.32 601.59L299.18 601.18L299.05 600.77L298.94 600.34L298.84 599.91L298.76 599.48L298.7 599.04L298.65 598.59L298.62 598.14L298.61 597.68L298.61 416.11L176.62 416.11L176.44 416.11L176.26 416.1L176.08 416.1L175.9 416.09L175.72 416.07L175.54 416.06L175.36 416.04L175.18 416.02L175 415.99L174.82 415.96L174.65 415.93L174.47 415.9L174.29 415.86L174.12 415.82L173.94 415.78L173.77 415.74L173.6 415.69L173.43 415.64L173.26 415.58L173.08 415.53L172.92 415.47L172.75 415.41L172.58 415.34L172.41 415.28L172.25 415.21L172.08 415.13L171.92 415.06L171.76 414.98L171.6 414.9L171.44 414.82L171.28 414.73L171.12 414.64L170.97 414.55L170.81 414.46L170.66 414.36L170.51 414.26L170.36 414.16L170.21 414.05L170.07 413.95L169.92 413.84L106.02 365.05L105.82 364.9L105.62 364.74L105.43 364.57L105.24 364.4L105.06 364.23L104.88 364.06L104.71 363.88L104.54 363.69L104.37 363.51L104.21 363.32L104.05 363.12L103.9 362.93L103.75 362.73L103.61 362.52L103.47 362.32L103.34 362.11L103.21 361.9L103.09 361.68L102.97 361.46L102.85 361.24L102.74 361.02L102.64 360.8L102.54 360.57L102.45 360.34L102.36 360.11L102.27 359.87L102.19 359.64L102.12 359.4L102.05 359.16L101.99 358.92L101.93 358.68L101.88 358.43L101.83 358.19L101.79 357.94L101.76 357.69L101.73 357.44L101.7 357.19L101.68 356.94L101.67 356.68L101.66 356.43L101.66 356.18L101.67 355.92L101.68 355.67L101.69 355.42L101.71 355.17L101.74 354.92L101.77 354.67L101.81 354.42L101.86 354.18L101.91 353.93L101.96 353.69L102.02 353.45L102.09 353.21L102.16 352.97L102.23 352.73L102.31 352.5L102.4 352.26L102.49 352.03L102.59 351.81L102.69 351.58L102.8 351.36L102.91 351.13L103.03 350.92L103.15 350.7L103.27 350.49L103.41 350.28L103.54 350.07L103.68 349.86L103.83 349.66L103.98 349.46L104.13 349.27L104.29 349.07L104.45 348.88L104.62 348.7L104.8 348.52L104.97 348.34L105.15 348.16L105.34 347.99L105.53 347.83L105.72 347.66L169.64 295.43L169.79 295.31L169.94 295.19L170.09 295.07L170.24 294.96L170.4 294.85L170.56 294.75L170.72 294.64L170.88 294.54L171.04 294.45L171.2 294.35L171.37 294.26L171.53 294.17L171.7 294.09L171.87 294L172.04 293.92L172.22 293.85L172.39 293.77L172.56 293.7L172.74 293.64L172.91 293.57L173.09 293.51L173.27 293.45L173.45 293.39L173.63 293.34L173.81 293.29L174 293.25L174.18 293.2L174.36 293.16L174.55 293.12L174.73 293.09L174.92 293.06L175.11 293.03L175.29 293.01L175.48 292.99L175.67 292.97L175.86 292.95L176.05 292.94L176.24 292.93L176.43 292.93L176.62 292.93L298.61 292.93L298.61 259.97L112.72 259.97L112.26 259.96L111.81 259.94L111.37 259.89L110.93 259.83L110.49 259.75L110.06 259.65L109.64 259.54L109.22 259.41L108.82 259.26L108.42 259.1L108.02 258.93L107.64 258.74L107.26 258.53L106.9 258.31L106.54 258.08L106.19 257.84L105.85 257.58L105.52 257.31L105.21 257.02L104.9 256.73L104.61 256.42L104.33 256.1L104.05 255.78L103.8 255.44L103.55 255.09L103.32 254.73L103.1 254.36L102.9 253.99L102.71 253.6L102.53 253.21L102.37 252.81L102.23 252.4L102.1 251.98L101.99 251.56L101.89 251.13L101.81 250.69L101.75 250.25L101.7 249.8L101.67 249.35L101.66 248.9L101.66 147.87L101.67 147.41L101.7 146.96L101.75 146.51L101.81 146.07L101.89 145.64L101.99 145.21L102.1 144.79L102.23 144.37L102.37 143.96L102.53 143.56L102.71 143.17L102.9 142.78L103.1 142.4L103.32 142.04L103.55 141.68L103.8 141.33L104.05 140.99L104.33 140.66L104.61 140.34L104.9 140.04L105.21 139.74L105.52 139.46L105.85 139.19L106.19 138.93L106.54 138.69L106.9 138.45L107.26 138.23L107.64 138.03L108.02 137.84L108.42 137.66L108.82 137.5L109.22 137.36L109.64 137.23L110.06 137.12L110.49 137.02L110.93 136.94L111.37 136.88L111.81 136.83L112.26 136.8L112.72 136.79L298.61 136.79L298.61 109.61L298.62 109.15L298.65 108.7L298.7 108.26L298.76 107.81L298.84 107.38L298.94 106.95L299.05 106.53L299.18 106.11L299.32 105.7L299.48 105.3L299.66 104.91L299.85 104.52L300.05 104.14L300.27 103.78L300.5 103.42L300.75 103.07L301.01 102.73L301.28 102.4L301.56 102.08L301.85 101.78L302.16 101.48L302.48 101.2L302.8 100.93L303.14 100.67L303.49 100.43L303.85 100.19L304.22 99.98L304.59 99.77L304.98 99.58L305.37 99.4L305.77 99.24L306.18 99.1L306.59 98.97L307.01 98.86L307.44 98.76L307.88 98.68L308.32 98.62L308.76 98.57L309.21 98.54L309.67 98.53L342.41 98.53L342.86 98.54L343.31 98.57ZM320.72 147.87L320.72 148.33L320.69 148.78L320.64 149.22L320.58 149.67L320.5 150.1L320.4 150.53L320.29 150.95L320.16 151.37L320.02 151.78L319.86 152.18L319.68 152.57L319.49 152.96L319.29 153.34L319.07 153.7L318.84 154.06L318.59 154.41L318.33 154.75L318.06 155.08L317.78 155.39L317.49 155.7L317.18 156L316.86 156.28L316.53 156.55L316.2 156.81L315.85 157.05L315.49 157.29L315.12 157.5L314.75 157.71L314.36 157.9L313.97 158.08L313.57 158.24L313.16 158.38L312.75 158.51L312.32 158.62L311.9 158.72L311.46 158.8L311.02 158.86L310.58 158.91L310.12 158.94L309.67 158.95L123.78 158.95L123.78 237.82L309.67 237.82L310.12 237.83L310.57 237.86L311.02 237.9L311.46 237.96L311.9 238.04L312.32 238.14L312.75 238.25L313.16 238.38L313.57 238.53L313.97 238.69L314.36 238.87L314.75 239.06L315.12 239.26L315.49 239.48L315.85 239.71L316.2 239.96L316.53 240.22L316.86 240.49L317.18 240.77L317.48 241.06L317.78 241.37L318.06 241.69L318.33 242.02L318.59 242.35L318.83 242.7L319.07 243.06L319.28 243.43L319.49 243.81L319.68 244.19L319.85 244.58L320.02 244.99L320.16 245.4L320.29 245.81L320.4 246.23L320.5 246.66L320.58 247.1L320.64 247.54L320.69 247.99L320.71 248.44L320.72 248.9L320.72 304L320.71 304.46L320.69 304.91L320.64 305.36L320.58 305.8L320.5 306.24L320.4 306.67L320.29 307.09L320.16 307.5L320.02 307.91L319.85 308.31L319.68 308.71L319.49 309.09L319.28 309.47L319.07 309.84L318.83 310.2L318.59 310.55L318.33 310.88L318.06 311.21L317.78 311.53L317.48 311.84L317.18 312.13L316.86 312.41L316.53 312.68L316.2 312.94L315.85 313.19L315.49 313.42L315.12 313.64L314.75 313.84L314.36 314.03L313.97 314.21L313.57 314.37L313.16 314.52L312.75 314.64L312.32 314.76L311.9 314.86L311.46 314.94L311.02 315L310.57 315.04L310.12 315.07L309.67 315.08L180.56 315.08L130.57 355.95L180.36 393.96L309.67 393.96L310.12 393.97L310.57 393.99L311.02 394.04L311.46 394.1L311.9 394.18L312.32 394.28L312.75 394.39L313.16 394.52L313.57 394.67L313.97 394.83L314.36 395L314.75 395.19L315.12 395.4L315.49 395.62L315.85 395.85L316.2 396.09L316.53 396.35L316.86 396.62L317.18 396.91L317.48 397.2L317.78 397.51L318.06 397.82L318.33 398.15L318.59 398.49L318.83 398.84L319.07 399.2L319.28 399.57L319.49 399.94L319.68 400.33L319.85 400.72L320.02 401.12L320.16 401.53L320.29 401.95L320.4 402.37L320.5 402.8L320.58 403.24L320.64 403.68L320.69 404.13L320.71 404.58L320.72 405.03L320.72 586.61L331.35 586.61L331.35 405.03L331.36 404.58L331.39 404.13L331.44 403.68L331.5 403.24L331.58 402.8L331.67 402.37L331.79 401.95L331.92 401.53L332.06 401.12L332.22 400.72L332.4 400.33L332.59 399.94L332.79 399.57L333.01 399.2L333.24 398.84L333.49 398.49L333.74 398.15L334.01 397.82L334.3 397.51L334.59 397.2L334.9 396.91L335.21 396.62L335.54 396.35L335.88 396.09L336.23 395.85L336.58 395.62L336.95 395.4L337.33 395.19L337.71 395L338.1 394.83L338.51 394.67L338.91 394.52L339.33 394.39L339.75 394.28L340.18 394.18L340.61 394.1L341.06 394.04L341.5 393.99L341.95 393.97L342.41 393.96L528.31 393.96L528.31 315.08L342.41 315.08L341.95 315.07L341.5 315.04L341.06 315L340.62 314.94L340.18 314.86L339.75 314.76L339.33 314.64L338.91 314.52L338.51 314.37L338.11 314.21L337.71 314.03L337.33 313.84L336.95 313.64L336.58 313.42L336.23 313.19L335.88 312.94L335.54 312.68L335.21 312.41L334.9 312.13L334.59 311.84L334.3 311.53L334.01 311.21L333.74 310.88L333.49 310.55L333.24 310.2L333.01 309.84L332.79 309.47L332.59 309.09L332.4 308.71L332.22 308.31L332.06 307.91L331.92 307.5L331.79 307.09L331.68 306.67L331.58 306.24L331.5 305.8L331.44 305.36L331.39 304.91L331.36 304.46L331.35 304L331.35 248.9L331.36 248.44L331.39 247.99L331.44 247.54L331.5 247.1L331.58 246.66L331.68 246.23L331.79 245.81L331.92 245.4L332.06 244.99L332.22 244.58L332.4 244.19L332.59 243.81L332.79 243.43L333.01 243.06L333.24 242.7L333.49 242.35L333.74 242.02L334.01 241.69L334.3 241.37L334.59 241.06L334.9 240.77L335.21 240.49L335.54 240.22L335.88 239.96L336.23 239.71L336.58 239.48L336.95 239.26L337.33 239.06L337.71 238.87L338.11 238.69L338.51 238.53L338.91 238.38L339.33 238.25L339.75 238.14L340.18 238.04L340.62 237.96L341.06 237.9L341.5 237.86L341.95 237.83L342.41 237.82L471.73 237.82L521.51 199.81L471.52 158.95L342.41 158.95L341.95 158.94L341.5 158.91L341.06 158.86L340.62 158.8L340.18 158.72L339.75 158.62L339.33 158.51L338.91 158.38L338.51 158.24L338.11 158.08L337.71 157.9L337.33 157.71L336.95 157.5L336.58 157.29L336.23 157.05L335.88 156.81L335.54 156.55L335.21 156.28L334.9 156L334.59 155.7L334.3 155.39L334.01 155.08L333.74 154.75L333.49 154.41L333.24 154.06L333.01 153.7L332.79 153.34L332.59 152.96L332.4 152.57L332.22 152.18L332.06 151.78L331.92 151.37L331.79 150.95L331.68 150.53L331.58 150.1L331.5 149.67L331.44 149.22L331.39 148.78L331.36 148.33L331.35 147.87L331.35 120.69L320.72 120.69L320.72 147.87Z" id="dD0e4U172"></path><path d="M299.36 125.47L320.2 125.47L320.2 584.57L299.36 584.57L299.36 125.47Z" id="d5pOQF7Rkb"></path><path d="M331.36 130.47L352.2 130.47L352.2 589.57L331.36 589.57L331.36 130.47Z" id="dZlRrDqKN"></path><path d="M297.08 449.43L356.46 449.43L356.46 615.05L297.08 615.05L297.08 449.43Z" id="d7H6tcOpG"></path><path d="M349.14 446.72C351.49 446.72 353.4 448.63 353.4 450.98C353.4 453.77 353.4 457.87 353.4 460.65C353.4 463.01 351.49 464.92 349.14 464.92C339.07 464.92 313.13 464.92 303.07 464.92C300.71 464.92 298.8 463.01 298.8 460.65C298.8 457.87 298.8 453.77 298.8 450.98C298.8 448.63 300.71 446.72 303.07 446.72C313.13 446.72 339.07 446.72 349.14 446.72Z" id="e6vauxHZiY"></path></defs><g><g><g><use xlink:href="#dD0e4U172" opacity="1" fill="#f07f61" fill-opacity="1"></use><g><use xlink:href="#dD0e4U172" opacity="1" fill-opacity="0" stroke="#f07f61" stroke-width="1" stroke-opacity="1"></use></g></g><g><use xlink:href="#d5pOQF7Rkb" opacity="1" fill="#f07f61" fill-opacity="1"></use><g><use xlink:href="#d5pOQF7Rkb" opacity="1" fill-opacity="0" stroke="#f07f61" stroke-width="1" stroke-opacity="1"></use></g></g><g><use xlink:href="#dZlRrDqKN" opacity="1" fill="#f07f61" fill-opacity="1"></use><g><use xlink:href="#dZlRrDqKN" opacity="1" fill-opacity="0" stroke="#f07f61" stroke-width="1" stroke-opacity="1"></use></g></g><g><use xlink:href="#d7H6tcOpG" opacity="1" fill="#ffffff" fill-opacity="1"></use></g><g><use xlink:href="#e6vauxHZiY" opacity="1" fill="#f07f61" fill-opacity="1"></use><g><use xlink:href="#e6vauxHZiY" opacity="1" fill-opacity="0" stroke="#f07f61" stroke-width="1" stroke-opacity="1"></use></g></g></g></g></svg>