<svg width="672" height="292" viewBox="0 0 672 292" fill="none" xmlns="http://www.w3.org/2000/svg">
<path d="M381.362 27.483L366.78 17.6372C366.179 17.2302 365.468 17.013 364.741 17.013H339.224V3.64573C339.224 1.63095 337.593 0 335.579 0H321.968C319.955 0 318.323 1.63232 318.323 3.64573V17.0143H291.836C289.823 17.0143 288.192 18.6467 288.192 20.6601V40.3503C288.192 42.3637 289.823 43.996 291.836 43.996H318.325V54.3281H292.807C292.079 54.3281 291.371 54.5453 290.768 54.9524L276.187 64.7968C275.182 65.4757 274.581 66.6067 274.581 67.8197C274.581 69.0299 275.182 70.1636 276.187 70.8412L290.767 80.687C291.371 81.0927 292.079 81.3112 292.807 81.3112H318.325V129.077C318.325 131.091 319.957 132.723 321.969 132.723H335.58C337.595 132.723 339.225 131.091 339.225 129.077V81.3112H365.712C367.726 81.3112 369.358 79.6789 369.358 77.6641V57.9739C369.358 55.9604 367.726 54.3281 365.712 54.3281H339.224V43.996H364.741C365.468 43.996 366.179 43.7789 366.78 43.3718L381.362 33.526C382.366 32.8485 382.968 31.7147 382.968 30.5045C382.968 29.2943 382.366 28.1605 381.362 27.483ZM325.614 7.29147H331.933V17.0143H325.614V7.29147ZM331.933 125.43H325.614V81.3112H331.933V125.43ZM362.067 74.0184H335.579H321.968H293.923L284.742 67.8183L293.923 61.6196H321.969H335.58H362.067V74.0184ZM331.933 54.3281H325.614V43.996H331.933V54.3281ZM363.626 36.7046H335.579H321.968H295.481V24.3072H321.968H335.579H363.626L372.806 30.5045L363.626 36.7046Z" fill="white"/>
<path d="M76.5936 141.366H110.132C114.128 141.366 117.96 141.885 121.629 142.923C125.298 143.96 128.717 145.421 131.887 147.304C135.056 149.187 137.937 151.444 140.53 154.077C143.123 156.709 145.342 159.639 147.186 162.867C149.03 166.095 150.452 169.573 151.451 173.301C152.449 177.028 152.949 180.91 152.949 184.945C152.949 188.98 152.45 192.861 151.451 196.589C150.452 200.316 149.03 203.804 147.186 207.051C145.342 210.298 143.124 213.257 140.53 215.928C137.937 218.599 135.056 220.885 131.887 222.787C128.717 224.689 125.298 226.159 121.629 227.197C117.96 228.234 114.128 228.753 110.133 228.753H76.5938V212.959H83.5664V157.219H76.5938V141.368L76.5936 141.366ZM102.698 157.221V212.961H110.017C113.129 212.961 116.068 212.231 118.834 210.77C121.6 209.31 124.001 207.322 126.037 204.805C128.073 202.288 129.687 199.329 130.878 195.928C132.069 192.527 132.664 188.867 132.664 184.947C132.664 181.066 132.069 177.434 130.878 174.052C129.687 170.671 128.073 167.731 126.037 165.233C124.001 162.736 121.6 160.776 118.834 159.354C116.068 157.932 113.129 157.221 110.017 157.221H102.699L102.698 157.221ZM176.576 202.642L176.749 204.429C177.172 206.158 177.892 207.676 178.91 208.983C179.928 210.289 181.129 211.384 182.512 212.268C183.895 213.152 185.431 213.815 187.122 214.257C188.812 214.699 190.522 214.92 192.251 214.92C193.979 214.92 195.622 214.814 197.178 214.603C198.734 214.391 200.241 214.103 201.701 213.738C203.161 213.373 204.583 212.95 205.966 212.47C207.349 211.99 208.751 211.48 210.173 210.942L216.511 222.759C214.322 224.104 212.314 225.248 210.489 226.189C208.665 227.131 206.83 227.909 204.986 228.524C203.142 229.138 201.183 229.59 199.108 229.878C197.034 230.166 194.613 230.31 191.847 230.31C186.66 230.31 182.05 229.455 178.016 227.745C173.983 226.035 170.592 223.72 167.846 220.799C165.099 217.879 163.005 214.458 161.564 210.539C160.123 206.619 159.403 202.469 159.403 198.088C159.403 193.707 160.162 189.595 161.679 185.753C163.196 181.91 165.338 178.558 168.105 175.694C170.871 172.831 174.175 170.573 178.017 168.921C181.858 167.269 186.122 166.443 190.81 166.443C195.497 166.442 199.656 167.221 203.286 168.777C206.917 170.334 209.98 172.486 212.478 175.233C214.975 177.981 216.896 181.209 218.24 184.917C219.585 188.625 220.315 192.612 220.43 196.878C220.546 197.839 220.613 198.79 220.632 199.731C220.651 200.673 220.622 201.643 220.546 202.642H176.576L176.576 202.642ZM190.349 180.853C188.198 180.853 186.363 181.113 184.846 181.632C183.328 182.15 182.051 182.861 181.013 183.764C179.976 184.667 179.15 185.695 178.536 186.848C177.921 188.001 177.441 189.211 177.095 190.48H202.047C201.778 189.173 201.394 187.943 200.895 186.79C200.395 185.638 199.704 184.619 198.82 183.735C197.936 182.852 196.813 182.15 195.449 181.631C194.085 181.113 192.385 180.853 190.349 180.853L190.349 180.853ZM244.921 202.642L245.094 204.429C245.517 206.158 246.237 207.676 247.255 208.983C248.273 210.289 249.474 211.384 250.857 212.268C252.24 213.152 253.777 213.815 255.467 214.257C257.158 214.699 258.867 214.92 260.596 214.92C262.325 214.92 263.967 214.814 265.523 214.603C267.079 214.391 268.587 214.103 270.047 213.738C271.507 213.373 272.928 212.95 274.311 212.47C275.694 211.99 277.096 211.48 278.518 210.942L284.857 222.759C282.667 224.104 280.66 225.248 278.835 226.189C277.01 227.131 275.175 227.909 273.331 228.524C271.487 229.138 269.528 229.59 267.453 229.878C265.379 230.166 262.959 230.31 260.192 230.31C255.006 230.31 250.396 229.455 246.362 227.745C242.328 226.035 238.938 223.72 236.191 220.799C233.444 217.879 231.35 214.458 229.909 210.539C228.468 206.619 227.748 202.469 227.748 198.088C227.749 193.707 228.507 189.595 230.025 185.753C231.542 181.91 233.684 178.558 236.45 175.694C239.217 172.831 242.521 170.573 246.362 168.921C250.203 167.269 254.468 166.443 259.155 166.443C263.843 166.442 268.002 167.221 271.632 168.777C275.262 170.334 278.326 172.486 280.823 175.233C283.321 177.981 285.242 181.209 286.586 184.917C287.93 188.625 288.66 192.612 288.776 196.878C288.891 197.839 288.958 198.79 288.977 199.731C288.997 200.673 288.968 201.643 288.891 202.642H244.922L244.921 202.642ZM258.694 180.853C256.543 180.853 254.709 181.113 253.191 181.632C251.674 182.15 250.396 182.861 249.359 183.764C248.322 184.667 247.496 185.695 246.881 186.848C246.266 188.001 245.786 189.211 245.44 190.48H270.393C270.124 189.173 269.739 187.943 269.24 186.79C268.741 185.638 268.049 184.619 267.165 183.735C266.282 182.852 265.158 182.15 263.794 181.631C262.43 181.113 260.73 180.853 258.694 180.853L258.694 180.853ZM341.677 165.98C341.485 164.635 341.014 163.367 340.265 162.176C339.516 160.984 338.556 159.957 337.384 159.092C336.212 158.227 334.887 157.545 333.408 157.046C331.929 156.546 330.382 156.296 328.769 156.296C327.309 156.296 325.945 156.45 324.677 156.757C323.409 157.065 322.305 157.536 321.364 158.17C320.423 158.804 319.673 159.62 319.116 160.619C318.559 161.619 318.281 162.81 318.281 164.193C318.281 165.923 318.655 167.296 319.404 168.315C320.154 169.333 321.114 170.169 322.286 170.822C323.458 171.475 324.754 171.994 326.176 172.378C327.597 172.763 328.98 173.185 330.325 173.647L346.172 178.95C348.362 179.718 350.417 180.775 352.338 182.12C354.259 183.465 355.92 185.098 357.323 187.019C358.725 188.941 359.829 191.15 360.636 193.648C361.443 196.146 361.846 198.951 361.846 202.064C361.846 206.291 361.068 210.153 359.512 213.65C357.957 217.147 355.776 220.144 352.972 222.642C350.167 225.14 346.806 227.08 342.887 228.464C338.968 229.847 334.627 230.539 329.864 230.539C326.521 230.539 323.361 230.164 320.384 229.415C317.407 228.666 314.689 227.58 312.23 226.158C309.771 224.736 307.62 223.036 305.775 221.057C303.931 219.078 302.49 216.839 301.453 214.341H295.518V196.991H316.379V200.565C316.379 202.294 316.657 203.889 317.214 205.349C317.771 206.809 318.607 208.077 319.721 209.153C320.835 210.229 322.238 211.065 323.928 211.661C325.618 212.256 327.597 212.554 329.864 212.554C333.321 212.554 335.953 211.757 337.759 210.162C339.564 208.567 340.467 206.348 340.467 203.505C340.467 202.044 340.15 200.824 339.516 199.844C338.882 198.864 338.066 198.038 337.067 197.366C336.068 196.693 334.954 196.126 333.725 195.665C332.495 195.204 331.285 194.781 330.094 194.397L316.898 190.132C314.401 189.363 311.99 188.287 309.666 186.904C307.341 185.52 305.286 183.791 303.5 181.716C301.713 179.641 300.292 177.21 299.235 174.424C298.179 171.638 297.65 168.458 297.651 164.884C297.651 160.734 298.419 157.035 299.956 153.788C301.492 150.541 303.644 147.803 306.41 145.574C309.176 143.345 312.461 141.654 316.264 140.501C320.067 139.349 324.236 138.772 328.769 138.772C332.342 138.772 335.646 139.185 338.681 140.012C341.716 140.838 344.434 141.943 346.835 143.326C349.236 144.709 351.272 146.294 352.944 148.081C354.615 149.868 355.892 151.722 356.776 153.644H362.538V171.052H341.677V165.979V165.98ZM369.511 169.038H396.307V212.961H404.606V228.755H369.511V212.961H378.5V184.832H369.511V169.038V169.038ZM377.578 149.784C377.578 148.362 377.838 147.026 378.356 145.777C378.875 144.528 379.595 143.443 380.517 142.521C381.439 141.598 382.525 140.868 383.773 140.33C385.022 139.792 386.376 139.523 387.836 139.523C389.219 139.523 390.525 139.792 391.754 140.33C392.984 140.868 394.06 141.598 394.982 142.521C395.904 143.443 396.634 144.528 397.171 145.777C397.709 147.026 397.978 148.362 397.978 149.784C397.978 151.205 397.709 152.541 397.171 153.79C396.633 155.039 395.904 156.124 394.982 157.046C394.06 157.969 392.984 158.699 391.754 159.237C390.525 159.775 389.219 160.044 387.836 160.044C386.376 160.044 385.022 159.775 383.773 159.237C382.525 158.699 381.439 157.969 380.517 157.046C379.595 156.124 378.875 155.039 378.356 153.79C377.838 152.541 377.578 151.205 377.578 149.784L377.578 149.784ZM459.351 225.641C457.199 226.871 455.048 227.755 452.897 228.293C450.745 228.831 448.555 229.1 446.327 229.1C441.717 229.1 437.472 228.312 433.591 226.736C429.711 225.161 426.359 222.98 423.536 220.194C420.712 217.408 418.512 214.113 416.937 210.308C415.362 206.504 414.574 202.373 414.574 197.915C414.574 193.727 415.333 189.778 416.851 186.07C418.368 182.362 420.491 179.114 423.218 176.328C425.946 173.542 429.212 171.342 433.015 169.728C436.819 168.114 440.949 167.288 445.405 167.249C448.133 167.288 450.639 167.576 452.925 168.114C455.211 168.652 457.353 169.382 459.351 170.304V169.036H476.812V226.275C476.812 231.309 475.948 235.661 474.219 239.331C472.49 243.001 470.175 246.037 467.274 248.439C464.374 250.841 461.002 252.628 457.161 253.799C453.319 254.971 449.285 255.557 445.059 255.558C439.834 255.558 435.003 254.847 430.566 253.425C426.129 252.003 422.181 250.082 418.724 247.661L425.927 234.864C428.578 236.555 431.459 237.89 434.571 238.87C437.683 239.85 441.141 240.34 444.944 240.34C447.018 240.34 448.93 240.109 450.678 239.648C452.426 239.187 453.943 238.409 455.23 237.314C456.517 236.218 457.526 234.749 458.256 232.904C458.986 231.059 459.351 228.735 459.351 225.93V225.641L459.351 225.641ZM446.903 213.133C449.593 213.133 452.022 212.451 454.193 211.086C456.364 209.722 458.083 207.926 459.351 205.697L459.466 191.171C458.16 188.75 456.373 186.829 454.107 185.407C451.84 183.985 449.381 183.255 446.73 183.217C444.848 183.255 443.004 183.63 441.198 184.341C439.393 185.052 437.827 186.06 436.502 187.367C435.176 188.673 434.129 190.22 433.361 192.007C432.593 193.794 432.208 195.782 432.208 197.973C432.208 200.278 432.593 202.373 433.361 204.256C434.129 206.139 435.167 207.733 436.473 209.04C437.779 210.347 439.325 211.355 441.112 212.066C442.898 212.777 444.829 213.133 446.903 213.133H446.903ZM538.761 194.399C538.761 191.056 537.877 188.433 536.11 186.531C534.343 184.629 531.999 183.678 529.08 183.678C527.082 183.678 525.065 184.12 523.029 185.003C520.993 185.887 519.014 187.54 517.093 189.961V212.96H526.774V228.754H489.662V212.96H498.422V184.831H489.778V169.037H516.978V174.282C519.475 172.322 522.27 170.776 525.363 169.642C528.455 168.508 531.711 167.941 535.131 167.941C542.315 167.941 547.847 169.949 551.727 173.965C555.607 177.981 557.547 183.851 557.547 191.575V212.96H566.018V228.754H538.761V194.399L538.761 194.399ZM573.221 219.416C573.221 217.879 573.5 216.438 574.057 215.093C574.614 213.748 575.402 212.557 576.42 211.519C577.438 210.481 578.638 209.665 580.021 209.069C581.404 208.474 582.884 208.176 584.459 208.176C585.957 208.176 587.388 208.473 588.752 209.069C590.116 209.665 591.307 210.472 592.325 211.49C593.343 212.508 594.14 213.709 594.716 215.093C595.292 216.476 595.581 217.917 595.581 219.416C595.581 220.953 595.283 222.413 594.687 223.797C594.092 225.18 593.295 226.371 592.296 227.371C591.297 228.37 590.125 229.167 588.781 229.763C587.436 230.358 585.995 230.656 584.459 230.656C582.845 230.656 581.356 230.358 579.993 229.763C578.629 229.167 577.438 228.37 576.42 227.371C575.402 226.371 574.614 225.19 574.057 223.826C573.5 222.461 573.221 220.991 573.221 219.416L573.221 219.416Z" fill="white"/>
<path d="M9.12543 265.98C12.3421 265.98 14.7196 266.925 16.258 268.813L13.5308 271.296C13.1113 270.643 12.5169 270.119 11.7477 269.722C10.9785 269.326 10.0928 269.128 9.09047 269.128C7.64533 269.128 6.4857 269.484 5.61162 270.195C4.73753 270.906 4.30049 271.821 4.30049 272.94C4.30049 274.805 5.53585 276.111 8.00661 276.857L11.1183 277.871C12.8665 278.431 14.2009 279.212 15.1216 280.214C16.0424 281.217 16.5027 282.592 16.5027 284.341C16.5027 286.626 15.6927 288.474 14.0727 289.884C12.4528 291.295 10.3957 292 7.90172 292C4.33545 292 1.70167 290.858 0 288.573L2.7621 286.195C3.2982 287.034 4.03243 287.687 4.96479 288.153C5.89716 288.619 6.91103 288.852 8.00661 288.852C9.38182 288.852 10.5472 288.456 11.5029 287.663C12.4587 286.871 12.9364 285.892 12.9364 284.726C12.9364 283.863 12.6451 283.14 12.0624 282.557C11.4796 281.975 10.4307 281.45 8.91565 280.984L6.71296 280.249C4.49856 279.503 2.94846 278.553 2.06284 277.399C1.17722 276.245 0.73423 274.759 0.73423 272.94C0.73423 271.005 1.51507 269.361 3.07677 268.009C4.63848 266.656 6.65457 265.98 9.12543 265.98V265.98ZM48.655 266.61V291.37H45.2985V266.61H48.655ZM90.2474 265.98C94.3731 265.98 97.4383 267.053 99.4427 269.198L97.0652 271.751C95.2239 270.002 92.9396 269.128 90.2124 269.128C87.4853 269.128 85.2476 270.066 83.4995 271.943C81.7513 273.82 80.8772 276.169 80.8772 278.99C80.8772 281.835 81.8037 284.189 83.6568 286.055C85.5099 287.92 87.7884 288.852 90.4921 288.852C93.0562 288.852 95.0839 288.421 96.5757 287.558V280.669H91.0865V277.521H99.9322V289.727C98.7202 290.449 97.2575 291.009 95.5443 291.405C93.8311 291.802 92.1704 292 90.5621 292C86.6696 292 83.4879 290.787 81.0171 288.363C78.5462 285.938 77.3109 282.814 77.3109 278.99C77.3109 275.306 78.5288 272.217 80.9646 269.722C83.4004 267.228 86.4948 265.98 90.2474 265.98V265.98ZM134.287 266.61L147.923 286.964H147.993V266.61H151.349V291.37H147.084L133.308 271.016H133.238V291.37H129.882V266.61H134.287ZM190.424 266.61C192.825 266.61 194.719 267.204 196.106 268.393C197.493 269.582 198.186 271.296 198.186 273.534C198.186 275.703 197.499 277.399 196.123 278.623C194.748 279.847 192.849 280.459 190.424 280.459H184.9V291.37H181.544V266.61H190.424V266.61ZM189.445 277.521C191.194 277.521 192.493 277.201 193.344 276.559C194.195 275.918 194.62 274.91 194.62 273.534C194.62 270.876 192.895 269.547 189.445 269.547H184.9V277.521H189.445V277.521ZM237.471 265.98C241.154 265.98 244.225 267.204 246.684 269.652C249.143 272.1 250.373 275.213 250.373 278.99C250.373 281.391 249.825 283.589 248.729 285.582C247.634 287.576 246.089 289.144 244.097 290.286C242.104 291.429 239.895 292 237.471 292C235.07 292 232.879 291.434 230.898 290.304C228.917 289.173 227.367 287.611 226.248 285.617C225.129 283.624 224.57 281.415 224.57 278.99C224.57 275.306 225.776 272.217 228.188 269.722C230.601 267.228 233.695 265.98 237.471 265.98V265.98ZM228.136 278.99C228.136 281.788 229.01 284.131 230.758 286.02C232.506 287.908 234.744 288.852 237.471 288.852C240.151 288.852 242.377 287.92 244.149 286.055C245.921 284.189 246.806 281.834 246.806 278.99C246.806 276.169 245.932 273.82 244.184 271.943C242.436 270.066 240.187 269.128 237.436 269.128C234.779 269.128 232.565 270.06 230.793 271.926C229.021 273.791 228.136 276.146 228.136 278.99V278.99ZM286.126 265.98C289.343 265.98 291.72 266.925 293.259 268.813L290.531 271.296C290.112 270.643 289.517 270.119 288.748 269.722C287.979 269.326 287.093 269.128 286.091 269.128C284.646 269.128 283.486 269.484 282.612 270.195C281.738 270.906 281.301 271.821 281.301 272.94C281.301 274.805 282.536 276.111 285.007 276.857L288.119 277.871C289.867 278.431 291.201 279.212 292.122 280.214C293.043 281.217 293.503 282.592 293.503 284.341C293.503 286.626 292.693 288.474 291.073 289.884C289.453 291.295 287.396 292 284.902 292C281.336 292 278.702 290.858 277.001 288.573L279.763 286.195C280.299 287.034 281.033 287.687 281.965 288.153C282.898 288.619 283.912 288.852 285.007 288.852C286.382 288.852 287.548 288.456 288.504 287.663C289.459 286.871 289.937 285.892 289.937 284.726C289.937 283.863 289.646 283.14 289.063 282.557C288.48 281.975 287.431 281.45 285.916 280.984L283.714 280.249C281.499 279.503 279.949 278.553 279.063 277.399C278.178 276.245 277.735 274.759 277.735 272.94C277.735 271.005 278.516 269.361 280.077 268.009C281.639 266.656 283.655 265.98 286.126 265.98V265.98ZM338.802 266.61V269.757H330.83V291.37H327.474V269.757H319.502V266.61H338.802V266.61ZM404.505 266.61L412.372 285.355H412.512L420.308 266.61H425.308V291.37H421.952V271.016H421.882L413.525 291.37H411.288L402.932 271.016H402.862V291.37H399.505V266.61H404.505V266.61ZM456.027 266.61L462.775 277.486L469.732 266.61H473.823L464.453 280.809V291.37H461.097V280.809L451.726 266.61H456.027V266.61ZM541.135 265.98C544.351 265.98 546.729 266.925 548.267 268.813L545.54 271.296C545.12 270.643 544.526 270.119 543.757 269.722C542.988 269.326 542.102 269.128 541.1 269.128C539.655 269.128 538.495 269.484 537.621 270.195C536.747 270.906 536.31 271.821 536.31 272.94C536.31 274.805 537.545 276.111 540.016 276.857L543.128 277.871C544.876 278.431 546.21 279.212 547.131 280.214C548.052 281.217 548.512 282.592 548.512 284.341C548.512 286.626 547.702 288.474 546.082 289.884C544.462 291.295 542.405 292 539.911 292C536.345 292 533.711 290.858 532.009 288.573L534.771 286.195C535.307 287.034 536.042 287.687 536.974 288.153C537.906 288.619 538.92 288.852 540.016 288.852C541.391 288.852 542.556 288.456 543.512 287.663C544.468 286.871 544.946 285.892 544.946 284.726C544.946 283.863 544.654 283.14 544.072 282.557C543.489 281.975 542.44 281.45 540.925 280.984L538.722 280.249C536.508 279.503 534.958 278.553 534.072 277.399C533.186 276.245 532.743 274.759 532.743 272.94C532.743 271.005 533.524 269.361 535.086 268.009C536.648 266.656 538.664 265.98 541.135 265.98V265.98ZM580.664 266.61V291.37H577.308V266.61H580.664ZM627.361 266.61V269.757H619.39V291.37H616.033V269.757H608.062V266.61H627.361V266.61ZM670.737 266.61V269.757H658.115V277.136H669.863V280.284H658.115V288.223H671.366V291.37H654.759V266.61H670.737V266.61Z" fill="white"/>
</svg>
