<svg width="418" height="484" viewBox="0 0 418 484" fill="none" xmlns="http://www.w3.org/2000/svg">
<path fill-rule="evenodd" clip-rule="evenodd" d="M184.063 203.263C166.016 203.653 133.407 224.189 107.776 221.205C107.776 221.205 50.9007 336.318 53.06 338.364C58.0762 343.127 191.133 329.221 193.983 334.507C191.433 341.235 226.023 341.054 223.738 333.548C224.3 332.016 361.697 339.843 364.342 334.954C366.725 330.55 293.871 222.699 293.871 222.699C261.007 223.348 205.718 190.115 195.922 209.828C193.748 204.919 189.584 203.145 184.06 203.264L184.063 203.263ZM183.703 205.032C185.828 204.948 188.032 205.133 189.994 206.055C193.607 206.836 193.029 213.062 196.943 212.661C198.335 206.946 204.543 204.907 209.583 205.266C237.859 207.847 264.303 222.856 292.899 223.735C299.675 233.545 305.806 244.158 312.405 254.107C356.474 324.201 359.78 328.428 357.081 330.631C290.399 327.184 245.846 315.914 225.819 320.839C223.203 321.482 221.908 325.15 219.829 325.768C212.436 327.743 204.136 328.597 196.904 325.683C196.376 324.146 195.243 321.202 193.429 321.027C176.213 319.365 158.799 321.265 141.548 322.263C113.075 323.537 87.8729 334.093 59.3444 333.334C75.4733 295.339 91.2023 259.47 109.256 222.258C115.092 222.658 120.901 222.95 126.609 221.798C146.228 218.372 163.966 207.434 183.702 205.027L183.703 205.032Z" fill="black" stroke="black"/>
<path fill-rule="evenodd" clip-rule="evenodd" d="M186.363 200.31C169.59 200.547 138.357 218.476 115.93 218.637C72.0294 316.763 70.4996 320.882 70.4996 320.882C135.207 311.925 179.248 276.256 211.142 318.601C249.119 274.455 297.269 310.06 347.292 318.9L284.408 218.639C254.859 214.575 203.687 187.846 197.782 208.666C196.596 202.448 192.427 200.228 186.36 200.313L186.363 200.31ZM187.002 202.356C188.189 202.378 189.392 202.534 190.457 202.868C194.604 203.726 195.342 207.389 197.219 210.523C201.025 216.878 201.103 217.638 199.703 210.944C198.888 207.045 205.863 202.632 210.487 202.868C235.343 204.124 258.272 216.659 282.818 220.491C289.49 231.122 296.174 241.739 302.847 252.37C315.882 272.916 328.603 293.814 341.747 314.211C316.115 309.36 290.532 296.34 263.825 293.966C244.628 291.361 224.512 298.748 211.326 313.656C209.695 312.517 208.07 309.983 206.273 308.478C195.246 297.093 179.109 293.572 164.178 295.266C133.813 299.539 105.038 312.391 74.6764 316.895C88.7873 284.733 102.226 251.689 116.543 219.628C140.327 218.42 162.419 205.282 185.825 202.378C186.211 202.358 186.608 202.35 187.004 202.357L187.002 202.356Z" fill="black" stroke="black"/>
<path fill-rule="evenodd" clip-rule="evenodd" d="M211.924 229.36C210.512 230.741 207.595 233.644 210.406 235.326C221.393 241.694 234.583 240.317 246.332 243.53C251.033 245.068 257.516 246.665 259.012 252.416C259.061 258.543 252.824 261.855 248.129 263.539C228.213 269.414 207.198 268.082 186.723 268.458C172.831 268.732 157.909 269.089 145.765 276.815C143.515 277.825 143.134 281.031 145.486 282.122C154.116 287.309 164.345 288.347 173.734 291.59C181.668 294.278 190.092 296.293 197.127 301.151C200.85 304.058 202.865 308.739 202.758 313.617C205.437 324.8 215.795 330.792 223.038 338.435C228.793 344.02 234.104 350.534 236.906 358.409C238.603 352.847 239.02 346.418 242.338 341.723C247.176 339.73 252.57 342.395 257.456 343.231C261.233 344.229 264.941 345.394 268.658 346.582C257.167 335.406 240.847 332.41 229.078 321.778C224.589 318.06 223.259 311.963 220.79 306.882C215.607 298.063 204.932 296.924 196.687 293.372C186.487 289.585 174.505 290.04 165.515 283.101C162.213 280.618 164.884 275.747 168.071 274.919C187.333 268.944 207.821 272.199 227.591 269.788C237.58 268.439 247.976 267.956 257.414 263.987C262.33 261.76 267.445 255.31 263.784 249.688C258.274 242.349 248.54 241.417 240.4 239.95C231.58 238.241 221.501 241.054 213.461 235.965C211.404 234.423 210.981 231.319 212.163 229.039L211.924 229.359L211.924 229.36Z" fill="white"/>
<path fill-rule="evenodd" clip-rule="evenodd" d="M199.655 210.975C199.377 209.758 197.644 211.271 198.973 213.345C200.05 215.027 200.51 216.478 202.548 217.855C205.436 219.806 217.899 220.255 208.812 230.176C199.571 240.267 234.918 242.622 240.604 243.686C251.353 245.699 259.306 249.875 256.659 255.044C253.944 260.345 246.725 264.189 225.746 265.997C204.767 267.804 190.667 266.397 172.508 267.531C154.502 268.656 126.044 278.849 152.918 287.136C166.829 291.425 180.373 294.047 193.476 300.603C196.827 302.28 200.526 306.787 200.586 310.768C200.873 330.058 230.615 337.418 236.451 363.466C236.451 363.466 240.467 344.792 242.322 342.881C245.231 339.883 260.741 344.629 272.735 349.508C254.806 329.245 229.237 330.067 223.491 311.279C219.644 298.702 210.217 296.502 201.544 293.891C185.768 289.139 187.136 289.663 180.079 287.688C174.687 286.178 168.594 284.81 165.48 281.744C163.536 279.831 165.272 277.621 167.177 276.502C170.452 274.579 185.367 272.401 195.494 272.368C210.865 272.318 226.696 271.775 241.563 269.172C249.338 267.81 257.204 266.971 262.152 261.606C265.171 258.333 265.811 255.884 265.706 253.594C265.199 242.465 247.452 239.11 235.113 237.995C229.936 237.528 206.402 239.389 213.486 228.108C216.223 223.75 215.872 220.07 209.373 219.754C207.038 219.641 200.838 216.156 199.656 210.974L199.655 210.975ZM248.372 242.877C250.975 243.175 253.38 243.529 255.995 244.807C259.879 246.705 265.148 252.199 262.231 257.112C257.825 264.534 241.192 267.147 236.258 267.585C235.133 267.685 243.72 265.744 245.541 265.124C250.73 263.359 258.873 260.163 259.695 253.915C260.542 247.47 253.518 244.649 248.751 243.005C248.625 242.961 246.64 242.679 248.372 242.877L248.372 242.877ZM217.981 268.974C211.728 269.223 178.949 271.808 170.749 273.504C166.613 274.359 160.905 277.066 161.572 281.025C162.159 284.507 179.705 288.766 189.145 292.097C197.109 294.908 205.487 296.105 212.846 300.747C219.158 304.729 220.208 313.138 224.149 318.739C232.335 330.376 252.948 337.163 253.032 338.405C253.208 341.036 248.355 338.406 241.782 340.198C237.37 342.346 238.724 349.567 235.527 350.709C233.556 351.414 229.852 344.463 226.046 340.155C218.664 331.8 206.791 326.179 203.78 314.69C202.502 309.809 202.453 303.718 198.229 300.775C182.376 289.292 146.403 285.78 145.37 280.765C144.82 278.098 146.368 276.425 147.583 275.749C160.405 268.613 174.899 268.873 189.132 268.479C190.356 268.445 218.893 268.938 217.981 268.974L217.981 268.974Z" fill="black" stroke="black"/>
<path d="M209 11.42L408.69 126.71V357.29L209 472.58L9.31006 357.29L9.31007 126.71L209 11.42Z" stroke="black" stroke-width="18.446" stroke-linecap="round"/>
<g clip-path="url(#clip0)">
<line x1="210.493" y1="219.858" x2="218.493" y2="303.858" stroke="black" stroke-width="3"/>
<path d="M177.377 157.356C176.798 158.022 176.138 159.213 175.842 160.11C175.563 160.908 175.377 162.885 175.236 166.555C175.148 168.859 174.578 174.49 174.294 175.829C173.99 177.289 173.615 179.595 173.478 180.723C173.436 181.008 173.298 182.159 173.162 183.288C173.015 184.405 172.821 186.182 172.747 187.216C172.661 188.26 172.488 189.441 172.369 189.875C171.581 192.538 171.306 194.365 171.377 196.614C171.402 197.644 171.451 198.962 171.454 199.537C171.468 200.124 171.583 201.138 171.7 201.821C171.936 203.142 171.947 203.154 171.664 205.09C171.399 207.094 171.381 207.336 171.363 209.435C171.345 211.534 171.612 213.366 172.074 214.327C172.556 215.312 174.393 216.36 175.77 216.424C176.32 216.463 176.596 216.925 176.323 217.347C176.199 217.538 175.751 218.235 175.314 218.923C174.89 219.6 174.454 220.288 174.375 220.459C173.914 221.333 171.922 224.298 171.307 225.017C170.621 225.798 170.113 226.856 170.307 227.08C170.43 227.221 170.033 228.597 169.661 229.311C169.123 230.334 168.545 231.31 168.014 232.079C167.731 232.49 167.315 233.202 167.116 233.663C166.905 234.134 166.64 234.591 166.522 234.693C166.404 234.795 166.175 235.221 166.001 235.64C165.827 236.059 165.496 236.676 165.274 236.992C164.744 237.761 158.213 248.126 158.393 248.238C158.468 248.276 160.041 246.013 160.461 245.711C161.216 245.201 162.273 243.393 164.321 243.041C166.495 242.642 172.75 236.328 173.485 234.247C173.679 233.708 174.095 232.997 174.507 232.495C175.174 231.669 175.209 231.639 175.958 231.526C176.942 231.374 177.343 231.171 177.613 230.648C177.74 230.414 178.511 229.374 179.316 228.326C180.121 227.278 180.951 226.187 181.159 225.903C182.026 224.76 182.185 224.705 183.394 225.1C183.999 225.297 185.699 225.639 187.165 225.853C189.134 226.148 189.894 226.334 190.098 226.57C190.252 226.746 195.489 226.918 195.857 227.795C197.108 226.698 192.398 225.179 192.872 226.13C193.636 227.654 202.116 230.16 202.246 226.477C202.373 227.172 197.473 216.721 195.194 225.521C196.18 228.111 196.525 230.104 206.47 226.792C206.824 226.938 199.247 219.113 200.191 223.446C203.729 227.482 204.407 227.582 206.993 227.133C212.021 225.78 209.676 226.123 207.625 226.579C204.628 227.693 212.295 225.854 206.993 227.133C201.929 228.102 212.033 225.729 214.398 225.616C215.432 224.142 211.962 226.288 211.631 225.91C216.947 225.459 208.777 225.912 210.98 225.982C210.873 225.311 209.611 226.082 211.631 225.91C211.867 225.706 212.132 225.765 212.399 225.905C212.463 225.932 212.586 225.908 212.681 225.826C212.763 225.755 212.964 225.725 213.128 225.747C213.293 225.77 213.871 225.722 214.398 225.616C215.529 225.42 215.451 225.425 219.052 224.84C220.551 224.593 222.282 224.351 222.896 224.273C223.52 224.206 224.324 224.086 224.696 223.991C225.045 223.894 225.423 223.877 225.519 223.917C225.626 223.969 225.758 223.978 225.817 223.927C225.911 223.845 228.692 223.456 228.942 223.507C229.008 223.512 229.587 223.464 230.254 223.401C232.66 223.151 232.738 223.146 237.845 223.298C240.945 223.396 243.125 223.362 243.266 223.24C243.313 223.199 243.924 223.165 244.61 223.147C245.307 223.141 246.309 223.035 246.86 222.909C247.401 222.77 248.334 222.703 248.927 222.768C249.509 222.82 250.586 222.896 251.314 222.926C252.041 222.955 252.688 223.034 252.76 223.116C252.994 223.387 255.165 223.795 256.642 223.856C258.087 223.903 258.789 223.974 261.21 224.29C265.722 224.875 272.722 225.448 274.551 225.389C275.049 225.37 276.201 225.34 277.118 225.35C278.721 225.342 279.489 225.275 281.521 224.999C282.638 224.835 282.704 224.84 284.178 224.634C284.835 224.56 285.395 224.467 285.431 224.436C285.477 224.395 285.657 224.363 285.832 224.376C286.01 224.366 286.862 224.206 287.705 224.011C288.57 223.818 289.446 223.615 289.693 223.566C289.93 223.505 290.156 223.433 290.215 223.383C290.262 223.342 290.924 223.2 291.674 223.065C293.297 222.793 294.485 222.403 296.021 221.649C296.65 221.351 297.302 221.054 297.483 221.001C297.663 220.948 298.2 220.709 298.681 220.478C299.172 220.259 300.098 219.827 300.76 219.542C301.399 219.256 303.181 218.31 304.714 217.435C307.469 215.872 307.492 215.851 309.306 215.516C311.436 215.114 313.944 214.363 314.345 214.016C314.498 213.883 314.703 213.787 314.8 213.827C314.886 213.855 315.114 213.76 315.279 213.618C315.445 213.475 315.8 213.29 316.083 213.21C316.366 213.109 316.942 212.939 317.371 212.816C317.79 212.679 318.199 212.531 318.258 212.48C318.363 212.389 323.857 211.627 324.756 211.569C325.044 211.569 325.336 211.501 325.407 211.439C325.478 211.378 325.734 211.341 325.999 211.36C326.24 211.376 326.805 211.361 327.24 211.315C329.534 211.079 330.203 210.995 330.298 210.912C330.369 210.851 330.5 210.86 330.607 210.912C330.702 210.974 331.127 210.916 331.553 210.813C331.959 210.71 332.439 210.645 332.604 210.666C332.768 210.689 332.981 210.65 333.063 210.578C333.157 210.496 333.448 210.45 333.712 210.468C333.954 210.486 334.906 210.322 335.816 210.11C340.541 208.963 342.24 208.708 344.733 208.774C345.097 208.788 345.553 208.766 345.753 208.735C346.302 208.631 350.079 208.39 350.828 208.421C351.202 208.447 351.657 208.424 351.857 208.394C353.057 208.159 360.846 208.379 364.49 208.748C364.994 208.805 365.819 208.853 366.327 208.866C368.138 208.906 378.101 209.635 379.006 209.798C379.519 209.89 379.981 209.922 380.04 209.871C380.157 209.769 366.225 208.749 366.327 208.866C366.369 208.914 385.701 210.327 386.047 210.275C386.404 210.234 386.8 210.262 386.938 210.327C387.076 210.414 387.24 210.437 387.299 210.385C387.358 210.335 388.01 210.325 388.749 210.366C389.486 210.408 390.127 210.409 390.163 210.379C390.198 210.348 390.079 209.543 389.893 208.591C389.718 207.649 388.985 203.829 388.268 200.119C387.562 196.399 386.558 191.597 386.048 189.46C385.538 187.324 384.773 184.109 384.338 182.32C383.014 176.744 381.312 167.802 380.423 161.703C380.055 159.113 379.984 158.887 379.683 158.921C379.26 158.957 347.373 161.352 337.304 162.097C333.27 162.398 329.545 162.698 329.043 162.761C328.541 162.825 327.973 162.885 327.786 162.86C327.598 162.858 327.315 162.959 327.15 163.102C326.985 163.246 326.477 163.397 326.019 163.465C325.562 163.509 325.17 163.582 325.134 163.612C325.1 163.642 324.636 163.632 324.12 163.585C323.592 163.546 322.916 163.576 322.599 163.664C322.036 163.823 319.136 163.718 316.976 163.465C315.375 163.286 313.561 162.98 313.48 162.886C313.45 162.851 313.137 162.751 312.787 162.682C312.439 162.613 312.115 162.502 312.064 162.443C312.003 162.372 311.567 162.275 311.108 162.22C310.624 162.164 309.992 162.053 309.709 161.989C309.426 161.924 308.573 161.798 307.806 161.7C306.261 161.512 304.121 160.995 302.883 160.521C302.421 160.344 301.785 160.111 301.45 160.01C300.736 159.783 299.029 159.077 298.927 158.959C298.896 158.923 298.713 158.855 298.537 158.843C298.363 158.808 297.8 158.636 297.306 158.446C296.811 158.256 296.003 157.966 295.527 157.822C294.522 157.497 289.346 155.527 289.264 155.433C289.234 155.398 288.866 155.283 288.444 155.154C287.576 154.916 285.05 153.93 283.229 153.116C281.579 152.38 278.817 151.288 278.39 151.225C278.203 151.201 277.911 151.125 277.738 151.069C276.682 150.684 275.63 150.399 274.628 150.196C273.331 149.938 272.777 149.799 271.96 149.476C271.648 149.355 270.657 148.997 269.784 148.681C268.9 148.375 267.834 147.979 267.414 147.828C266.983 147.665 266.183 147.409 265.633 147.226C265.092 147.055 264.389 146.84 264.087 146.73C263.784 146.642 263.266 146.472 262.932 146.35C261.153 145.726 260.287 145.465 259.913 145.439C259.693 145.424 259.466 145.353 259.395 145.27C259.333 145.199 259.13 145.108 258.953 145.095C258.768 145.071 258.249 144.901 257.785 144.747C257.322 144.57 256.719 144.351 256.438 144.265C256.146 144.167 255.543 143.947 255.091 143.782C254.639 143.596 254.001 143.407 253.664 143.327C253.337 143.26 253.014 143.149 252.952 143.078C252.902 143.019 252.718 142.951 252.576 142.93C252.422 142.919 251.913 142.762 251.473 142.586C251.022 142.4 249.406 141.821 247.864 141.28C244.207 140.016 243.897 139.872 243.794 139.61C243.722 139.384 244.579 137.754 246.353 134.751C246.782 134.008 247.178 133.274 247.2 133.109C247.224 132.945 247.424 132.462 247.61 132.032C248.377 130.274 249.02 128.087 249.032 127.148C249.046 126.187 248.644 125.009 248.103 124.385C247.735 123.961 246.606 123.373 245.854 123.22C245.505 123.151 245.179 123.084 245.103 123.067C244.765 122.988 243.766 123.194 243.037 123.496C242.342 123.789 241.862 124.164 239.571 126.212C236.971 128.549 236.912 128.599 236.357 128.627C234.894 128.678 233.434 129.304 233.37 129.897C233.34 130.005 232.971 130.531 232.523 131.063C230.87 132.992 229.323 134.993 229.223 135.306C229.01 135.965 225.923 138.931 225.413 138.96C225.157 138.976 224.202 139.35 222.431 140.142C222.032 140.324 221.337 140.617 220.906 140.764C220.474 140.932 219.549 141.341 218.86 141.691C218.023 142.107 216.766 142.537 215.09 142.938C212.007 143.692 210.899 143.89 209.552 143.861C208.879 143.846 208.33 143.951 208.029 144.129C207.774 144.288 207.43 144.463 207.263 144.484C207.094 144.527 206.888 144.623 206.806 144.695C206.582 144.889 204.83 144.963 204.666 144.775C204.595 144.693 204.036 144.62 203.407 144.609C202.788 144.609 201.823 144.496 201.256 144.39C199.947 144.142 199.198 144.255 197.467 144.973C196.089 145.527 196.054 145.558 194.932 146.716C194.321 147.369 193.729 148.068 193.627 148.26C193.266 148.986 192.274 150.485 192.026 150.7C191.885 150.822 191.629 151.147 191.443 151.432C191.156 151.887 190.994 151.986 190.089 152.276C189.523 152.457 188.711 152.687 188.294 152.801C187.866 152.903 186.804 153.226 185.921 153.517C185.038 153.808 184.102 154.063 183.845 154.1C181.813 154.376 178.465 156.062 177.377 157.356ZM222.523 177.853C223.76 178.328 225.09 178.123 226.245 177.288C226.99 176.766 227.069 176.738 227.708 176.927C228.075 177.042 228.491 177.259 228.623 177.412C229.052 177.907 230.055 180.73 230.112 181.63C230.111 181.795 230.438 182.625 230.818 183.492C231.558 185.203 231.7 185.534 232.349 187.426C232.752 188.582 232.77 188.793 232.54 189.694L232.269 190.692L230.772 191.99C228.992 193.533 225.716 195.898 224.326 196.629C222.338 197.693 220.589 198.343 217.466 199.194C215.707 199.666 215.205 199.73 213.62 199.64C211.693 199.536 209.847 199.527 209.575 199.618C209.496 199.646 209.026 199.723 208.556 199.8C207.818 199.925 207.633 199.879 207.358 199.561C207.112 199.278 207.055 198.998 207.15 198.297C207.276 197.3 207.253 195.629 207.1 195.453C206.936 195.264 206.891 194.045 207.041 193.647C207.111 193.442 207.331 193.148 207.51 192.972C207.816 192.707 208.615 191.127 208.859 190.338C209.046 189.743 209.174 189.652 210.124 189.344C211.075 189.036 211.227 188.925 213.125 187.28C215.117 185.553 217.989 182.65 219.012 181.33C219.559 180.65 220.602 178.9 220.772 178.381C220.827 178.23 221.033 177.969 221.212 177.793C221.518 177.528 221.684 177.528 222.523 177.853Z" fill="black"/>
</g>
<defs>
<clipPath id="clip0">
<rect x="132.402" y="153.86" width="216.858" height="180.357" transform="rotate(-20.7582 132.402 153.86)" fill="white"/>
</clipPath>
</defs>
</svg>
