<svg width="418" height="484" viewBox="0 0 418 484" fill="none" xmlns="http://www.w3.org/2000/svg">
<path d="M209 11.42L408.69 126.71V357.29L209 472.58L9.31 357.29L9.31001 126.71L209 11.42Z" stroke="black" stroke-width="18.446" stroke-linecap="round"/>
<path d="M70.8982 135C61.063 135 53 142.882 53 152.47V309.548C53 319.138 61.063 327 70.8982 327H346.102C355.937 327 364 319.138 364 309.548V152.47C364 142.882 355.937 135 346.102 135H70.8982ZM70.8982 144.994H346.102C350.435 144.994 353.749 148.245 353.749 152.47V309.548C353.749 313.775 350.435 317.006 346.102 317.006H70.8982C66.5643 317.006 63.2506 313.775 63.2506 309.548V152.47C63.2506 148.245 66.5644 144.994 70.8982 144.994Z" fill="black"/>
<path d="M36 330C36 341.078 43.4979 350 52.8083 350H364.193C373.503 350 381 341.078 381 330H36Z" fill="black"/>
<path d="M182.451 335H234.549C235.352 335 236 335.669 236 336.501C236 337.331 235.352 338 234.549 338H182.451C181.647 338 181 337.332 181 336.501C181 335.67 181.647 335 182.451 335Z" fill="white"/>
<path d="M236.785 184.802C235.912 184.675 234.553 184.762 233.638 184.996C232.816 185.193 231.052 186.103 227.885 187.965C225.898 189.135 220.851 191.695 219.57 192.179C218.177 192.711 216.033 193.64 215.01 194.134C214.747 194.252 213.704 194.757 212.68 195.252C211.661 195.732 210.06 196.528 209.15 197.023C208.225 197.514 207.137 198.006 206.707 198.14C204.04 198.914 202.354 199.669 200.499 200.942C199.646 201.52 198.563 202.273 198.08 202.586C197.593 202.914 196.802 203.558 196.29 204.025C195.306 204.937 195.301 204.952 193.519 205.759C191.689 206.618 191.475 206.734 189.699 207.852C187.922 208.97 186.524 210.183 185.964 211.09C185.395 212.028 185.505 214.14 186.194 215.334C186.458 215.818 186.219 216.3 185.716 216.298C185.488 216.296 184.659 216.295 183.845 216.299C183.046 216.308 182.231 216.312 182.045 216.338C181.06 216.422 177.489 216.345 176.552 216.215C175.524 216.059 174.359 216.203 174.275 216.488C174.223 216.667 172.85 217.075 172.049 217.148C170.897 217.247 169.763 217.287 168.829 217.256C168.33 217.239 167.507 217.273 167.011 217.354C166.501 217.431 165.973 217.455 165.824 217.411C165.674 217.367 165.192 217.403 164.745 217.483C164.299 217.563 163.6 217.617 163.215 217.601C162.281 217.569 150.031 217.667 150.033 217.879C150.042 217.963 152.796 218.066 153.277 218.256C154.114 218.616 156.206 218.53 157.608 220.064C159.117 221.678 167.809 223.536 169.958 223.032C170.516 222.903 171.339 222.87 171.984 222.945C173.039 223.061 173.084 223.075 173.583 223.644C174.242 224.39 174.629 224.619 175.215 224.563C175.481 224.544 176.773 224.632 178.089 224.744C179.406 224.855 180.772 224.965 181.124 224.987C182.554 225.1 182.686 225.204 183.006 226.435C183.167 227.051 183.797 228.666 184.408 230.016C185.222 231.833 185.476 232.573 185.388 232.872C185.322 233.096 188.005 237.598 187.465 238.381C189.064 238.842 187.8 234.058 187.255 234.969C186.385 236.435 188.853 244.927 192.023 243.048C191.507 243.53 197.659 233.763 189.021 236.595C187.373 238.824 185.882 240.19 194.038 246.774C194.107 247.151 196.604 236.549 193.465 239.682C191.978 244.839 192.26 245.464 194.033 247.398C197.886 250.9 196.332 249.111 194.841 247.631C192.285 245.709 197.972 251.171 194.033 247.398C190.484 243.658 197.936 250.883 199.308 252.813C201.107 252.888 197.427 251.125 197.567 250.642C200.816 254.873 196.024 248.241 197.155 250.133C197.662 249.681 196.331 249.035 197.567 250.642C197.866 250.731 197.959 250.986 197.985 251.286C197.997 251.354 198.084 251.445 198.204 251.48C198.308 251.511 198.442 251.665 198.512 251.815C198.581 251.965 198.934 252.426 199.308 252.813C200.083 253.659 200.037 253.596 202.473 256.312C203.49 257.44 204.628 258.767 205.025 259.241C205.418 259.73 205.954 260.343 206.234 260.604C206.505 260.846 206.723 261.154 206.741 261.257C206.755 261.375 206.818 261.491 206.893 261.513C207.013 261.549 208.841 263.679 208.934 263.918C208.965 263.976 209.318 264.437 209.731 264.965C211.24 266.855 211.287 266.918 213.915 271.299C215.506 273.962 216.712 275.778 216.891 275.831C216.95 275.849 217.309 276.345 217.694 276.912C218.075 277.496 218.706 278.282 219.109 278.678C219.518 279.058 220.078 279.808 220.344 280.342C220.614 280.86 221.131 281.807 221.499 282.437C221.867 283.064 222.15 283.651 222.12 283.756C222.018 284.1 222.846 286.147 223.592 287.424C224.333 288.665 224.652 289.295 225.693 291.503C227.636 295.617 230.932 301.819 231.969 303.327C232.254 303.736 232.901 304.689 233.387 305.467C234.259 306.812 234.73 307.422 236.06 308.984C236.801 309.835 236.832 309.894 237.801 311.023C238.218 311.536 238.599 311.958 238.644 311.971C238.703 311.988 238.828 312.122 238.911 312.276C239.016 312.421 239.61 313.052 240.229 313.656C240.859 314.28 241.503 314.908 241.677 315.089C241.856 315.256 242.039 315.407 242.113 315.43C242.173 315.447 242.65 315.928 243.168 316.486C244.273 317.706 245.243 318.495 246.707 319.381C247.297 319.75 247.899 320.139 248.041 320.262C248.183 320.385 248.674 320.708 249.128 320.989C249.578 321.284 250.441 321.83 251.038 322.233C251.624 322.617 253.382 323.606 254.946 324.424C257.749 325.9 257.779 325.908 259.04 327.254C260.529 328.83 262.515 330.536 263.023 330.686C263.218 330.743 263.409 330.864 263.428 330.967C263.451 331.055 263.654 331.195 263.862 331.258C264.072 331.32 264.42 331.519 264.64 331.714C264.878 331.898 265.332 332.291 265.667 332.586C266.008 332.865 266.354 333.129 266.428 333.151C266.562 333.19 270.169 337.404 270.703 338.129C270.858 338.372 271.073 338.581 271.164 338.607C271.253 338.634 271.423 338.83 271.55 339.063C271.666 339.274 271.984 339.742 272.258 340.083C273.694 341.887 274.126 342.405 274.247 342.44C274.337 342.467 274.4 342.582 274.414 342.7C274.413 342.814 274.692 343.14 275.008 343.443C275.314 343.729 275.628 344.098 275.699 344.248C275.768 344.399 275.916 344.557 276.021 344.587C276.141 344.622 276.337 344.842 276.464 345.074C276.58 345.288 277.231 346 277.901 346.652C281.417 350.01 282.549 351.303 283.839 353.437C284.024 353.751 284.289 354.123 284.423 354.275C284.806 354.681 287.048 357.73 287.426 358.377C287.606 358.706 287.871 359.077 288.005 359.229C288.85 360.112 292.869 366.788 294.526 370.055C294.75 370.51 295.155 371.23 295.418 371.665C296.362 373.211 301.126 381.991 301.477 382.841C301.677 383.322 301.899 383.729 301.974 383.751C302.123 383.794 295.461 371.516 295.418 371.665C295.4 371.726 304.646 388.762 304.877 389.025C305.104 389.304 305.294 389.652 305.314 389.804C305.315 389.967 305.384 390.117 305.46 390.139C305.534 390.161 305.894 390.705 306.259 391.349C306.621 391.992 306.966 392.532 307.011 392.546C307.056 392.559 307.669 392.025 308.37 391.354C309.069 390.698 311.889 388.019 314.625 385.413C317.375 382.811 320.876 379.373 322.399 377.791C323.922 376.208 326.215 373.829 327.487 372.497C331.466 368.372 338.074 362.113 342.729 358.072C344.71 356.364 344.862 356.183 344.671 355.948C344.412 355.611 325.184 330.062 319.121 321.988C316.691 318.754 314.428 315.78 314.103 315.392C313.778 315.004 313.422 314.558 313.341 314.387C313.242 314.228 313.004 314.044 312.794 313.983C312.584 313.921 312.183 313.575 311.879 313.226C311.595 312.865 311.322 312.575 311.277 312.561C311.233 312.548 310.992 312.152 310.753 311.692C310.5 311.227 310.11 310.674 309.865 310.455C309.427 310.067 307.95 307.569 306.997 305.614C306.284 304.169 305.562 302.477 305.598 302.358C305.611 302.314 305.526 301.997 305.395 301.665C305.265 301.335 305.184 301.002 305.206 300.927C305.233 300.838 305.079 300.418 304.878 300.002C304.664 299.565 304.416 298.973 304.317 298.7C304.219 298.427 303.865 297.64 303.533 296.942C302.857 295.54 302.137 293.46 301.868 292.162C301.767 291.677 301.62 291.016 301.524 290.679C301.33 289.956 301.004 288.137 301.048 287.988C301.061 287.943 301.02 287.752 300.935 287.597C300.87 287.432 300.711 286.865 300.604 286.347C300.497 285.827 300.305 284.991 300.169 284.512C299.901 283.491 298.764 278.07 298.8 277.95C298.813 277.906 298.711 277.535 298.592 277.109C298.324 276.25 297.79 273.592 297.493 271.619C297.222 269.833 296.649 266.919 296.472 266.525C296.391 266.355 296.298 266.068 296.252 265.892C296.006 264.795 295.677 263.756 295.308 262.803C294.825 261.572 294.642 261.031 294.473 260.169C294.407 259.84 294.174 258.813 293.968 257.908C293.749 256.998 293.506 255.887 293.407 255.452C293.312 255.001 293.095 254.19 292.952 253.628C292.804 253.08 292.606 252.372 292.535 252.059C292.446 251.756 292.309 251.229 292.232 250.881C291.797 249.047 291.549 248.177 291.369 247.848C291.263 247.655 291.201 247.425 291.232 247.321C291.258 247.231 291.226 247.01 291.14 246.854C291.061 246.685 290.924 246.157 290.803 245.683C290.702 245.198 290.561 244.572 290.482 244.289C290.407 243.99 290.266 243.364 290.161 242.894C290.074 242.414 289.889 241.774 289.774 241.448C289.654 241.136 289.573 240.804 289.599 240.714C289.622 240.64 289.58 240.448 289.521 240.317C289.447 240.182 289.305 239.668 289.214 239.204C289.128 238.723 288.743 237.05 288.366 235.461C287.456 231.699 287.41 231.361 287.575 231.133C287.726 230.95 289.561 230.792 293.046 230.664C293.904 230.624 294.736 230.561 294.886 230.491C295.037 230.422 295.552 230.33 296.014 230.255C297.908 229.951 300.096 229.312 300.893 228.815C301.709 228.308 302.484 227.334 302.717 226.542C302.875 226.003 302.761 224.735 302.484 224.02C302.354 223.689 302.235 223.378 302.208 223.305C302.091 222.978 301.379 222.248 300.731 221.797C300.109 221.37 299.534 221.169 296.574 220.346C293.203 219.418 293.129 219.396 292.806 218.944C291.973 217.74 290.658 216.849 290.125 217.115C290.018 217.148 289.375 217.121 288.686 217.031C286.17 216.681 283.65 216.459 283.333 216.544C282.663 216.72 278.5 215.722 278.2 215.309C278.049 215.102 277.218 214.5 275.595 213.437C275.227 213.199 274.605 212.772 274.249 212.488C273.874 212.215 273.03 211.658 272.364 211.267C271.562 210.787 270.521 209.96 269.279 208.766C266.98 206.578 266.215 205.752 265.512 204.602C265.162 204.028 264.777 203.622 264.465 203.465C264.194 203.337 263.861 203.141 263.753 203.012C263.626 202.893 263.434 202.772 263.329 202.741C263.044 202.657 262.036 201.223 262.106 200.983C262.137 200.879 261.897 200.369 261.566 199.833C261.233 199.313 260.806 198.439 260.59 197.905C260.092 196.669 259.592 196.1 258.054 195.029C256.843 194.169 256.798 194.156 255.217 193.837C254.338 193.675 253.43 193.554 253.214 193.572C252.408 193.659 250.61 193.633 250.296 193.541C250.116 193.488 249.705 193.448 249.364 193.445C248.827 193.449 248.656 193.367 247.923 192.761C247.466 192.383 246.834 191.823 246.512 191.533C246.195 191.229 245.35 190.509 244.629 189.922C243.907 189.336 243.188 188.686 243.018 188.489C241.689 186.928 238.461 185.019 236.785 184.802ZM243.9 233.87C244.168 235.168 245.059 236.177 246.385 236.698C247.226 237.043 247.292 237.095 247.478 237.735C247.58 238.106 247.622 238.573 247.564 238.767C247.379 239.396 245.544 241.763 244.817 242.297C244.678 242.385 244.156 243.109 243.631 243.897C242.59 245.443 242.388 245.741 241.146 247.309C240.39 248.272 240.222 248.401 239.34 248.694L238.353 249.005L236.453 248.445C234.193 247.78 230.434 246.299 229.068 245.523C227.099 244.424 225.608 243.302 223.205 241.133C221.859 239.907 221.534 239.519 220.754 238.136C219.801 236.457 218.813 234.899 218.589 234.719C218.523 234.668 218.205 234.314 217.886 233.96C217.382 233.406 217.321 233.225 217.44 232.822C217.546 232.463 217.751 232.263 218.392 231.964C219.3 231.533 220.694 230.611 220.759 230.387C220.83 230.148 221.832 229.451 222.248 229.363C222.458 229.311 222.825 229.338 223.069 229.393C223.458 229.508 225.219 229.327 226.015 229.107C226.616 228.943 226.762 229.002 227.535 229.636C228.307 230.27 228.482 230.338 230.892 231.047C233.421 231.792 237.415 232.643 239.078 232.792C239.946 232.885 241.982 232.818 242.51 232.681C242.667 232.646 242.998 232.679 243.243 232.734C243.631 232.849 243.721 232.988 243.9 233.87Z" fill="black"/>
</svg>
