<svg width="418" height="484" viewBox="0 0 418 484" fill="none" xmlns="http://www.w3.org/2000/svg">
<g id="devices-hexagon">
<g id="Group">
<path id="Vector" d="M96.2018 123C88.4003 123 82.0045 129.493 82.0045 137.392V266.791C82.0045 274.691 88.4003 281.168 96.2018 281.168H314.5C322.301 281.168 328.697 274.691 328.697 266.791V137.392C328.697 129.493 322.301 123 314.5 123H96.2018ZM96.2018 131.233H314.5C317.937 131.233 320.566 133.911 320.566 137.392V266.791C320.566 270.273 317.937 272.935 314.5 272.935H96.2018C92.764 272.935 90.1355 270.273 90.1355 266.791V137.392C90.1355 133.911 92.7641 131.233 96.2018 131.233Z" fill="black"/>
<path id="Vector_2" d="M69 283.545C69 292.235 74.9266 299.234 82.2859 299.234H328.416C335.775 299.234 341.701 292.235 341.701 283.545H69Z" fill="black"/>
<path id="Vector_3" d="M185.048 286.838H225.661C226.287 286.838 226.792 287.349 226.792 287.984C226.792 288.618 226.287 289.129 225.661 289.129H185.048C184.421 289.129 183.917 288.619 183.917 287.984C183.917 287.35 184.421 286.838 185.048 286.838Z" fill="white"/>
</g>
<g id="phone3 1">
<g clip-path="url(#clip0)">
<path id="Vector_4" d="M348.059 355.498C348.059 358.724 345.186 361.339 341.642 361.339H256.061C252.517 361.339 249.644 358.724 249.644 355.498V188.426C249.644 185.2 252.517 182.584 256.061 182.584H341.642C345.186 182.584 348.059 185.2 348.059 188.426V355.498Z" fill="black" stroke="black" stroke-width="2.82347"/>
<path id="Vector_5" d="M310.396 188.998C310.396 189.707 309.749 190.36 308.851 190.36H288.851C287.952 190.36 287.305 189.707 287.305 188.998C287.305 188.289 287.952 187.636 288.851 187.636H308.851C309.749 187.636 310.396 188.289 310.396 188.998Z" fill="#1A1A1A" stroke="white" stroke-width="0.999991"/>
<path id="Vector_6" d="M343.352 193.757H254.349V345.617H343.352V193.757Z" fill="white"/>
<path id="Vector_7" d="M311.351 354.72C311.351 355.863 310.333 356.789 309.078 356.789H288.623C287.368 356.789 286.351 355.863 286.351 354.72V350.582C286.351 349.439 287.368 348.513 288.623 348.513H309.078C310.333 348.513 311.351 349.439 311.351 350.582V354.72Z" fill="#1A1A1A" stroke="white" stroke-width="1.99998"/>
</g>
</g>
<g id="Group_2">
<path id="Vector_8" d="M209 11.42L408.69 126.71V357.29L209 472.58L9.31 357.29L9.31001 126.71L209 11.42Z" stroke="black" stroke-width="18.446" stroke-linecap="round"/>
</g>
</g>
<defs>
<clipPath id="clip0">
<rect x="249" y="182" width="100" height="180" fill="white"/>
</clipPath>
</defs>
</svg>
