<svg width="418" height="484" viewBox="0 0 418 484" fill="none" xmlns="http://www.w3.org/2000/svg">
<path d="M70.0138 135C60.1151 135 52 142.922 52 152.562V310.456C52 320.097 60.1151 328 70.0138 328H346.987C356.884 328 365 320.097 365 310.456V152.562C365 142.922 356.884 135 346.987 135H70.0138ZM70.0138 145.046H346.987C351.348 145.046 354.683 148.314 354.683 152.562V310.456C354.683 314.706 351.348 317.954 346.987 317.954H70.0138C65.6516 317.954 62.3162 314.706 62.3162 310.456V152.562C62.3162 148.314 65.6516 145.046 70.0138 145.046Z" fill="black"/>
<path d="M36 331C36 341.523 43.4979 350 52.8082 350H364.193C373.503 350 381 341.523 381 331H36Z" fill="black"/>
<path d="M182.451 335H234.549C235.353 335 236 335.669 236 336.501C236 337.331 235.353 338 234.549 338H182.451C181.647 338 181 337.333 181 336.501C181 335.67 181.647 335 182.451 335Z" fill="white"/>
<path d="M77.725 230.809L77.7543 230.773C78.249 230.218 78.7622 229.899 79.2907 229.726C79.8378 229.545 80.4527 229.504 81.1585 229.572C81.8704 229.641 82.6425 229.815 83.4993 230.043C83.8291 230.131 84.182 230.23 84.5488 230.332C85.0943 230.484 85.6691 230.645 86.2316 230.787C88.1625 231.274 90.3431 231.658 92.6886 231.271C95.0525 230.88 97.5074 229.721 100.022 227.258C103.009 224.331 104.071 221.531 104.169 218.899C104.26 216.49 103.534 214.273 102.915 212.383C102.872 212.248 102.829 212.115 102.785 211.984C102.457 210.975 102.184 210.079 102.061 209.253C101.941 208.436 101.976 207.743 102.226 207.129C102.713 205.927 104.162 204.702 108.048 203.659C111.933 202.616 113.835 202.943 114.9 203.728C115.445 204.129 115.85 204.705 116.188 205.464C116.528 206.23 116.778 207.134 117.042 208.159C117.076 208.292 117.111 208.429 117.146 208.566C117.637 210.491 118.213 212.748 119.589 214.762C121.093 216.964 123.511 218.831 127.644 219.846C131.776 220.862 134.833 220.344 137.257 219.11C139.476 217.979 141.114 216.266 142.512 214.807C142.612 214.702 142.709 214.6 142.808 214.498C143.554 213.721 144.226 213.045 144.91 212.531C145.586 212.022 146.231 211.705 146.909 211.605C148.235 211.408 150.066 211.999 152.946 214.707C155.828 217.414 156.482 219.158 156.304 220.434C156.215 221.087 155.898 221.712 155.381 222.372C154.86 223.038 154.17 223.697 153.376 224.43C153.273 224.524 153.168 224.622 153.06 224.719C151.569 226.09 149.82 227.697 148.689 229.851C147.453 232.203 146.976 235.145 148.121 239.089C149.266 243.032 151.262 245.313 153.587 246.71C155.716 247.987 158.08 248.493 160.095 248.923C160.239 248.954 160.38 248.984 160.522 249.015C161.596 249.247 162.541 249.466 163.347 249.777C164.145 250.085 164.752 250.461 165.182 250.976C166.024 251.982 166.403 253.798 165.398 257.548C164.393 261.299 163.147 262.714 161.904 263.206C161.27 263.458 160.548 263.508 159.695 263.409C158.833 263.308 157.893 263.065 156.836 262.771C156.697 262.733 156.557 262.694 156.417 262.655C154.434 262.101 152.108 261.452 149.601 261.589C146.861 261.739 143.965 262.816 140.979 265.743C137.992 268.669 136.93 271.469 136.83 274.101C136.741 276.511 137.465 278.728 138.085 280.619C138.129 280.753 138.172 280.886 138.216 281.018C138.542 282.026 138.817 282.922 138.938 283.747C139.06 284.564 139.023 285.258 138.775 285.872C138.288 287.073 136.838 288.298 132.951 289.341C129.066 290.384 127.165 290.057 126.1 289.273C125.556 288.871 125.149 288.295 124.813 287.537C124.473 286.77 124.223 285.868 123.958 284.842C123.924 284.708 123.89 284.571 123.855 284.434C123.363 282.509 122.788 280.253 121.411 278.238C119.906 276.036 117.489 274.17 113.357 273.154C109.224 272.137 106.168 272.657 103.744 273.892C101.523 275.023 99.8852 276.734 98.4891 278.194C98.3889 278.298 98.2903 278.402 98.1932 278.502C97.4458 279.28 96.7739 279.955 96.0912 280.47C95.4147 280.979 94.7705 281.296 94.0925 281.395C92.7641 281.592 90.9349 281.001 88.0531 278.293C85.1729 275.587 84.518 273.844 84.6952 272.566C84.7861 271.913 85.102 271.288 85.6183 270.629C86.1407 269.962 86.8295 269.305 87.6232 268.571C87.728 268.475 87.8327 268.38 87.9391 268.281C89.4308 266.91 91.1799 265.302 92.311 263.15C93.5469 260.799 94.0246 257.855 92.8781 253.911C91.7331 249.969 89.7375 247.689 87.4136 246.292C85.2839 245.012 82.9214 244.508 80.9057 244.078C80.7609 244.047 80.6191 244.016 80.4789 243.987C79.4048 243.755 78.4586 243.533 77.6526 243.224C76.8544 242.916 76.2472 242.539 75.8172 242.025C74.9774 241.019 74.5967 239.202 75.6015 235.453C76.2241 233.129 76.9607 231.683 77.725 230.809ZM134.25 233.026C126.502 225.747 114.066 225.877 106.472 233.318C98.8774 240.759 99.0007 252.694 106.749 259.974C114.497 267.253 126.934 267.123 134.528 259.682C142.122 252.24 141.997 240.306 134.25 233.026Z" fill="black" stroke="white"/>
<path d="M136.067 203.15L136.07 203.131C136.169 202.625 136.364 202.268 136.619 201.994C136.882 201.711 137.24 201.483 137.713 201.284C138.189 201.082 138.748 200.923 139.396 200.767C139.639 200.708 139.907 200.645 140.186 200.581C140.606 200.484 141.051 200.382 141.476 200.274C142.939 199.9 144.547 199.365 145.961 198.262C147.388 197.149 148.558 195.506 149.242 193.012L148.557 192.848L149.242 193.012C150.055 190.047 149.646 187.836 148.651 186.078C147.746 184.478 146.378 183.301 145.232 182.316C145.15 182.245 145.068 182.175 144.987 182.105C144.375 181.576 143.856 181.11 143.462 180.64C143.075 180.177 142.847 179.751 142.774 179.313C142.636 178.466 143.042 177.228 145.163 175.198C147.283 173.168 148.594 172.761 149.5 172.873C149.968 172.931 150.429 173.136 150.931 173.489C151.441 173.848 151.947 174.325 152.524 174.888C152.6 174.961 152.677 175.037 152.755 175.113C153.829 176.165 155.114 177.424 156.839 178.238C158.734 179.133 161.099 179.47 164.243 178.645C167.386 177.821 169.223 176.383 170.351 174.695C171.376 173.159 171.78 171.459 172.119 170.037C172.143 169.934 172.167 169.832 172.192 169.732C172.375 168.97 172.546 168.316 172.783 167.761C173.017 167.215 173.297 166.817 173.666 166.538C174.379 166.002 175.724 165.713 178.658 166.417C181.592 167.122 182.622 167.983 182.971 168.775C183.151 169.184 183.191 169.66 183.115 170.244C183.038 170.837 182.85 171.488 182.619 172.238C182.588 172.336 182.557 172.437 182.526 172.537C182.091 173.936 181.57 175.61 181.678 177.417C181.798 179.404 182.667 181.493 184.998 183.634C187.327 185.774 189.575 186.545 191.696 186.616C193.626 186.68 195.399 186.157 196.882 185.721C196.989 185.689 197.096 185.657 197.201 185.626C197.994 185.394 198.686 185.205 199.316 185.12C199.938 185.036 200.446 185.064 200.886 185.225C201.74 185.535 202.679 186.484 203.493 189.22C204.305 191.955 204.025 193.222 203.467 193.901C203.179 194.253 202.76 194.523 202.182 194.754C201.595 194.989 200.9 195.162 200.093 195.351C199.986 195.375 199.877 195.399 199.769 195.425C198.26 195.77 196.452 196.185 194.838 197.178C193.06 198.272 191.564 200.023 190.752 202.988C189.939 205.954 190.348 208.163 191.343 209.922C192.246 211.52 193.616 212.699 194.76 213.684C194.844 213.756 194.926 213.826 195.007 213.896C195.617 214.423 196.138 214.89 196.53 215.36C196.919 215.822 197.147 216.249 197.218 216.687C197.358 217.534 196.951 218.771 194.831 220.802C192.711 222.832 191.4 223.24 190.494 223.127C190.026 223.069 189.565 222.864 189.063 222.51C188.553 222.152 188.046 221.675 187.47 221.112C187.394 221.038 187.317 220.963 187.237 220.886C186.163 219.835 184.879 218.576 183.155 217.762C181.26 216.867 178.893 216.531 175.751 217.355C172.608 218.179 170.77 219.618 169.643 221.305C168.617 222.84 168.212 224.541 167.875 225.963C167.85 226.066 167.827 226.168 167.802 226.269C167.619 227.029 167.448 227.684 167.211 228.239C166.976 228.785 166.697 229.184 166.328 229.462C165.615 229.999 164.27 230.288 161.336 229.582C158.402 228.878 157.372 228.017 157.023 227.225C156.843 226.816 156.803 226.34 156.879 225.756C156.955 225.163 157.142 224.512 157.375 223.763C157.404 223.664 157.435 223.563 157.468 223.462C157.903 222.064 158.424 220.39 158.316 218.584C158.195 216.596 157.327 214.507 154.996 212.366C152.665 210.226 150.419 209.454 148.296 209.384C146.368 209.32 144.594 209.843 143.112 210.28C143.004 210.312 142.897 210.344 142.793 210.374C141.998 210.607 141.308 210.795 140.677 210.88C140.054 210.964 139.546 210.935 139.106 210.775C138.254 210.464 137.314 209.516 136.501 206.781C135.999 205.091 135.918 203.939 136.067 203.15ZM173.737 184.36C165.706 182.43 157.522 186.972 155.456 194.505C153.389 202.038 158.224 209.709 166.255 211.641C174.286 213.572 182.472 209.028 184.538 201.495C186.604 193.962 181.768 186.291 173.737 184.36Z" fill="black" stroke="white"/>
<path d="M234.659 166H233.902L233.562 166.733L232.119 169.845L231.593 170.977L232.61 171.604L247.129 180.548C246.952 187.292 244.42 192.623 238.985 196.132L224.442 187.173L223.319 186.483L222.738 187.733L222.018 189.289L221.787 189.785L221.95 190.313C223.804 196.311 226.624 201.429 230.931 205.041C235.249 208.661 240.942 210.667 248.367 210.667C248.55 210.667 248.92 210.752 249.514 211.055C250.086 211.344 250.768 211.783 251.544 212.356C253.095 213.501 254.923 215.113 256.847 216.947C260.693 220.609 264.814 225.052 267.705 228.168L268.57 229.101L269.436 228.168L280.98 215.724L281.858 214.777L280.98 213.832C278.09 210.717 273.425 205.685 269.481 200.953C267.507 198.584 265.738 196.316 264.469 194.416C263.833 193.465 263.342 192.635 263.015 191.951C262.667 191.223 262.583 190.817 262.583 190.667C262.583 183.609 261.691 177.289 257.53 172.804C253.386 168.337 246.292 166 234.659 166ZM325.715 170.276L324.989 169.493L324.149 170.128L309.718 181.016L309.34 181.301L309.228 181.785L307.869 187.648L266.951 231.756L262.003 228.423L261.179 227.867L260.49 228.609L257.604 231.72L257.24 232.112V232.667C257.24 236.747 255.044 239.889 252.172 242.075C249.273 244.281 245.907 245.333 244.038 245.333H243.532L243.173 245.72L219.362 271.387L219 271.779V272.333C219 276.688 221.198 281.091 224.233 284.363C227.269 287.636 231.35 290 235.38 290H235.887L236.245 289.613L260.056 263.947L260.419 263.555V263C260.419 260.993 261.393 257.369 263.439 254.245C265.464 251.152 268.381 248.777 272.178 248.777H272.684L273.044 248.391L275.93 245.28L276.628 244.527L276.103 243.623L273.021 238.305L313.93 194.205L319.373 192.739L319.817 192.619L320.081 192.213L330.183 176.657L330.781 175.736L330.044 174.943L325.715 170.276ZM289.638 223.165L288.773 222.232L287.908 223.165L276.364 235.609L275.485 236.556L276.364 237.501C280.699 242.175 285.724 247.593 289.667 252.325C291.639 254.693 293.315 256.86 294.492 258.656C295.08 259.556 295.525 260.333 295.817 260.976C296.124 261.651 296.203 262.047 296.203 262.223C296.203 269.28 297.096 275.6 301.257 280.085C305.4 284.552 312.495 286.889 324.128 286.889H324.884L325.225 286.155L326.668 283.044L327.193 281.911L326.176 281.285L311.658 272.341C311.834 265.596 314.367 260.265 319.801 256.757L334.345 265.715L335.467 266.407L336.048 265.155L336.769 263.6L337 263.103L336.837 262.576C334.982 256.577 332.162 251.459 327.855 247.848C323.537 244.228 317.845 242.223 310.42 242.223C310.21 242.223 309.848 242.143 309.302 241.881C308.769 241.628 308.138 241.24 307.411 240.719C305.957 239.673 304.224 238.163 302.3 236.331C298.456 232.669 293.976 227.84 289.638 223.165Z" fill="black" stroke="white" stroke-width="2"/>
<path d="M209 11.42L408.69 126.71V357.29L209 472.58L9.31 357.29L9.31001 126.71L209 11.42Z" stroke="black" stroke-width="18.446" stroke-linecap="round"/>
</svg>
