<svg width="419" height="483" viewBox="0 0 419 483" fill="none" xmlns="http://www.w3.org/2000/svg">
<path d="M101.102 127C93.3292 127 86.9569 133.456 86.9569 141.311V269.979C86.9569 277.834 93.3292 284.274 101.102 284.274H318.601C326.373 284.274 332.746 277.834 332.746 269.979V141.311C332.746 133.456 326.373 127 318.601 127H101.102ZM101.102 135.187H318.601C322.025 135.187 324.644 137.849 324.644 141.311V269.979C324.644 273.441 322.025 276.088 318.601 276.088H101.102C97.677 276.088 95.0581 273.441 95.0581 269.979V141.311C95.0581 137.849 97.6771 135.187 101.102 135.187Z" fill="black"/>
<path d="M74 286.638C74 295.279 79.9049 302.238 87.2372 302.238H332.466C339.798 302.238 345.702 295.279 345.702 286.638H74Z" fill="black"/>
<path d="M189.623 289.912H230.087C230.711 289.912 231.214 290.42 231.214 291.052C231.214 291.682 230.711 292.19 230.087 292.19H189.623C188.998 292.19 188.496 291.683 188.496 291.052C188.496 290.421 188.998 289.912 189.623 289.912Z" fill="white"/>
<path d="M209.69 11L409.38 126.29V356.87L209.69 472.16L10 356.87L10 126.29L209.69 11Z" stroke="black" stroke-width="18.446" stroke-linecap="round"/>
<g clip-path="url(#clip0)">
<path d="M248.785 164.802C247.912 164.675 246.553 164.762 245.638 164.996C244.816 165.193 243.052 166.103 239.885 167.965C237.898 169.135 232.851 171.695 231.57 172.179C230.177 172.711 228.033 173.64 227.01 174.134C226.747 174.252 225.704 174.757 224.68 175.252C223.661 175.732 222.06 176.528 221.15 177.023C220.225 177.514 219.137 178.006 218.707 178.14C216.04 178.914 214.354 179.669 212.499 180.942C211.646 181.52 210.563 182.273 210.08 182.586C209.593 182.914 208.802 183.558 208.29 184.025C207.306 184.937 207.301 184.952 205.519 185.759C203.689 186.618 203.475 186.734 201.699 187.852C199.922 188.97 198.524 190.183 197.964 191.09C197.395 192.028 197.505 194.14 198.194 195.334C198.458 195.818 198.219 196.3 197.716 196.298C197.488 196.296 196.659 196.295 195.845 196.299C195.046 196.308 194.231 196.312 194.045 196.338C193.06 196.422 189.489 196.345 188.551 196.215C187.524 196.059 186.359 196.204 186.275 196.488C186.223 196.667 184.85 197.075 184.048 197.148C182.897 197.247 181.763 197.287 180.829 197.256C180.33 197.239 179.506 197.273 179.011 197.354C178.501 197.431 177.973 197.455 177.824 197.411C177.674 197.367 177.192 197.403 176.745 197.483C176.299 197.563 175.6 197.617 175.215 197.601C174.281 197.57 162.031 197.667 162.033 197.879C162.042 197.963 164.796 198.066 165.277 198.256C166.114 198.616 168.206 198.53 169.608 200.064C171.117 201.678 179.809 203.536 181.958 203.032C182.516 202.903 183.339 202.87 183.984 202.945C185.039 203.061 185.084 203.075 185.583 203.644C186.242 204.39 186.629 204.619 187.215 204.563C187.481 204.544 188.773 204.632 190.089 204.744C191.406 204.855 192.772 204.965 193.124 204.987C194.554 205.1 194.686 205.204 195.006 206.435C195.167 207.051 195.797 208.667 196.408 210.016C197.222 211.833 197.476 212.573 197.388 212.872C197.322 213.096 200.005 217.598 199.465 218.382C201.064 218.842 199.8 214.058 199.255 214.969C198.385 216.435 200.853 224.927 204.023 223.048C203.507 223.53 209.659 213.764 201.021 216.596C199.373 218.824 197.882 220.19 206.038 226.774C206.107 227.151 208.604 216.549 205.465 219.682C203.978 224.839 204.26 225.464 206.033 227.398C209.887 230.9 208.332 229.111 206.841 227.631C204.285 225.709 209.972 231.171 206.033 227.398C202.484 223.658 209.936 230.883 211.308 232.813C213.107 232.888 209.427 231.125 209.567 230.642C212.815 234.873 208.024 228.241 209.155 230.133C209.662 229.681 208.331 229.035 209.567 230.642C209.866 230.731 209.959 230.986 209.985 231.286C209.997 231.354 210.084 231.445 210.204 231.48C210.308 231.512 210.442 231.665 210.512 231.815C210.581 231.965 210.934 232.426 211.308 232.813C212.083 233.659 212.037 233.596 214.473 236.312C215.49 237.44 216.628 238.767 217.025 239.241C217.418 239.73 217.954 240.343 218.234 240.604C218.505 240.846 218.722 241.154 218.741 241.257C218.755 241.375 218.819 241.491 218.893 241.514C219.013 241.549 220.842 243.679 220.934 243.918C220.965 243.976 221.318 244.437 221.731 244.965C223.24 246.855 223.287 246.918 225.915 251.299C227.506 253.962 228.712 255.778 228.89 255.831C228.95 255.849 229.309 256.345 229.694 256.912C230.076 257.496 230.706 258.282 231.109 258.678C231.518 259.058 232.078 259.808 232.344 260.342C232.614 260.86 233.131 261.807 233.499 262.437C233.867 263.064 234.15 263.651 234.12 263.756C234.018 264.1 234.846 266.147 235.592 267.424C236.333 268.665 236.652 269.295 237.693 271.503C239.636 275.617 242.932 281.819 243.969 283.327C244.254 283.736 244.901 284.689 245.387 285.467C246.259 286.812 246.73 287.422 248.06 288.984C248.801 289.835 248.832 289.894 249.801 291.023C250.218 291.536 250.599 291.958 250.644 291.971C250.703 291.988 250.828 292.122 250.911 292.276C251.016 292.421 251.61 293.052 252.229 293.656C252.859 294.28 253.502 294.908 253.677 295.089C253.856 295.256 254.039 295.407 254.113 295.43C254.173 295.447 254.65 295.928 255.168 296.486C256.273 297.706 257.243 298.495 258.707 299.381C259.297 299.75 259.899 300.139 260.041 300.262C260.183 300.385 260.674 300.708 261.128 300.989C261.578 301.284 262.441 301.83 263.038 302.233C263.624 302.617 265.382 303.606 266.946 304.424C269.749 305.9 269.779 305.908 271.04 307.254C272.529 308.83 274.515 310.536 275.023 310.686C275.218 310.743 275.409 310.864 275.428 310.967C275.451 311.055 275.654 311.195 275.862 311.258C276.072 311.32 276.42 311.519 276.64 311.714C276.878 311.898 277.332 312.291 277.667 312.586C278.008 312.865 278.354 313.129 278.428 313.151C278.562 313.19 282.169 317.404 282.703 318.129C282.858 318.372 283.073 318.581 283.164 318.607C283.253 318.634 283.423 318.83 283.55 319.063C283.666 319.274 283.984 319.742 284.258 320.083C285.694 321.887 286.126 322.405 286.247 322.44C286.337 322.467 286.4 322.582 286.414 322.7C286.413 322.814 286.692 323.14 287.008 323.443C287.314 323.729 287.628 324.098 287.699 324.248C287.768 324.399 287.916 324.557 288.021 324.587C288.141 324.622 288.337 324.842 288.464 325.074C288.58 325.288 289.231 326 289.901 326.652C293.417 330.01 294.549 331.303 295.839 333.437C296.024 333.751 296.289 334.123 296.423 334.275C296.806 334.681 299.048 337.73 299.426 338.377C299.606 338.706 299.871 339.077 300.005 339.229C300.85 340.112 304.869 346.788 306.526 350.055C306.75 350.51 307.155 351.23 307.418 351.665C308.362 353.211 313.126 361.991 313.477 362.841C313.677 363.322 313.899 363.729 313.974 363.751C314.123 363.794 307.461 351.516 307.418 351.665C307.4 351.726 316.646 368.762 316.877 369.025C317.104 369.304 317.294 369.652 317.314 369.804C317.315 369.967 317.384 370.117 317.46 370.139C317.534 370.161 317.894 370.705 318.259 371.349C318.621 371.992 318.966 372.532 319.011 372.546C319.056 372.559 319.669 372.024 320.37 371.354C321.069 370.698 323.889 368.019 326.625 365.413C329.375 362.811 332.876 359.373 334.399 357.791C335.922 356.208 338.215 353.829 339.487 352.497C343.466 348.372 350.074 342.113 354.729 338.072C356.71 336.364 356.862 336.183 356.671 335.948C356.412 335.611 337.184 310.062 331.121 301.988C328.691 298.754 326.428 295.78 326.103 295.392C325.778 295.004 325.422 294.558 325.341 294.387C325.242 294.228 325.004 294.044 324.794 293.983C324.584 293.921 324.183 293.575 323.879 293.226C323.595 292.865 323.322 292.575 323.277 292.561C323.233 292.548 322.992 292.152 322.753 291.692C322.5 291.227 322.11 290.674 321.865 290.455C321.427 290.067 319.95 287.569 318.997 285.614C318.284 284.169 317.562 282.477 317.598 282.358C317.611 282.314 317.526 281.997 317.395 281.665C317.265 281.335 317.184 281.002 317.206 280.927C317.233 280.838 317.079 280.418 316.878 280.002C316.664 279.565 316.416 278.973 316.317 278.7C316.219 278.427 315.865 277.64 315.533 276.942C314.857 275.54 314.137 273.46 313.868 272.162C313.767 271.677 313.62 271.016 313.524 270.679C313.33 269.956 313.004 268.137 313.048 267.988C313.061 267.943 313.02 267.752 312.935 267.597C312.87 267.432 312.711 266.865 312.604 266.347C312.497 265.827 312.305 264.991 312.169 264.512C311.901 263.491 310.764 258.07 310.8 257.95C310.813 257.906 310.711 257.535 310.592 257.109C310.324 256.25 309.79 253.592 309.493 251.619C309.222 249.833 308.649 246.919 308.472 246.525C308.391 246.355 308.298 246.068 308.252 245.892C308.006 244.796 307.677 243.756 307.308 242.803C306.825 241.572 306.642 241.031 306.473 240.169C306.407 239.84 306.174 238.813 305.968 237.908C305.749 236.998 305.506 235.887 305.407 235.452C305.312 235.001 305.095 234.19 304.952 233.628C304.804 233.08 304.606 232.372 304.535 232.059C304.446 231.756 304.309 231.229 304.232 230.881C303.797 229.047 303.549 228.177 303.369 227.848C303.263 227.655 303.201 227.425 303.232 227.321C303.258 227.231 303.226 227.01 303.14 226.855C303.061 226.685 302.924 226.157 302.803 225.683C302.702 225.198 302.561 224.572 302.482 224.289C302.407 223.99 302.266 223.364 302.161 222.895C302.074 222.414 301.889 221.774 301.774 221.448C301.654 221.136 301.573 220.804 301.599 220.714C301.622 220.64 301.58 220.449 301.521 220.317C301.447 220.182 301.305 219.669 301.214 219.204C301.128 218.723 300.743 217.05 300.366 215.461C299.456 211.699 299.41 211.361 299.575 211.133C299.726 210.95 301.561 210.792 305.046 210.664C305.904 210.624 306.736 210.561 306.886 210.491C307.037 210.422 307.552 210.33 308.014 210.255C309.908 209.951 312.096 209.312 312.893 208.815C313.709 208.308 314.484 207.334 314.717 206.542C314.875 206.003 314.761 204.735 314.484 204.02C314.354 203.689 314.235 203.378 314.208 203.305C314.091 202.978 313.379 202.248 312.731 201.797C312.109 201.37 311.534 201.169 308.574 200.346C305.203 199.418 305.129 199.396 304.806 198.944C303.973 197.74 302.658 196.849 302.125 197.115C302.018 197.148 301.375 197.121 300.686 197.031C298.17 196.681 295.65 196.459 295.333 196.544C294.663 196.72 290.5 195.722 290.2 195.309C290.049 195.102 289.218 194.5 287.595 193.437C287.227 193.199 286.605 192.772 286.249 192.488C285.874 192.215 285.03 191.658 284.364 191.267C283.562 190.787 282.521 189.96 281.279 188.766C278.98 186.578 278.215 185.752 277.512 184.602C277.162 184.028 276.777 183.622 276.465 183.465C276.194 183.337 275.861 183.141 275.753 183.012C275.626 182.893 275.434 182.772 275.329 182.741C275.044 182.657 274.036 181.223 274.106 180.983C274.137 180.879 273.897 180.369 273.566 179.833C273.233 179.313 272.806 178.44 272.59 177.905C272.092 176.669 271.592 176.1 270.054 175.029C268.843 174.169 268.798 174.156 267.217 173.837C266.338 173.675 265.43 173.554 265.214 173.572C264.408 173.659 262.61 173.634 262.296 173.541C262.116 173.488 261.705 173.448 261.364 173.445C260.827 173.449 260.656 173.367 259.923 172.761C259.466 172.383 258.834 171.823 258.512 171.533C258.195 171.229 257.35 170.509 256.629 169.922C255.907 169.336 255.188 168.686 255.018 168.489C253.688 166.928 250.461 165.019 248.785 164.802ZM255.9 213.87C256.168 215.168 257.059 216.177 258.385 216.698C259.226 217.043 259.292 217.095 259.478 217.735C259.58 218.106 259.622 218.573 259.564 218.767C259.379 219.396 257.544 221.763 256.817 222.297C256.678 222.385 256.156 223.109 255.631 223.897C254.59 225.443 254.388 225.741 253.146 227.309C252.39 228.272 252.222 228.401 251.34 228.694L250.353 229.005L248.453 228.446C246.193 227.78 242.434 226.299 241.068 225.523C239.099 224.424 237.608 223.302 235.205 221.133C233.859 219.907 233.534 219.519 232.754 218.136C231.801 216.457 230.813 214.899 230.589 214.719C230.523 214.668 230.205 214.314 229.886 213.96C229.382 213.406 229.321 213.226 229.44 212.822C229.546 212.463 229.751 212.263 230.392 211.965C231.3 211.533 232.694 210.611 232.759 210.387C232.83 210.148 233.832 209.451 234.248 209.363C234.458 209.311 234.824 209.338 235.069 209.393C235.457 209.508 237.219 209.327 238.015 209.107C238.616 208.943 238.762 209.002 239.534 209.636C240.307 210.27 240.482 210.338 242.891 211.047C245.421 211.792 249.415 212.643 251.078 212.792C251.946 212.885 253.982 212.818 254.51 212.681C254.667 212.646 254.998 212.679 255.243 212.734C255.631 212.849 255.721 212.989 255.9 213.87Z" fill="black"/>
</g>
<defs>
<clipPath id="clip0">
<rect x="135" y="153" width="268" height="246" fill="white"/>
</clipPath>
</defs>
</svg>
