<svg width="418" height="484" viewBox="0 0 418 484" fill="none" xmlns="http://www.w3.org/2000/svg">
<path d="M209 11.42L408.69 126.71V357.29L209 472.58L9.31 357.29L9.31001 126.71L209 11.42Z" stroke="black" stroke-width="18.446" stroke-linecap="round"/>
<path d="M108.01 120C100.837 120 94.9565 125.759 94.9565 132.766V247.543C94.9565 254.551 100.837 260.296 108.01 260.296H308.716C315.888 260.296 321.769 254.551 321.769 247.543V132.766C321.769 125.759 315.888 120 308.716 120H108.01ZM108.01 127.303H308.716C311.876 127.303 314.293 129.678 314.293 132.766V247.543C314.293 250.632 311.876 252.993 308.716 252.993H108.01C104.849 252.993 102.432 250.632 102.432 247.543V132.766C102.432 129.678 104.849 127.303 108.01 127.303Z" fill="black"/>
<path d="M83 262.404C83 270.112 88.449 276.321 95.2152 276.321H321.511C328.277 276.321 333.725 270.112 333.725 262.404H83Z" fill="black"/>
<path d="M189.696 265.325H227.036C227.612 265.325 228.076 265.778 228.076 266.342C228.076 266.904 227.612 267.357 227.036 267.357H189.696C189.12 267.357 188.656 266.905 188.656 266.342C188.656 265.779 189.12 265.325 189.696 265.325Z" fill="white"/>
<path d="M162.024 200.673L162.043 200.65C162.364 200.291 162.697 200.085 163.04 199.973C163.395 199.856 163.794 199.83 164.252 199.874C164.714 199.918 165.215 200.031 165.771 200.178C165.985 200.235 166.215 200.299 166.452 200.365C166.806 200.463 167.179 200.567 167.544 200.659C168.797 200.974 170.212 201.222 171.734 200.972C173.268 200.719 174.861 199.97 176.493 198.378C178.431 196.486 179.12 194.676 179.184 192.975C179.243 191.418 178.772 189.985 178.37 188.763C178.342 188.676 178.314 188.59 178.286 188.505C178.073 187.853 177.896 187.274 177.816 186.74C177.738 186.212 177.761 185.764 177.923 185.367C178.239 184.59 179.179 183.798 181.701 183.124C184.222 182.45 185.456 182.661 186.147 183.169C186.501 183.428 186.764 183.8 186.983 184.291C187.204 184.786 187.366 185.37 187.537 186.033C187.559 186.119 187.582 186.207 187.605 186.296C187.923 187.54 188.297 188.999 189.19 190.301C190.166 191.724 191.735 192.931 194.417 193.587C197.098 194.244 199.082 193.909 200.655 193.111C202.095 192.38 203.158 191.273 204.065 190.33C204.13 190.262 204.193 190.196 204.257 190.13C204.741 189.628 205.177 189.191 205.621 188.859C206.06 188.53 206.478 188.325 206.918 188.26C207.779 188.133 208.967 188.515 210.836 190.265C212.706 192.015 213.13 193.142 213.015 193.967C212.957 194.389 212.751 194.793 212.416 195.22C212.078 195.65 211.63 196.076 211.115 196.55C211.048 196.611 210.98 196.674 210.91 196.737C209.942 197.623 208.807 198.662 208.073 200.054C207.271 201.574 206.962 203.476 207.705 206.025C208.448 208.574 209.743 210.048 211.252 210.951C212.633 211.777 214.167 212.104 215.475 212.382C215.568 212.402 215.66 212.421 215.752 212.441C216.449 212.591 217.062 212.733 217.585 212.934C218.103 213.133 218.497 213.376 218.776 213.709C219.322 214.359 219.568 215.533 218.916 217.957C218.264 220.381 217.455 221.296 216.649 221.614C216.237 221.777 215.769 221.809 215.215 221.745C214.656 221.68 214.046 221.523 213.36 221.333C213.27 221.308 213.179 221.283 213.088 221.258C211.801 220.9 210.292 220.48 208.665 220.569C206.887 220.666 205.008 221.362 203.07 223.254C201.132 225.145 200.443 226.955 200.378 228.656C200.32 230.214 200.79 231.647 201.192 232.869C201.221 232.956 201.249 233.042 201.277 233.127C201.489 233.779 201.667 234.358 201.746 234.891C201.825 235.419 201.801 235.868 201.64 236.265C201.324 237.041 200.383 237.833 197.861 238.507C195.34 239.181 194.106 238.97 193.415 238.463C193.062 238.203 192.798 237.831 192.58 237.341C192.359 236.845 192.197 236.262 192.025 235.599C192.003 235.512 191.981 235.424 191.958 235.335C191.639 234.091 191.266 232.633 190.372 231.33C189.396 229.907 187.827 228.701 185.146 228.044C182.464 227.387 180.481 227.723 178.908 228.521C177.467 229.252 176.404 230.358 175.498 231.302C175.433 231.369 175.369 231.436 175.306 231.501C174.821 232.004 174.385 232.44 173.942 232.773C173.503 233.102 173.085 233.307 172.645 233.371C171.783 233.498 170.596 233.116 168.726 231.366C166.857 229.617 166.432 228.49 166.547 227.664C166.606 227.242 166.811 226.838 167.146 226.412C167.485 225.981 167.932 225.556 168.447 225.082C168.515 225.02 168.583 224.958 168.652 224.894C169.62 224.008 170.755 222.969 171.489 221.578C172.291 220.058 172.601 218.155 171.857 215.606C171.114 213.058 169.819 211.584 168.311 210.681C166.929 209.854 165.396 209.528 164.088 209.25C163.994 209.23 163.902 209.21 163.811 209.191C163.114 209.041 162.5 208.898 161.977 208.698C161.459 208.499 161.065 208.255 160.786 207.923C160.241 207.273 159.994 206.098 160.646 203.675L160.151 203.553L160.646 203.675C161.05 202.173 161.528 201.238 162.024 200.673ZM198.704 202.106C193.676 197.401 185.606 197.485 180.678 202.295C175.75 207.105 175.83 214.819 180.858 219.525C185.886 224.23 193.956 224.146 198.884 219.336C203.812 214.526 203.731 206.812 198.704 202.106Z" fill="black" stroke="white"/>
<path d="M200.193 182.67L200.195 182.658C200.259 182.325 200.385 182.09 200.549 181.91C200.719 181.724 200.95 181.574 201.255 181.443C201.562 181.31 201.923 181.206 202.341 181.103C202.498 181.064 202.671 181.023 202.851 180.981C203.122 180.917 203.409 180.85 203.683 180.779C204.627 180.533 205.665 180.181 206.577 179.456C207.498 178.724 208.253 177.643 208.694 176.003L208.199 175.881L208.694 176.003C209.219 174.053 208.955 172.599 208.313 171.443C207.729 170.391 206.846 169.617 206.107 168.969C206.054 168.922 206.001 168.876 205.949 168.83C205.554 168.482 205.219 168.176 204.965 167.867C204.715 167.562 204.568 167.282 204.521 166.994C204.432 166.437 204.694 165.623 206.062 164.288C207.43 162.953 208.276 162.685 208.861 162.759C209.163 162.797 209.46 162.932 209.784 163.164C210.113 163.4 210.44 163.714 210.812 164.084C210.861 164.132 210.911 164.182 210.961 164.232C211.654 164.924 212.483 165.752 213.596 166.287C214.819 166.876 216.345 167.097 218.374 166.555C220.402 166.013 221.587 165.067 222.315 163.957C222.976 162.947 223.237 161.829 223.456 160.894C223.471 160.826 223.487 160.759 223.503 160.693C223.621 160.192 223.731 159.762 223.884 159.397C224.035 159.038 224.216 158.776 224.454 158.593C224.914 158.24 225.782 158.05 227.675 158.513C229.568 158.977 230.233 159.543 230.458 160.064C230.574 160.333 230.6 160.646 230.551 161.03C230.501 161.42 230.38 161.848 230.231 162.341C230.211 162.406 230.191 162.472 230.171 162.538C229.89 163.458 229.554 164.559 229.624 165.747C229.701 167.054 230.262 168.428 231.766 169.836C233.269 171.243 234.719 171.75 236.088 171.797C237.333 171.839 238.477 171.495 239.434 171.208C239.503 171.187 239.572 171.166 239.64 171.146C240.152 170.993 240.598 170.869 241.005 170.813C241.406 170.758 241.734 170.776 242.018 170.882C242.569 171.086 243.175 171.71 243.7 173.509C244.224 175.308 244.043 176.141 243.683 176.588C243.497 176.819 243.227 176.997 242.854 177.149C242.475 177.303 242.027 177.417 241.506 177.541C241.437 177.557 241.367 177.573 241.297 177.59C240.323 177.817 239.157 178.09 238.115 178.743C236.968 179.462 236.003 180.614 235.479 182.564C234.954 184.514 235.218 185.967 235.86 187.124C236.443 188.175 237.327 188.95 238.065 189.598C238.119 189.645 238.172 189.691 238.224 189.737C238.618 190.084 238.954 190.391 239.207 190.7C239.458 191.004 239.605 191.285 239.651 191.573C239.741 192.13 239.479 192.943 238.111 194.279C236.743 195.614 235.897 195.882 235.312 195.808C235.01 195.77 234.713 195.635 234.389 195.402C234.06 195.167 233.733 194.853 233.361 194.483C233.312 194.434 233.262 194.385 233.211 194.334C232.518 193.643 231.689 192.815 230.577 192.28C229.354 191.691 227.827 191.47 225.799 192.012C223.771 192.554 222.585 193.5 221.858 194.61C221.196 195.619 220.935 196.738 220.717 197.673C220.701 197.741 220.686 197.808 220.67 197.874C220.552 198.374 220.442 198.805 220.289 199.17C220.137 199.529 219.957 199.791 219.719 199.974C219.259 200.327 218.391 200.517 216.498 200.053C214.605 199.59 213.94 199.024 213.715 198.503C213.599 198.234 213.573 197.921 213.622 197.537C213.671 197.147 213.792 196.719 213.942 196.226C213.961 196.161 213.981 196.095 214.002 196.028C214.283 195.109 214.619 194.008 214.549 192.82C214.471 191.513 213.911 190.139 212.407 188.731C210.903 187.324 209.454 186.816 208.084 186.77C206.84 186.728 205.695 187.072 204.739 187.359C204.669 187.38 204.6 187.401 204.533 187.421C204.02 187.574 203.575 187.698 203.168 187.754C202.766 187.809 202.438 187.79 202.154 187.685C201.604 187.48 200.998 186.857 200.473 185.058C200.149 183.947 200.097 183.189 200.193 182.67ZM224.5 170.313C219.318 169.044 214.037 172.031 212.704 176.985C211.37 181.939 214.49 186.984 219.672 188.254C224.854 189.524 230.136 186.536 231.469 181.582C232.802 176.628 229.682 171.583 224.5 170.313Z" fill="black" stroke="white"/>
<path d="M173.75 293H173.134L172.857 293.55L171.682 295.884L171.254 296.733L172.082 297.203L183.904 303.911C183.76 308.969 181.698 312.967 177.273 315.599L165.431 308.88L164.517 308.362L164.044 309.3L163.457 310.467L163.269 310.839L163.402 311.235C164.912 315.733 167.208 319.572 170.715 322.281C174.231 324.996 178.866 326.5 184.912 326.5C185.061 326.5 185.362 326.564 185.846 326.791C186.312 327.008 186.867 327.337 187.499 327.767C188.762 328.626 190.25 329.835 191.817 331.21C194.948 333.957 198.304 337.289 200.658 339.626L201.362 340.326L202.067 339.626L211.467 330.293L212.182 329.583L211.467 328.874C209.114 326.538 205.315 322.764 202.104 319.215C200.497 317.438 199.056 315.737 198.023 314.312C197.505 313.599 197.105 312.976 196.839 312.463C196.556 311.917 196.487 311.613 196.487 311.5C196.487 306.207 195.761 301.467 192.373 298.103C188.999 294.753 183.222 293 173.75 293ZM247.892 296.207L247.301 295.62L246.617 296.096L234.867 304.262L234.559 304.476L234.468 304.839L233.361 309.236L200.044 342.317L196.015 339.817L195.344 339.4L194.783 339.957L192.433 342.29L192.137 342.584V343C192.137 346.06 190.349 348.417 188.01 350.056C185.65 351.711 182.909 352.5 181.387 352.5H180.975L180.683 352.79L161.295 372.04L161 372.334V372.75C161 376.016 162.79 379.318 165.261 381.772C167.733 384.227 171.056 386 174.337 386H174.75L175.042 385.71L194.43 366.46L194.725 366.166V365.75C194.725 364.245 195.518 361.527 197.184 359.184C198.833 356.864 201.208 355.083 204.3 355.083H204.712L205.005 354.793L207.355 352.46L207.923 351.895L207.496 351.217L204.986 347.229L238.296 314.154L242.728 313.054L243.09 312.964L243.305 312.66L251.53 300.993L252.017 300.302L251.417 299.707L247.892 296.207ZM218.517 335.874L217.812 335.174L217.108 335.874L207.708 345.207L206.993 345.917L207.708 346.626C211.238 350.131 215.33 354.195 218.54 357.744C220.146 359.52 221.511 361.145 222.469 362.492C222.948 363.167 223.31 363.75 223.548 364.232C223.798 364.738 223.862 365.035 223.862 365.167C223.862 370.46 224.589 375.2 227.977 378.564C231.351 381.914 237.128 383.667 246.6 383.667H247.216L247.493 383.116L248.668 380.783L249.096 379.933L248.268 379.464L236.446 372.756C236.59 367.697 238.652 363.699 243.077 361.068L254.919 367.786L255.833 368.305L256.306 367.366L256.893 366.2L257.081 365.827L256.948 365.432C255.438 360.933 253.142 357.094 249.635 354.386C246.119 351.671 241.484 350.167 235.438 350.167C235.267 350.167 234.973 350.107 234.528 349.911C234.094 349.721 233.58 349.43 232.988 349.039C231.804 348.255 230.393 347.122 228.827 345.748C225.697 343.002 222.049 339.38 218.517 335.874Z" fill="black" stroke="white" stroke-width="2"/>
</svg>
